{
.appVersion = "3108";
copyright = "Copyright 2011 The ABeeZee Project Authors (https://github.com/googlefonts/abeezee)";
customParameters = (
{
name = fsType;
value = (
);
},
{
name = "Use Line Breaks";
value = 1;
},
{
name = "Use Typo Metrics";
value = 1;
},
{
name = license;
value = "This Font Software is licensed under the SIL Open Font License, Version 1.1. This license is available with a FAQ at: https://scripts.sil.org/OFL";
},
{
name = licenseURL;
value = "https://scripts.sil.org/OFL";
},
{
name = trademark;
value = "ABeeZee is a trademark of Anja Meiners.";
}
);
date = "2022-01-26 15:11:41 +0000";
designer = "Anja Meiners";
designerURL = "https://carrois.com/";
familyName = ABeeZee;
featurePrefixes = (
{
code = "#> languagesystem
languagesystem DFLT dflt;
languagesystem latn dflt;
#< languagesystem
";
name = Languagesystems;
}
);
features = (
{
automatic = 1;
code = "feature locl;
feature sups;
feature frac;
feature ordn;
feature case;
";
name = aalt;
},
{
automatic = 1;
code = "lookup locl_latn_0 {
	script latn;
	language CAT;
	sub  l' periodcentered' l by ldot;
} locl_latn_0;
";
name = locl;
},
{
automatic = 1;
code = "sub one by onesuperior;
sub two by twosuperior;
sub three by threesuperior;
sub four by foursuperior;
";
name = sups;
},
{
automatic = 1;
code = "sub one slash four by onequarter;
sub one slash two by onehalf;
sub three slash four by threequarters;
";
name = frac;
},
{
automatic = 1;
code = "sub [zero one two three four five six seven eight nine] [A a]' by ordfeminine;
sub [zero one two three four five six seven eight nine] [O o]' by ordmasculine;
";
name = ordn;
},
{
automatic = 1;
code = "sub dotaccentcmb by dotaccentcmb.case;
sub dieresis by dieresis.case;
sub grave by grave.case;
sub acute by acute.case;
sub circumflex by circumflex.case;
sub caron by caron.case;
sub ring by ring.case;
sub tilde by tilde.case;
";
name = case;
}
);
fontMaster = (
{
ascender = 920;
capHeight = 700;
custom = Italic;
customParameters = (
{

glyphs = (
{
color = 6;
glyphname = A;
lastChange = "2022-01-27 14:35:35 +0000";
layers = (
{
hints = (
{
horizontal = 1;
place = "{190, 80}";
type = Stem;
},
{
horizontal = 1;
place = "{-10, 21}";
target = up;
type = BottomGhost;
},
{
horizontal = 1;
place = "{700, -20}";
target = down;
type = TopGhost;
}
);
layerId = "B977A21F-8DFA-4EFB-8109-A765B080AA93";
paths = (
{
closed = 1;
nodes = (
"48 -8 LINE",
"159 190 LINE",
"483 190 LINE",
"525 -10 LINE",
"616 11 LINE",
"463 700 LINE",
"356 700 LINE",
"-28 37 LINE"
);
},
{
closed = 1;
nodes = (
"395 607 LINE",
"466 270 LINE",
"204 270 LINE"
);
}
);
width = 663;
}
);
unicode = 0041;
},
{
color = 6;
glyphname = AE;
lastChange = "2022-01-27 14:35:35 +0000";
layers = (
{
associatedMasterId = "B977A21F-8DFA-4EFB-8109-A765B080AA93";
layerId = "E3DCEFA0-8403-4D0F-893C-EF64BA96B068";
name = img;
width = 872;
},
{
hints = (
{
horizontal = 1;
place = "{0, 82}";
type = Stem;
},
{
horizontal = 1;
place = "{190, 80}";
type = Stem;
},
{
horizontal = 1;
place = "{325, 80}";
type = Stem;
},
{
horizontal = 1;
place = "{618, 82}";
type = Stem;
},
{
horizontal = 1;
place = "{-9, 21}";
target = up;
type = BottomGhost;
}
);
layerId = "B977A21F-8DFA-4EFB-8109-A765B080AA93";
paths = (
{
closed = 1;
nodes = (
"34 -9 LINE",
"179 190 LINE",
"418 190 LINE",
"385 0 LINE",
"787 0 LINE",
"801 82 LINE",
"491 82 LINE",
"534 325 LINE",
"799 325 LINE",
"813 405 LINE",
"548 405 LINE",
"586 618 LINE",
"896 618 LINE",
"910 700 LINE",
"445 700 LINE",
"-38 42 LINE"
);
},
{
closed = 1;
nodes = (
"494 623 LINE",
"432 270 LINE",
"237 270 LINE"
);
}
);
width = 872;
}
);
unicode = 00C6;
},
{
color = 6;
glyphname = B;
lastChange = "2022-01-27 14:35:35 +0000";
layers = (
{
hints = (
{
place = "{466, 97}";
type = Stem;
},
{
place = "{492, 71}";
type = Stem;
},
{
place = "{492, 93}";
type = Stem;
},
{
horizontal = 1;
place = "{-12, 79}";
type = Stem;
},
{
horizontal = 1;
place = "{324, 74}";
type = Stem;
},
{
horizontal = 1;
place = "{637, 75}";
type = Stem;
}
);
layerId = "B977A21F-8DFA-4EFB-8109-A765B080AA93";
paths = (
{
closed = 1;
nodes = (
"42 20 LINE",
"89 5 OFFCURVE",
"159 -12 OFFCURVE",
"254 -12 CURVE SMOOTH",
"418 -12 OFFCURVE",
"563 58 OFFCURVE",
"563 203 CURVE SMOOTH",
"563 286 OFFCURVE",
"509 336 OFFCURVE",
"435 364 CURVE",
"534 393 OFFCURVE",
"585 448 OFFCURVE",
"585 539 CURVE SMOOTH",
"585 628 OFFCURVE",
"508 712 OFFCURVE",
"347 712 CURVE SMOOTH",
"274 712 OFFCURVE",
"221 704 OFFCURVE",
"160 692 CURVE"
);
},
{
closed = 1;
nodes = (
"277 324 LINE SMOOTH",
"412 324 OFFCURVE",
"466 267 OFFCURVE",
"466 200 CURVE SMOOTH",
"466 123 OFFCURVE",
"392 67 OFFCURVE",
"261 67 CURVE SMOOTH",
"220 67 OFFCURVE",
"182 72 OFFCURVE",
"148 81 CURVE",
"190 324 LINE"
);
},
{
closed = 1;
nodes = (
"441 637 OFFCURVE",
"492 588 OFFCURVE",
"492 526 CURVE SMOOTH",
"492 458 OFFCURVE",
"430 398 OFFCURVE",
"301 398 CURVE SMOOTH",
"203 398 LINE",
"244 629 LINE",
"271 634 OFFCURVE",
"302 637 OFFCURVE",
"343 637 CURVE SMOOTH"
);
}
);
width = 617;
}
);
unicode = 0042;
},
{
color = 6;
glyphname = C;
lastChange = "2022-01-27 14:35:35 +0000";
layers = (
{
hints = (
{
horizontal = 1;
place = "{-12, 83}";
type = Stem;
},
{
horizontal = 1;
place = "{629, 83}";
type = Stem;
},
{
place = "{47, 98}";
type = Stem;
}
);
layerId = "B977A21F-8DFA-4EFB-8109-A765B080AA93";
paths = (
{
closed = 1;
nodes = (
"469 629 OFFCURVE",
"510 610 OFFCURVE",
"550 585 CURVE",
"593 663 LINE",
"553 686 OFFCURVE",
"493 712 OFFCURVE",
"414 712 CURVE SMOOTH",
"197 712 OFFCURVE",
"47 526 OFFCURVE",
"47 286 CURVE SMOOTH",
"47 96 OFFCURVE",
"156 -12 OFFCURVE",
"320 -12 CURVE SMOOTH",
"396 -12 OFFCURVE",
"455 6 OFFCURVE",
"504 29 CURVE",
"488 115 LINE",
"441 91 OFFCURVE",
"395 71 OFFCURVE",
"333 71 CURVE SMOOTH",
"224 71 OFFCURVE",
"145 149 OFFCURVE",
"145 293 CURVE SMOOTH",
"145 488 OFFCURVE",
"260 629 OFFCURVE",
"406 629 CURVE SMOOTH"
);
}
);
width = 560;
}
);
unicode = 0043;
},
{
color = 6;
glyphname = D;
lastChange = "2022-01-27 14:35:35 +0000";
layers = (
{
hints = (
{
horizontal = 1;
place = "{-12, 82}";
type = Stem;
},
{
horizontal = 1;
place = "{632, 80}";
type = Stem;
},
{
place = "{543, 98}";
type = Stem;
}
);
layerId = "B977A21F-8DFA-4EFB-8109-A765B080AA93";
paths = (
{
closed = 1;
nodes = (
"42 20 LINE",
"96 0 OFFCURVE",
"162 -12 OFFCURVE",
"247 -12 CURVE SMOOTH",
"490 -12 OFFCURVE",
"641 162 OFFCURVE",
"641 403 CURVE SMOOTH",
"641 565 OFFCURVE",
"554 712 OFFCURVE",
"342 712 CURVE SMOOTH",
"262 712 OFFCURVE",
"214 704 OFFCURVE",
"159 692 CURVE"
);
},
{
closed = 1;
nodes = (
"479 632 OFFCURVE",
"543 520 OFFCURVE",
"543 395 CURVE SMOOTH",
"543 202 OFFCURVE",
"427 70 OFFCURVE",
"253 70 CURVE SMOOTH",
"213 70 OFFCURVE",
"179 75 OFFCURVE",
"148 83 CURVE",
"242 622 LINE",
"269 628 OFFCURVE",
"299 632 OFFCURVE",
"334 632 CURVE SMOOTH"
);
}
);
width = 663;
}
);
unicode = 0044;
},
{
color = 6;
glyphname = Eth;
lastChange = "2022-01-27 14:35:35 +0000";
layers = (
{
associatedMasterId = "B977A21F-8DFA-4EFB-8109-A765B080AA93";
layerId = "E3DCEFA0-8403-4D0F-893C-EF64BA96B068";
name = img;
width = 683;
},
{
hints = (
{
horizontal = 1;
place = "{-12, 82}";
type = Stem;
},
{
horizontal = 1;
place = "{304, 80}";
type = Stem;
},
{
horizontal = 1;
place = "{632, 80}";
type = Stem;
},
{
place = "{563, 98}";
type = Stem;
}
);
layerId = "B977A21F-8DFA-4EFB-8109-A765B080AA93";
paths = (
{
closed = 1;
nodes = (
"12 304 LINE",
"111 304 LINE",
"62 20 LINE",
"116 0 OFFCURVE",
"182 -12 OFFCURVE",
"267 -12 CURVE SMOOTH",
"510 -12 OFFCURVE",
"661 162 OFFCURVE",
"661 403 CURVE SMOOTH",
"661 565 OFFCURVE",
"574 712 OFFCURVE",
"362 712 CURVE SMOOTH",
"282 712 OFFCURVE",
"234 704 OFFCURVE",
"179 692 CURVE",
"125 384 LINE",
"26 384 LINE"
);
},
{
closed = 1;
nodes = (
"499 632 OFFCURVE",
"563 520 OFFCURVE",
"563 395 CURVE SMOOTH",
"563 202 OFFCURVE",
"447 70 OFFCURVE",
"273 70 CURVE SMOOTH",
"233 70 OFFCURVE",
"199 75 OFFCURVE",
"168 83 CURVE",
"206 304 LINE",
"354 304 LINE",
"369 384 LINE",
"220 384 LINE",
"262 622 LINE",
"289 628 OFFCURVE",
"319 632 OFFCURVE",
"354 632 CURVE SMOOTH"
);
}
);
width = 683;
}
);
unicode = 00D0;
},
{
color = 6;
glyphname = E;
lastChange = "2022-01-27 14:35:35 +0000";
layers = (
{
hints = (
{
horizontal = 1;
place = "{0, 82}";
type = Stem;
},
{
horizontal = 1;
place = "{325, 80}";
type = Stem;
},
{
horizontal = 1;
place = "{618, 82}";
type = Stem;
}
);
layerId = "B977A21F-8DFA-4EFB-8109-A765B080AA93";
paths = (
{
closed = 1;
nodes = (
"42 0 LINE",
"457 0 LINE",
"471 82 LINE",
"151 82 LINE",
"194 325 LINE",
"469 325 LINE",
"483 405 LINE",
"208 405 LINE",
"245 618 LINE",
"566 618 LINE",
"580 700 LINE",
"165 700 LINE"
);
}
);
width = 542;
}
);
unicode = 0045;
},
{
color = 6;
glyphname = F;
lastChange = "2022-01-27 14:35:35 +0000";
layers = (
{
hints = (
{
horizontal = 1;
place = "{618, 82}";
type = Stem;
},
{
horizontal = 1;
place = "{326, 78}";
type = Stem;
},
{
horizontal = 1;
place = "{0, 21}";
target = up;
type = BottomGhost;
}
);
layerId = "B977A21F-8DFA-4EFB-8109-A765B080AA93";
paths = (
{
closed = 1;
nodes = (
"42 0 LINE",
"137 0 LINE",
"194 326 LINE",
"456 326 LINE",
"470 404 LINE",
"208 404 LINE",
"245 618 LINE",
"561 618 LINE",
"575 700 LINE",
"165 700 LINE"
);
}
);
width = 507;
}
);
unicode = 0046;
},
{
color = 6;
glyphname = G;
lastChange = "2022-01-27 14:35:35 +0000";
layers = (
{
hints = (
{
place = "{47, 98}";
type = Stem;
},
{
place = "{487, 84}";
type = Stem;
},
{
horizontal = 1;
place = "{-12, 83}";
type = Stem;
},
{
horizontal = 1;
place = "{296, 75}";
type = Stem;
},
{
horizontal = 1;
place = "{629, 83}";
type = Stem;
},
{
horizontal = 1;
place = "{-5, -20}";
target = down;
type = TopGhost;
}
);
layerId = "B977A21F-8DFA-4EFB-8109-A765B080AA93";
paths = (
{
closed = 1;
nodes = (
"475 629 OFFCURVE",
"520 607 OFFCURVE",
"568 574 CURVE",
"618 650 LINE",
"563 686 OFFCURVE",
"500 712 OFFCURVE",
"415 712 CURVE SMOOTH",
"198 712 OFFCURVE",
"47 524 OFFCURVE",
"47 270 CURVE SMOOTH",
"47 93 OFFCURVE",
"150 -12 OFFCURVE",
"288 -12 CURVE SMOOTH",
"381 -12 OFFCURVE",
"446 38 OFFCURVE",
"487 102 CURVE",
"487 29 OFFCURVE",
"524 -5 OFFCURVE",
"597 -5 CURVE",
"630 70 LINE",
"593 70 OFFCURVE",
"571 85 OFFCURVE",
"571 121 CURVE SMOOTH",
"571 130 OFFCURVE",
"572 139 OFFCURVE",
"573 146 CURVE SMOOTH",
"612 371 LINE",
"377 371 LINE",
"364 296 LINE",
"510 296 LINE",
"501 247 LINE SMOOTH",
"482 146 OFFCURVE",
"406 71 OFFCURVE",
"314 71 CURVE SMOOTH",
"208 71 OFFCURVE",
"145 157 OFFCURVE",
"145 283 CURVE SMOOTH",
"145 487 OFFCURVE",
"259 629 OFFCURVE",
"410 629 CURVE SMOOTH"
);
}
);
width = 662;
}
);
unicode = 0047;
},
{
color = 6;
glyphname = H;
lastChange = "2022-01-27 14:35:35 +0000";
layers = (
{
hints = (
{
horizontal = 1;
place = "{319, 82}";
type = Stem;
},
{
horizontal = 1;
place = "{0, 21}";
target = up;
type = BottomGhost;
},
{
horizontal = 1;
place = "{700, -20}";
target = down;
type = TopGhost;
}
);
layerId = "B977A21F-8DFA-4EFB-8109-A765B080AA93";
paths = (
{
closed = 1;
nodes = (
"471 0 LINE",
"566 0 LINE",
"689 700 LINE",
"594 700 LINE",
"541 401 LINE",
"207 401 LINE",
"260 700 LINE",
"165 700 LINE",
"42 0 LINE",
"137 0 LINE",
"193 319 LINE",
"527 319 LINE"
);
}
);
width = 701;
}
);
unicode = 0048;
},
{
color = 6;
glyphname = I;
lastChange = "2022-01-27 14:35:35 +0000";
layers = (
{
hints = (
{
horizontal = 1;
place = "{0, 21}";
target = up;
type = BottomGhost;
},
{
horizontal = 1;
place = "{700, -20}";
target = down;
type = TopGhost;
}
);
layerId = "B977A21F-8DFA-4EFB-8109-A765B080AA93";
paths = (
{
closed = 1;
nodes = (
"137 0 LINE",
"260 700 LINE",
"165 700 LINE",
"42 0 LINE"
);
}
);
width = 272;
}
);
unicode = 0049;
},
{
color = 6;
glyphname = J;
lastChange = "2022-01-27 14:35:35 +0000";
layers = (
{
associatedMasterId = "B977A21F-8DFA-4EFB-8109-A765B080AA93";
layerId = "E3DCEFA0-8403-4D0F-893C-EF64BA96B068";
name = img;
width = 411;
},
{
hints = (
{
horizontal = 1;
place = "{-12, 82}";
type = Stem;
},
{
horizontal = 1;
place = "{700, -20}";
target = down;
type = TopGhost;
}
);
layerId = "B977A21F-8DFA-4EFB-8109-A765B080AA93";
paths = (
{
closed = 1;
nodes = (
"179 -12 OFFCURVE",
"286 13 OFFCURVE",
"318 190 CURVE SMOOTH",
"409 700 LINE",
"314 700 LINE",
"223 194 LINE SMOOTH",
"206 102 OFFCURVE",
"163 70 OFFCURVE",
"115 70 CURVE SMOOTH",
"70 70 OFFCURVE",
"36 96 OFFCURVE",
"10 129 CURVE",
"-48 59 LINE",
"-10 17 OFFCURVE",
"44 -12 OFFCURVE",
"111 -12 CURVE SMOOTH"
);
}
);
width = 411;
}
);
unicode = 004A;
},
{
color = 6;
glyphname = K;
lastChange = "2022-01-27 14:35:35 +0000";
layers = (
{
hints = (
{
horizontal = 1;
place = "{700, -20}";
target = down;
type = TopGhost;
},
{
horizontal = 1;
place = "{0, -20}";
target = down;
type = TopGhost;
},
{
horizontal = 1;
place = "{-7, 21}";
target = up;
type = BottomGhost;
}
);
layerId = "B977A21F-8DFA-4EFB-8109-A765B080AA93";
paths = (
{
closed = 1;
nodes = (
"285 356 LINE",
"595 634 LINE",
"537 698 LINE",
"205 389 LINE",
"260 700 LINE",
"165 700 LINE",
"42 0 LINE",
"137 0 LINE",
"194 323 LINE",
"390 73 LINE SMOOTH",
"437 14 OFFCURVE",
"473 -7 OFFCURVE",
"532 -7 CURVE",
"567 74 LINE",
"523 74 OFFCURVE",
"498 88 OFFCURVE",
"443 157 CURVE SMOOTH"
);
}
);
width = 597;
}
);
unicode = 004B;
},
{
color = 6;
glyphname = L;
lastChange = "2022-01-27 14:35:35 +0000";
layers = (
{
hints = (
{
horizontal = 1;
place = "{0, 85}";
type = Stem;
},
{
horizontal = 1;
place = "{700, -20}";
target = down;
type = TopGhost;
}
);
layerId = "B977A21F-8DFA-4EFB-8109-A765B080AA93";
paths = (
{
closed = 1;
nodes = (
"42 0 LINE",
"458 0 LINE",
"473 85 LINE",
"152 85 LINE",
"260 700 LINE",
"165 700 LINE"
);
}
);
width = 510;
}
);
unicode = 004C;
},
{
color = 6;
glyphname = Lslash;
lastChange = "2022-01-27 14:35:35 +0000";
layers = (
{
associatedMasterId = "B977A21F-8DFA-4EFB-8109-A765B080AA93";
layerId = "E3DCEFA0-8403-4D0F-893C-EF64BA96B068";
name = img;
width = 521;
},
{
hints = (
{
horizontal = 1;
place = "{0, 85}";
type = Stem;
},
{
horizontal = 1;
place = "{700, -20}";
target = down;
type = TopGhost;
}
);
layerId = "B977A21F-8DFA-4EFB-8109-A765B080AA93";
paths = (
{
closed = 1;
nodes = (
"53 0 LINE",
"469 0 LINE",
"484 85 LINE",
"163 85 LINE",
"204 320 LINE",
"454 413 LINE",
"426 482 LINE",
"219 404 LINE",
"271 700 LINE",
"176 700 LINE",
"117 365 LINE",
"2 323 LINE",
"29 255 LINE",
"102 282 LINE"
);
}
);
width = 521;
}
);
unicode = 0141;
},
{
color = 6;
glyphname = M;
lastChange = "2022-01-27 14:35:35 +0000";
layers = (
{
hints = (
{
horizontal = 1;
place = "{0, 21}";
target = up;
type = BottomGhost;
},
{
horizontal = 1;
place = "{700, -20}";
target = down;
type = TopGhost;
}
);
layerId = "B977A21F-8DFA-4EFB-8109-A765B080AA93";
paths = (
{
closed = 1;
nodes = (
"601 0 LINE",
"696 0 LINE",
"819 700 LINE",
"676 700 LINE",
"412 254 LINE",
"294 700 LINE",
"165 700 LINE",
"42 0 LINE",
"132 0 LINE",
"235 589 LINE",
"352 158 LINE",
"445 158 LINE",
"704 585 LINE"
);
}
);
width = 831;
}
);
unicode = 004D;
},
{
color = 6;
glyphname = N;
lastChange = "2022-01-27 14:35:35 +0000";
layers = (
{
associatedMasterId = "B977A21F-8DFA-4EFB-8109-A765B080AA93";
layerId = "E3DCEFA0-8403-4D0F-893C-EF64BA96B068";
name = img;
width = 702;
},
{
hints = (
{
horizontal = 1;
place = "{0, 21}";
target = up;
type = BottomGhost;
},
{
horizontal = 1;
place = "{700, -20}";
target = down;
type = TopGhost;
}
);
layerId = "B977A21F-8DFA-4EFB-8109-A765B080AA93";
paths = (
{
closed = 1;
nodes = (
"443 0 LINE",
"567 0 LINE",
"690 700 LINE",
"600 700 LINE",
"496 112 LINE",
"291 700 LINE",
"165 700 LINE",
"42 0 LINE",
"132 0 LINE",
"234 584 LINE"
);
}
);
width = 702;
}
);
unicode = 004E;
},
{
color = 6;
glyphname = O;
lastChange = "2022-01-27 14:35:35 +0000";
layers = (
{
hints = (
{
horizontal = 1;
place = "{-12, 82}";
type = Stem;
},
{
horizontal = 1;
place = "{630, 82}";
type = Stem;
},
{
place = "{47, 97}";
type = Stem;
},
{
place = "{619, 97}";
type = Stem;
}
);
layerId = "B977A21F-8DFA-4EFB-8109-A765B080AA93";
paths = (
{
closed = 1;
nodes = (
"549 630 OFFCURVE",
"619 527 OFFCURVE",
"619 399 CURVE SMOOTH",
"619 230 OFFCURVE",
"518 70 OFFCURVE",
"347 70 CURVE SMOOTH",
"214 70 OFFCURVE",
"144 173 OFFCURVE",
"144 301 CURVE SMOOTH",
"144 470 OFFCURVE",
"245 630 OFFCURVE",
"416 630 CURVE SMOOTH"
);
},
{
closed = 1;
nodes = (
"578 -12 OFFCURVE",
"716 192 OFFCURVE",
"716 405 CURVE SMOOTH",
"716 577 OFFCURVE",
"612 712 OFFCURVE",
"424 712 CURVE SMOOTH",
"185 712 OFFCURVE",
"47 508 OFFCURVE",
"47 295 CURVE SMOOTH",
"47 123 OFFCURVE",
"151 -12 OFFCURVE",
"339 -12 CURVE SMOOTH"
);
}
);
width = 738;
}
);
unicode = 004F;
},
{
color = 6;
glyphname = Oslash;
lastChange = "2022-01-27 14:35:35 +0000";
layers = (
{
associatedMasterId = "B977A21F-8DFA-4EFB-8109-A765B080AA93";
layerId = "E3DCEFA0-8403-4D0F-893C-EF64BA96B068";
name = img;
width = 738;
},
{
hints = (
{
horizontal = 1;
place = "{-12, 82}";
type = Stem;
},
{
horizontal = 1;
place = "{630, 82}";
type = Stem;
},
{
horizontal = 1;
place = "{809, -20}";
target = down;
type = TopGhost;
},
{
horizontal = 1;
place = "{-118, 21}";
target = up;
type = BottomGhost;
},
{
place = "{47, 97}";
type = Stem;
},
{
place = "{619, 97}";
type = Stem;
}
);
layerId = "B977A21F-8DFA-4EFB-8109-A765B080AA93";
paths = (
{
closed = 1;
nodes = (
"578 -12 OFFCURVE",
"716 192 OFFCURVE",
"716 405 CURVE SMOOTH",
"716 501 OFFCURVE",
"683 586 OFFCURVE",
"621 642 CURVE",
"707 764 LINE",
"629 809 LINE",
"555 685 LINE",
"518 702 OFFCURVE",
"474 712 OFFCURVE",
"424 712 CURVE SMOOTH",
"185 712 OFFCURVE",
"47 508 OFFCURVE",
"47 295 CURVE SMOOTH",
"47 197 OFFCURVE",
"80 111 OFFCURVE",
"144 55 CURVE",
"53 -73 LINE",
"131 -118 LINE",
"209 14 LINE",
"246 -2 OFFCURVE",
"290 -12 OFFCURVE",
"339 -12 CURVE SMOOTH"
);
},
{
closed = 1;
nodes = (
"451 630 OFFCURVE",
"481 623 OFFCURVE",
"507 610 CURVE",
"197 136 LINE",
"162 178 OFFCURVE",
"144 236 OFFCURVE",
"144 301 CURVE SMOOTH",
"144 470 OFFCURVE",
"245 630 OFFCURVE",
"416 630 CURVE SMOOTH"
);
},
{
closed = 1;
nodes = (
"619 230 OFFCURVE",
"518 70 OFFCURVE",
"347 70 CURVE SMOOTH",
"311 70 OFFCURVE",
"283 76 OFFCURVE",
"258 88 CURVE",
"568 562 LINE",
"602 520 OFFCURVE",
"619 462 OFFCURVE",
"619 399 CURVE SMOOTH"
);
}
);
width = 738;
}
);
unicode = 00D8;
},
{
color = 6;
glyphname = OE;
lastChange = "2022-01-27 14:35:35 +0000";
layers = (
{
associatedMasterId = "B977A21F-8DFA-4EFB-8109-A765B080AA93";
layerId = "E3DCEFA0-8403-4D0F-893C-EF64BA96B068";
name = img;
width = 892;
},
{
hints = (
{
place = "{47, 97}";
type = Stem;
},
{
horizontal = 1;
place = "{-12, 82}";
type = Stem;
},
{
horizontal = 1;
place = "{0, 82}";
type = Stem;
},
{
horizontal = 1;
place = "{325, 80}";
type = Stem;
},
{
horizontal = 1;
place = "{618, 82}";
type = Stem;
},
{
horizontal = 1;
place = "{630, 82}";
type = Stem;
}
);
layerId = "B977A21F-8DFA-4EFB-8109-A765B080AA93";
paths = (
{
closed = 1;
nodes = (
"185 712 OFFCURVE",
"47 508 OFFCURVE",
"47 295 CURVE SMOOTH",
"47 122 OFFCURVE",
"152 -12 OFFCURVE",
"325 -12 CURVE SMOOTH",
"358 -12 OFFCURVE",
"390 -7 OFFCURVE",
"418 0 CURVE",
"807 0 LINE",
"821 82 LINE",
"511 82 LINE",
"554 325 LINE",
"819 325 LINE",
"833 405 LINE",
"568 405 LINE",
"606 618 LINE",
"916 618 LINE",
"930 700 LINE",
"527 700 LINE",
"495 707 OFFCURVE",
"461 712 OFFCURVE",
"424 712 CURVE SMOOTH"
);
},
{
closed = 1;
nodes = (
"214 70 OFFCURVE",
"144 173 OFFCURVE",
"144 301 CURVE SMOOTH",
"144 470 OFFCURVE",
"245 630 OFFCURVE",
"416 630 CURVE SMOOTH",
"456 630 OFFCURVE",
"486 625 OFFCURVE",
"513 616 CURVE",
"418 78 LINE",
"395 72 OFFCURVE",
"374 70 OFFCURVE",
"347 70 CURVE SMOOTH"
);
}
);
width = 892;
}
);
unicode = 0152;
},
{
color = 6;
glyphname = P;
lastChange = "2022-01-27 14:35:35 +0000";
layers = (
{
hints = (
{
horizontal = 1;
place = "{629, 79}";
type = Stem;
},
{
horizontal = 1;
place = "{255, 79}";
type = Stem;
},
{
horizontal = 1;
place = "{0, 21}";
target = up;
type = BottomGhost;
},
{
place = "{490, 93}";
type = Stem;
}
);
layerId = "B977A21F-8DFA-4EFB-8109-A765B080AA93";
paths = (
{
closed = 1;
nodes = (
"42 0 LINE",
"137 0 LINE",
"183 265 LINE",
"210 258 OFFCURVE",
"242 255 OFFCURVE",
"274 255 CURVE SMOOTH",
"452 255 OFFCURVE",
"583 341 OFFCURVE",
"583 505 CURVE SMOOTH",
"583 611 OFFCURVE",
"503 708 OFFCURVE",
"341 708 CURVE SMOOTH",
"270 708 OFFCURVE",
"214 700 OFFCURVE",
"163 690 CURVE"
);
},
{
closed = 1;
nodes = (
"432 629 OFFCURVE",
"490 573 OFFCURVE",
"490 494 CURVE SMOOTH",
"490 401 OFFCURVE",
"430 334 OFFCURVE",
"287 334 CURVE SMOOTH",
"256 334 OFFCURVE",
"223 337 OFFCURVE",
"197 345 CURVE",
"246 622 LINE",
"269 626 OFFCURVE",
"295 629 OFFCURVE",
"331 629 CURVE SMOOTH"
);
}
);
width = 560;
}
);
unicode = 0050;
},
{
color = 6;
glyphname = Thorn;
lastChange = "2022-01-27 14:35:35 +0000";
layers = (
{
associatedMasterId = "B977A21F-8DFA-4EFB-8109-A765B080AA93";
layerId = "E3DCEFA0-8403-4D0F-893C-EF64BA96B068";
name = img;
width = 564;
},
{
hints = (
{
place = "{469, 93}";
type = Stem;
},
{
horizontal = 1;
place = "{506, 194}";
type = Stem;
},
{
horizontal = 1;
place = "{506, 79}";
type = Stem;
},
{
horizontal = 1;
place = "{132, 79}";
type = Stem;
},
{
horizontal = 1;
place = "{0, 21}";
target = up;
type = BottomGhost;
}
);
layerId = "B977A21F-8DFA-4EFB-8109-A765B080AA93";
paths = (
{
closed = 1;
nodes = (
"291 585 OFFCURVE",
"264 583 OFFCURVE",
"239 580 CURVE",
"260 700 LINE",
"165 700 LINE",
"42 0 LINE",
"137 0 LINE",
"162 142 LINE",
"189 135 OFFCURVE",
"221 132 OFFCURVE",
"253 132 CURVE SMOOTH",
"431 132 OFFCURVE",
"562 218 OFFCURVE",
"562 382 CURVE SMOOTH",
"562 488 OFFCURVE",
"484 585 OFFCURVE",
"321 585 CURVE SMOOTH"
);
},
{
closed = 1;
nodes = (
"414 506 OFFCURVE",
"469 450 OFFCURVE",
"469 371 CURVE SMOOTH",
"469 278 OFFCURVE",
"409 211 OFFCURVE",
"266 211 CURVE SMOOTH",
"234 211 OFFCURVE",
"201 214 OFFCURVE",
"176 222 CURVE",
"224 498 LINE",
"248 503 OFFCURVE",
"275 506 OFFCURVE",
"313 506 CURVE SMOOTH"
);
}
);
width = 564;
}
);
unicode = 00DE;
},
{
color = 6;
glyphname = Q;
lastChange = "2022-01-27 14:35:35 +0000";
layers = (
{
hints = (
{
horizontal = 1;
place = "{-12, 82}";
type = Stem;
},
{
horizontal = 1;
place = "{630, 82}";
type = Stem;
},
{
place = "{47, 97}";
type = Stem;
},
{
place = "{609, 97}";
type = Stem;
}
);
layerId = "B977A21F-8DFA-4EFB-8109-A765B080AA93";
paths = (
{
closed = 1;
nodes = (
"418 -12 OFFCURVE",
"483 13 OFFCURVE",
"545 65 CURVE",
"613 1 OFFCURVE",
"637 -12 OFFCURVE",
"680 -12 CURVE",
"714 69 LINE",
"679 69 OFFCURVE",
"647 84 OFFCURVE",
"603 118 CURVE",
"665 193 OFFCURVE",
"706 281 OFFCURVE",
"706 405 CURVE SMOOTH",
"706 575 OFFCURVE",
"605 712 OFFCURVE",
"419 712 CURVE SMOOTH",
"180 712 OFFCURVE",
"47 508 OFFCURVE",
"47 295 CURVE SMOOTH",
"47 124 OFFCURVE",
"148 -12 OFFCURVE",
"334 -12 CURVE SMOOTH"
);
},
{
closed = 1;
nodes = (
"415 187 LINE",
"488 118 LINE",
"446 87 OFFCURVE",
"401 70 OFFCURVE",
"342 70 CURVE SMOOTH",
"210 70 OFFCURVE",
"144 175 OFFCURVE",
"144 301 CURVE SMOOTH",
"144 470 OFFCURVE",
"240 630 OFFCURVE",
"411 630 CURVE SMOOTH",
"542 630 OFFCURVE",
"609 526 OFFCURVE",
"609 399 CURVE SMOOTH",
"609 314 OFFCURVE",
"585 229 OFFCURVE",
"541 170 CURVE",
"471 245 LINE"
);
}
);
width = 746;
}
);
unicode = 0051;
},
{
color = 6;
glyphname = R;
lastChange = "2022-01-27 14:35:35 +0000";
layers = (
{
hints = (
{
place = "{481, 94}";
type = Stem;
},
{
horizontal = 1;
place = "{-7, 82}";
type = Stem;
},
{
horizontal = 1;
place = "{305, 80}";
type = Stem;
},
{
horizontal = 1;
place = "{629, 79}";
type = Stem;
},
{
horizontal = 1;
place = "{0, -20}";
target = down;
type = TopGhost;
}
);
layerId = "B977A21F-8DFA-4EFB-8109-A765B080AA93";
paths = (
{
closed = 1;
nodes = (
"42 0 LINE",
"137 0 LINE",
"191 305 LINE",
"459 305 OFFCURVE",
"342 -7 OFFCURVE",
"549 -7 CURVE",
"584 75 LINE",
"451 75 OFFCURVE",
"527 259 OFFCURVE",
"364 333 CURVE",
"490 352 OFFCURVE",
"575 409 OFFCURVE",
"575 530 CURVE SMOOTH",
"575 628 OFFCURVE",
"493 708 OFFCURVE",
"341 708 CURVE SMOOTH",
"270 708 OFFCURVE",
"224 701 OFFCURVE",
"164 690 CURVE"
);
},
{
closed = 1;
nodes = (
"427 629 OFFCURVE",
"481 583 OFFCURVE",
"481 518 CURVE SMOOTH",
"481 437 OFFCURVE",
"405 385 OFFCURVE",
"288 385 CURVE SMOOTH",
"205 385 LINE",
"247 621 LINE",
"272 626 OFFCURVE",
"300 629 OFFCURVE",
"335 629 CURVE SMOOTH"
);
}
);
width = 621;
}
);
unicode = 0052;
},
{
color = 6;
glyphname = S;
lastChange = "2022-01-27 14:35:35 +0000";
layers = (
{
associatedMasterId = "B977A21F-8DFA-4EFB-8109-A765B080AA93";
layerId = "E3DCEFA0-8403-4D0F-893C-EF64BA96B068";
name = img;
width = 539;
},
{
hints = (
{
horizontal = 1;
place = "{-12, 83}";
type = Stem;
},
{
horizontal = 1;
place = "{630, 82}";
type = Stem;
},
{
place = "{104, 95}";
type = Stem;
},
{
place = "{386, 97}";
type = Stem;
}
);
layerId = "B977A21F-8DFA-4EFB-8109-A765B080AA93";
paths = (
{
closed = 1;
nodes = (
"386 112 OFFCURVE",
"330 71 OFFCURVE",
"244 71 CURVE SMOOTH",
"171 71 OFFCURVE",
"109 98 OFFCURVE",
"64 139 CURVE",
"2 62 LINE",
"60 15 OFFCURVE",
"138 -12 OFFCURVE",
"234 -12 CURVE SMOOTH",
"381 -12 OFFCURVE",
"483 63 OFFCURVE",
"483 186 CURVE SMOOTH",
"483 276 OFFCURVE",
"450 337 OFFCURVE",
"319 407 CURVE SMOOTH",
"227 456 OFFCURVE",
"199 488 OFFCURVE",
"199 538 CURVE SMOOTH",
"199 592 OFFCURVE",
"251 630 OFFCURVE",
"330 630 CURVE SMOOTH",
"400 630 OFFCURVE",
"450 607 OFFCURVE",
"498 577 CURVE",
"547 655 LINE",
"488 689 OFFCURVE",
"422 712 OFFCURVE",
"338 712 CURVE SMOOTH",
"199 712 OFFCURVE",
"104 639 OFFCURVE",
"104 528 CURVE SMOOTH",
"104 439 OFFCURVE",
"143 389 OFFCURVE",
"247 331 CURVE SMOOTH",
"358 269 OFFCURVE",
"386 232 OFFCURVE",
"386 177 CURVE SMOOTH"
);
}
);
width = 539;
}
);
unicode = 0053;
},
{
color = 6;
glyphname = T;
lastChange = "2022-01-27 14:35:35 +0000";
layers = (
{
hints = (
{
horizontal = 1;
place = "{616, 84}";
type = Stem;
},
{
horizontal = 1;
place = "{0, 21}";
target = up;
type = BottomGhost;
}
);
layerId = "B977A21F-8DFA-4EFB-8109-A765B080AA93";
paths = (
{
closed = 1;
nodes = (
"77 616 LINE",
"292 616 LINE",
"184 0 LINE",
"279 0 LINE",
"387 616 LINE",
"602 616 LINE",
"617 700 LINE",
"92 700 LINE"
);
}
);
width = 554;
}
);
unicode = 0054;
},
{
color = 6;
glyphname = U;
lastChange = "2022-01-27 14:35:35 +0000";
layers = (
{
hints = (
{
place = "{62, 95}";
type = Stem;
},
{
place = "{472, 87}";
type = Stem;
},
{
horizontal = 1;
place = "{-12, 83}";
type = Stem;
},
{
horizontal = 1;
place = "{700, -20}";
target = down;
type = TopGhost;
},
{
horizontal = 1;
place = "{-5, -20}";
target = down;
type = TopGhost;
}
);
layerId = "B977A21F-8DFA-4EFB-8109-A765B080AA93";
paths = (
{
closed = 1;
nodes = (
"618 70 LINE",
"581 70 OFFCURVE",
"559 85 OFFCURVE",
"559 121 CURVE SMOOTH",
"559 130 OFFCURVE",
"560 139 OFFCURVE",
"561 146 CURVE SMOOTH",
"659 700 LINE",
"564 700 LINE",
"495 312 LINE SMOOTH",
"468 158 OFFCURVE",
"368 71 OFFCURVE",
"276 71 CURVE SMOOTH",
"203 71 OFFCURVE",
"157 116 OFFCURVE",
"157 188 CURVE SMOOTH",
"157 208 OFFCURVE",
"158 222 OFFCURVE",
"162 246 CURVE SMOOTH",
"239 700 LINE",
"144 700 LINE",
"70 267 LINE SMOOTH",
"65 235 OFFCURVE",
"62 211 OFFCURVE",
"62 181 CURVE SMOOTH",
"62 56 OFFCURVE",
"147 -12 OFFCURVE",
"249 -12 CURVE SMOOTH",
"347 -12 OFFCURVE",
"418 42 OFFCURVE",
"472 126 CURVE",
"472 104 LINE SMOOTH",
"472 29 OFFCURVE",
"511 -5 OFFCURVE",
"585 -5 CURVE"
);
}
);
width = 681;
}
);
unicode = 0055;
},
{
color = 6;
glyphname = V;
lastChange = "2022-01-27 14:35:35 +0000";
layers = (
{
hints = (
{
horizontal = 1;
place = "{0, 21}";
target = up;
type = BottomGhost;
},
{
horizontal = 1;
place = "{711, -20}";
target = down;
type = TopGhost;
}
);
layerId = "B977A21F-8DFA-4EFB-8109-A765B080AA93";
paths = (
{
closed = 1;
nodes = (
"213 0 LINE",
"322 0 LINE",
"685 662 LINE",
"601 708 LINE",
"283 104 LINE",
"162 711 LINE",
"67 691 LINE"
);
}
);
width = 622;
}
);
unicode = 0056;
},
{
color = 6;
glyphname = W;
lastChange = "2022-01-27 14:35:35 +0000";
layers = (
{
hints = (
{
horizontal = 1;
place = "{0, 21}";
target = up;
type = BottomGhost;
},
{
horizontal = 1;
place = "{707, -20}";
target = down;
type = TopGhost;
}
);
layerId = "B977A21F-8DFA-4EFB-8109-A765B080AA93";
paths = (
{
closed = 1;
nodes = (
"158 0 LINE",
"276 0 LINE",
"521 526 LINE",
"578 0 LINE",
"696 0 LINE",
"1004 665 LINE",
"920 704 LINE",
"653 101 LINE",
"597 627 LINE",
"478 627 LINE",
"234 101 LINE",
"180 707 LINE",
"82 697 LINE"
);
}
);
width = 941;
}
);
unicode = 0057;
},
{
color = 6;
glyphname = X;
lastChange = "2022-01-27 14:35:35 +0000";
layers = (
{
associatedMasterId = "B977A21F-8DFA-4EFB-8109-A765B080AA93";
layerId = "E3DCEFA0-8403-4D0F-893C-EF64BA96B068";
name = img;
width = 621;
},
{
hints = (
{
horizontal = 1;
place = "{-10, 21}";
target = up;
type = BottomGhost;
},
{
horizontal = 1;
place = "{709, -20}";
target = down;
type = TopGhost;
}
);
layerId = "B977A21F-8DFA-4EFB-8109-A765B080AA93";
paths = (
{
closed = 1;
nodes = (
"-8 56 LINE",
"62 -7 LINE",
"316 288 LINE",
"490 -10 LINE",
"575 41 LINE",
"381 353 LINE",
"644 643 LINE",
"574 706 LINE",
"334 425 LINE",
"176 709 LINE",
"91 658 LINE",
"269 362 LINE"
);
}
);
width = 621;
}
);
unicode = 0058;
},
{
color = 6;
glyphname = Y;
lastChange = "2022-01-27 14:35:35 +0000";
layers = (
{
hints = (
{
horizontal = 1;
place = "{-12, 82}";
type = Stem;
},
{
horizontal = 1;
place = "{708, -20}";
target = down;
type = TopGhost;
},
{
horizontal = 1;
place = "{705, -20}";
target = down;
type = TopGhost;
}
);
layerId = "B977A21F-8DFA-4EFB-8109-A765B080AA93";
paths = (
{
closed = 1;
nodes = (
"98 70 OFFCURVE",
"71 87 OFFCURVE",
"50 111 CURVE",
"-8 43 LINE",
"22 10 OFFCURVE",
"72 -12 OFFCURVE",
"124 -12 CURVE SMOOTH",
"214 -12 OFFCURVE",
"268 33 OFFCURVE",
"329 140 CURVE SMOOTH",
"630 665 LINE",
"551 708 LINE",
"336 318 LINE",
"235 613 LINE SMOOTH",
"213 678 OFFCURVE",
"181 705 OFFCURVE",
"110 705 CURVE",
"70 626 LINE",
"110 626 OFFCURVE",
"132 613 OFFCURVE",
"145 577 CURVE SMOOTH",
"277 224 LINE",
"234 146 LINE SMOOTH",
"205 95 OFFCURVE",
"171 70 OFFCURVE",
"131 70 CURVE SMOOTH"
);
}
);
width = 562;
}
);
unicode = 0059;
},
{
color = 6;
glyphname = Z;
lastChange = "2022-01-27 14:35:35 +0000";
layers = (
{
hints = (
{
horizontal = 1;
place = "{0, 84}";
type = Stem;
},
{
horizontal = 1;
place = "{618, 82}";
type = Stem;
}
);
layerId = "B977A21F-8DFA-4EFB-8109-A765B080AA93";
paths = (
{
closed = 1;
nodes = (
"-8 0 LINE",
"487 0 LINE",
"502 84 LINE",
"122 84 LINE",
"564 628 LINE",
"576 700 LINE",
"117 700 LINE",
"103 618 LINE",
"444 618 LINE",
"5 74 LINE"
);
}
);
width = 563;
}
);
unicode = 005A;
},
{
color = 6;
glyphname = a;
lastChange = "2022-01-27 14:35:35 +0000";
layers = (
{
associatedMasterId = "B977A21F-8DFA-4EFB-8109-A765B080AA93";
layerId = "E3DCEFA0-8403-4D0F-893C-EF64BA96B068";
name = img;
width = 592;
},
{
hints = (
{
place = "{37, 92}";
type = Stem;
},
{
place = "{396, 84}";
type = Stem;
},
{
horizontal = 1;
place = "{-12, 80}";
type = Stem;
},
{
horizontal = 1;
place = "{456, 76}";
type = Stem;
},
{
horizontal = 1;
place = "{-5, -20}";
target = down;
type = TopGhost;
}
);
layerId = "B977A21F-8DFA-4EFB-8109-A765B080AA93";
paths = (
{
closed = 1;
nodes = (
"37 71 OFFCURVE",
"128 -12 OFFCURVE",
"226 -12 CURVE SMOOTH",
"302 -12 OFFCURVE",
"359 40 OFFCURVE",
"396 104 CURVE",
"396 29 OFFCURVE",
"435 -5 OFFCURVE",
"507 -5 CURVE",
"538 65 LINE",
"503 65 OFFCURVE",
"480 79 OFFCURVE",
"480 116 CURVE SMOOTH",
"480 125 OFFCURVE",
"481 134 OFFCURVE",
"482 141 CURVE SMOOTH",
"545 496 LINE",
"506 512 OFFCURVE",
"446 532 OFFCURVE",
"368 532 CURVE SMOOTH",
"175 532 OFFCURVE",
"37 398 OFFCURVE",
"37 205 CURVE SMOOTH"
);
},
{
closed = 1;
nodes = (
"419 288 LINE SMOOTH",
"397 159 OFFCURVE",
"331 68 OFFCURVE",
"250 68 CURVE SMOOTH",
"189 68 OFFCURVE",
"129 120 OFFCURVE",
"129 216 CURVE SMOOTH",
"129 354 OFFCURVE",
"219 456 OFFCURVE",
"357 456 CURVE SMOOTH",
"395 456 OFFCURVE",
"421 451 OFFCURVE",
"446 443 CURVE"
);
}
);
width = 592;
}
);
unicode = 0061;
},
{
color = 6;
glyphname = ae;
lastChange = "2022-01-27 14:35:35 +0000";
layers = (
{
associatedMasterId = "B977A21F-8DFA-4EFB-8109-A765B080AA93";
layerId = "E3DCEFA0-8403-4D0F-893C-EF64BA96B068";
name = img;
width = 880;
},
{
hints = (
{
place = "{12, 92}";
type = Stem;
},
{
place = "{773, 90}";
type = Stem;
},
{
horizontal = 1;
place = "{-12, 80}";
type = Stem;
},
{
horizontal = 1;
place = "{196, 71}";
type = Stem;
},
{
horizontal = 1;
place = "{248, 73}";
type = Stem;
},
{
horizontal = 1;
place = "{454, 78}";
type = Stem;
}
);
layerId = "B977A21F-8DFA-4EFB-8109-A765B080AA93";
paths = (
{
closed = 1;
nodes = (
"212 532 OFFCURVE",
"165 518 OFFCURVE",
"119 497 CURVE",
"129 421 LINE",
"168 440 OFFCURVE",
"211 454 OFFCURVE",
"261 454 CURVE SMOOTH",
"347 454 OFFCURVE",
"403 397 OFFCURVE",
"403 309 CURVE SMOOTH",
"403 302 LINE",
"356 313 OFFCURVE",
"303 321 OFFCURVE",
"246 321 CURVE SMOOTH",
"114 321 OFFCURVE",
"12 252 OFFCURVE",
"12 136 CURVE SMOOTH",
"12 54 OFFCURVE",
"84 -12 OFFCURVE",
"193 -12 CURVE SMOOTH",
"296 -12 OFFCURVE",
"370 34 OFFCURVE",
"425 109 CURVE",
"462 30 OFFCURVE",
"531 -12 OFFCURVE",
"623 -12 CURVE SMOOTH",
"698 -12 OFFCURVE",
"761 8 OFFCURVE",
"801 27 CURVE",
"793 107 LINE",
"757 90 OFFCURVE",
"704 68 OFFCURVE",
"638 68 CURVE SMOOTH",
"556 68 OFFCURVE",
"501 116 OFFCURVE",
"491 204 CURVE",
"518 200 OFFCURVE",
"555 196 OFFCURVE",
"591 196 CURVE SMOOTH",
"706 196 OFFCURVE",
"863 230 OFFCURVE",
"863 378 CURVE SMOOTH",
"863 458 OFFCURVE",
"795 532 OFFCURVE",
"681 532 CURVE SMOOTH",
"589 532 OFFCURVE",
"518 496 OFFCURVE",
"465 417 CURVE",
"433 493 OFFCURVE",
"368 532 OFFCURVE",
"276 532 CURVE SMOOTH"
);
},
{
closed = 1;
nodes = (
"733 456 OFFCURVE",
"773 418 OFFCURVE",
"773 371 CURVE SMOOTH",
"773 295 OFFCURVE",
"703 267 OFFCURVE",
"591 267 CURVE SMOOTH",
"553 267 OFFCURVE",
"524 270 OFFCURVE",
"493 276 CURVE",
"508 379 OFFCURVE",
"579 456 OFFCURVE",
"673 456 CURVE SMOOTH"
);
},
{
closed = 1;
nodes = (
"145 68 OFFCURVE",
"104 101 OFFCURVE",
"104 145 CURVE SMOOTH",
"104 215 OFFCURVE",
"170 248 OFFCURVE",
"249 248 CURVE SMOOTH",
"302 248 OFFCURVE",
"346 243 OFFCURVE",
"392 230 CURVE",
"368 141 OFFCURVE",
"302 68 OFFCURVE",
"204 68 CURVE SMOOTH"
);
}
);
width = 880;
}
);
unicode = 00E6;
},
{
color = 6;
glyphname = b;
lastChange = "2022-01-27 14:35:35 +0000";
layers = (
{
associatedMasterId = "B977A21F-8DFA-4EFB-8109-A765B080AA93";
layerId = "E3DCEFA0-8403-4D0F-893C-EF64BA96B068";
name = img;
width = 573;
},
{
hints = (
{
horizontal = 1;
place = "{-12, 80}";
type = Stem;
},
{
horizontal = 1;
place = "{454, 78}";
type = Stem;
},
{
horizontal = 1;
place = "{740, -20}";
target = down;
type = TopGhost;
},
{
place = "{449, 92}";
type = Stem;
}
);
layerId = "B977A21F-8DFA-4EFB-8109-A765B080AA93";
paths = (
{
closed = 1;
nodes = (
"541 454 OFFCURVE",
"469 532 OFFCURVE",
"374 532 CURVE SMOOTH",
"298 532 OFFCURVE",
"235 486 OFFCURVE",
"197 415 CURVE",
"254 740 LINE",
"164 740 LINE",
"37 18 LINE",
"72 1 OFFCURVE",
"125 -12 OFFCURVE",
"187 -12 CURVE SMOOTH",
"393 -12 OFFCURVE",
"541 141 OFFCURVE",
"541 340 CURVE SMOOTH"
);
},
{
closed = 1;
nodes = (
"409 454 OFFCURVE",
"449 405 OFFCURVE",
"449 328 CURVE SMOOTH",
"449 182 OFFCURVE",
"345 68 OFFCURVE",
"208 68 CURVE SMOOTH",
"181 68 OFFCURVE",
"158 71 OFFCURVE",
"137 76 CURVE",
"157 187 LINE SMOOTH",
"193 387 OFFCURVE",
"278 454 OFFCURVE",
"351 454 CURVE SMOOTH"
);
}
);
width = 573;
}
);
unicode = 0062;
},
{
color = 6;
glyphname = c;
lastChange = "2022-01-27 14:35:35 +0000";
layers = (
{
associatedMasterId = "B977A21F-8DFA-4EFB-8109-A765B080AA93";
layerId = "E3DCEFA0-8403-4D0F-893C-EF64BA96B068";
name = img;
width = 460;
},
{
hints = (
{
horizontal = 1;
place = "{-12, 80}";
type = Stem;
},
{
horizontal = 1;
place = "{452, 80}";
type = Stem;
},
{
place = "{37, 92}";
type = Stem;
}
);
layerId = "B977A21F-8DFA-4EFB-8109-A765B080AA93";
paths = (
{
closed = 1;
nodes = (
"468 492 LINE",
"430 514 OFFCURVE",
"382 532 OFFCURVE",
"320 532 CURVE SMOOTH",
"145 532 OFFCURVE",
"37 388 OFFCURVE",
"37 221 CURVE SMOOTH",
"37 81 OFFCURVE",
"126 -12 OFFCURVE",
"256 -12 CURVE SMOOTH",
"322 -12 OFFCURVE",
"369 4 OFFCURVE",
"402 19 CURVE",
"391 98 LINE",
"359 82 OFFCURVE",
"322 68 OFFCURVE",
"271 68 CURVE SMOOTH",
"184 68 OFFCURVE",
"129 132 OFFCURVE",
"129 233 CURVE SMOOTH",
"129 356 OFFCURVE",
"202 452 OFFCURVE",
"313 452 CURVE SMOOTH",
"359 452 OFFCURVE",
"397 436 OFFCURVE",
"431 415 CURVE"
);
}
);
width = 460;
}
);
unicode = 0063;
},
{
color = 6;
glyphname = d;
lastChange = "2022-01-27 14:35:35 +0000";
layers = (
{
associatedMasterId = "B977A21F-8DFA-4EFB-8109-A765B080AA93";
layerId = "E3DCEFA0-8403-4D0F-893C-EF64BA96B068";
name = img;
width = 607;
},
{
hints = (
{
place = "{42, 92}";
type = Stem;
},
{
place = "{408, 84}";
type = Stem;
},
{
horizontal = 1;
place = "{-12, 80}";
type = Stem;
},
{
horizontal = 1;
place = "{454, 78}";
type = Stem;
},
{
horizontal = 1;
place = "{740, -20}";
target = down;
type = TopGhost;
},
{
horizontal = 1;
place = "{-5, -20}";
target = down;
type = TopGhost;
}
);
layerId = "B977A21F-8DFA-4EFB-8109-A765B080AA93";
paths = (
{
closed = 1;
nodes = (
"550 65 LINE",
"515 65 OFFCURVE",
"492 79 OFFCURVE",
"492 116 CURVE SMOOTH",
"492 125 OFFCURVE",
"493 134 OFFCURVE",
"494 141 CURVE SMOOTH",
"600 740 LINE",
"510 740 LINE",
"457 442 LINE",
"429 493 OFFCURVE",
"377 532 OFFCURVE",
"306 532 CURVE SMOOTH",
"179 532 OFFCURVE",
"42 409 OFFCURVE",
"42 205 CURVE SMOOTH",
"42 71 OFFCURVE",
"132 -12 OFFCURVE",
"233 -12 CURVE SMOOTH",
"310 -12 OFFCURVE",
"369 41 OFFCURVE",
"408 105 CURVE",
"408 29 OFFCURVE",
"447 -5 OFFCURVE",
"519 -5 CURVE"
);
},
{
closed = 1;
nodes = (
"194 68 OFFCURVE",
"134 120 OFFCURVE",
"134 218 CURVE SMOOTH",
"134 365 OFFCURVE",
"221 454 OFFCURVE",
"314 454 CURVE SMOOTH",
"368 454 OFFCURVE",
"416 421 OFFCURVE",
"443 365 CURVE",
"425 262 LINE SMOOTH",
"404 144 OFFCURVE",
"332 68 OFFCURVE",
"257 68 CURVE SMOOTH"
);
}
);
width = 607;
}
);
unicode = 0064;
},
{
color = 6;
glyphname = eth;
lastChange = "2022-01-27 14:35:35 +0000";
layers = (
{
associatedMasterId = "B977A21F-8DFA-4EFB-8109-A765B080AA93";
layerId = "E3DCEFA0-8403-4D0F-893C-EF64BA96B068";
name = img;
width = 540;
},
{
hints = (
{
horizontal = 1;
place = "{-12, 80}";
type = Stem;
},
{
horizontal = 1;
place = "{358, 75}";
type = Stem;
},
{
horizontal = 1;
place = "{631, 81}";
type = Stem;
},
{
horizontal = 1;
place = "{758, -20}";
target = down;
type = TopGhost;
},
{
place = "{27, 91}";
type = Stem;
},
{
place = "{422, 91}";
type = Stem;
}
);
layerId = "B977A21F-8DFA-4EFB-8109-A765B080AA93";
paths = (
{
closed = 1;
nodes = (
"284 498 LINE",
"351 575 LINE",
"396 532 OFFCURVE",
"422 465 OFFCURVE",
"422 387 CURVE SMOOTH",
"422 369 OFFCURVE",
"421 354 OFFCURVE",
"420 339 CURVE",
"390 394 OFFCURVE",
"330 433 OFFCURVE",
"254 433 CURVE SMOOTH",
"132 433 OFFCURVE",
"27 330 OFFCURVE",
"27 188 CURVE SMOOTH",
"27 67 OFFCURVE",
"119 -12 OFFCURVE",
"234 -12 CURVE SMOOTH",
"393 -12 OFFCURVE",
"513 146 OFFCURVE",
"513 367 CURVE SMOOTH",
"513 485 OFFCURVE",
"480 573 OFFCURVE",
"412 636 CURVE",
"489 710 LINE",
"432 758 LINE",
"360 674 LINE",
"315 700 OFFCURVE",
"270 712 OFFCURVE",
"212 712 CURVE SMOOTH",
"201 712 OFFCURVE",
"190 711 OFFCURVE",
"180 710 CURVE",
"166 628 LINE",
"178 630 OFFCURVE",
"191 631 OFFCURVE",
"210 631 CURVE SMOOTH",
"243 631 OFFCURVE",
"272 624 OFFCURVE",
"299 612 CURVE",
"228 546 LINE"
);
},
{
closed = 1;
nodes = (
"328 358 OFFCURVE",
"378 319 OFFCURVE",
"410 266 CURVE",
"384 132 OFFCURVE",
"317 68 OFFCURVE",
"239 68 CURVE SMOOTH",
"171 68 OFFCURVE",
"118 120 OFFCURVE",
"118 198 CURVE SMOOTH",
"118 289 OFFCURVE",
"178 358 OFFCURVE",
"266 358 CURVE SMOOTH"
);
}
);
width = 540;
}
);
unicode = 00F0;
},
{
color = 6;
glyphname = e;
lastChange = "2022-01-27 14:35:35 +0000";
layers = (
{
associatedMasterId = "B977A21F-8DFA-4EFB-8109-A765B080AA93";
layerId = "E3DCEFA0-8403-4D0F-893C-EF64BA96B068";
name = img;
width = 518;
},
{
hints = (
{
horizontal = 1;
place = "{-12, 80}";
type = Stem;
},
{
horizontal = 1;
place = "{196, 71}";
type = Stem;
},
{
horizontal = 1;
place = "{456, 76}";
type = Stem;
},
{
place = "{411, 90}";
type = Stem;
}
);
layerId = "B977A21F-8DFA-4EFB-8109-A765B080AA93";
paths = (
{
closed = 1;
nodes = (
"336 -12 OFFCURVE",
"399 8 OFFCURVE",
"439 27 CURVE",
"431 107 LINE",
"395 90 OFFCURVE",
"342 68 OFFCURVE",
"276 68 CURVE SMOOTH",
"194 68 OFFCURVE",
"139 116 OFFCURVE",
"129 204 CURVE",
"156 200 OFFCURVE",
"193 196 OFFCURVE",
"229 196 CURVE SMOOTH",
"344 196 OFFCURVE",
"501 230 OFFCURVE",
"501 378 CURVE SMOOTH",
"501 458 OFFCURVE",
"433 532 OFFCURVE",
"318 532 CURVE SMOOTH",
"147 532 OFFCURVE",
"37 391 OFFCURVE",
"37 225 CURVE SMOOTH",
"37 78 OFFCURVE",
"129 -12 OFFCURVE",
"261 -12 CURVE SMOOTH"
);
},
{
closed = 1;
nodes = (
"371 456 OFFCURVE",
"411 418 OFFCURVE",
"411 371 CURVE SMOOTH",
"411 295 OFFCURVE",
"341 267 OFFCURVE",
"229 267 CURVE SMOOTH",
"191 267 OFFCURVE",
"162 270 OFFCURVE",
"131 276 CURVE",
"146 379 OFFCURVE",
"217 456 OFFCURVE",
"311 456 CURVE SMOOTH"
);
}
);
width = 518;
}
);
unicode = 0065;
},
{
color = 6;
glyphname = f;
lastChange = "2022-01-27 14:35:35 +0000";
layers = (
{
hints = (
{
horizontal = 1;
place = "{-232, 78}";
type = Stem;
},
{
horizontal = 1;
place = "{423, 78}";
type = Stem;
},
{
horizontal = 1;
place = "{672, 80}";
type = Stem;
}
);
layerId = "B977A21F-8DFA-4EFB-8109-A765B080AA93";
paths = (
{
closed = 1;
nodes = (
"258 584 LINE SMOOTH",
"269 644 OFFCURVE",
"306 672 OFFCURVE",
"355 672 CURVE SMOOTH",
"399 672 OFFCURVE",
"429 656 OFFCURVE",
"460 640 CURVE",
"495 716 LINE",
"458 736 OFFCURVE",
"410 752 OFFCURVE",
"356 752 CURVE SMOOTH",
"257 752 OFFCURVE",
"191 703 OFFCURVE",
"168 581 CURVE SMOOTH",
"153 501 LINE",
"73 501 LINE",
"59 423 LINE",
"139 423 LINE",
"51 -74 LINE SMOOTH",
"41 -130 OFFCURVE",
"13 -154 OFFCURVE",
"-23 -154 CURVE SMOOTH",
"-53 -154 OFFCURVE",
"-78 -142 OFFCURVE",
"-97 -124 CURVE",
"-133 -198 LINE",
"-105 -219 OFFCURVE",
"-68 -232 OFFCURVE",
"-24 -232 CURVE SMOOTH",
"59 -232 OFFCURVE",
"120 -190 OFFCURVE",
"141 -72 CURVE SMOOTH",
"229 423 LINE",
"383 423 LINE",
"397 501 LINE",
"243 501 LINE"
);
}
);
width = 372;
}
);
unicode = 0066;
},
{
color = 6;
glyphname = g;
lastChange = "2022-01-27 14:35:35 +0000";
layers = (
{
associatedMasterId = "B977A21F-8DFA-4EFB-8109-A765B080AA93";
layerId = "E3DCEFA0-8403-4D0F-893C-EF64BA96B068";
name = img;
width = 577;
},
{
hints = (
{
horizontal = 1;
place = "{-232, 78}";
type = Stem;
},
{
horizontal = 1;
place = "{0, 80}";
type = Stem;
},
{
horizontal = 1;
place = "{456, 76}";
type = Stem;
},
{
place = "{37, 92}";
type = Stem;
}
);
layerId = "B977A21F-8DFA-4EFB-8109-A765B080AA93";
paths = (
{
closed = 1;
nodes = (
"178 532 OFFCURVE",
"37 400 OFFCURVE",
"37 207 CURVE SMOOTH",
"37 73 OFFCURVE",
"131 0 OFFCURVE",
"227 0 CURVE SMOOTH",
"296 0 OFFCURVE",
"352 47 OFFCURVE",
"390 107 CURVE",
"373 9 LINE SMOOTH",
"352 -110 OFFCURVE",
"298 -154 OFFCURVE",
"231 -154 CURVE SMOOTH",
"178 -154 OFFCURVE",
"135 -132 OFFCURVE",
"102 -87 CURVE",
"32 -139 LINE",
"72 -189 OFFCURVE",
"134 -232 OFFCURVE",
"225 -232 CURVE SMOOTH",
"318 -232 OFFCURVE",
"426 -189 OFFCURVE",
"458 -6 CURVE SMOOTH",
"545 496 LINE",
"506 512 OFFCURVE",
"446 532 OFFCURVE",
"367 532 CURVE SMOOTH"
);
},
{
closed = 1;
nodes = (
"129 352 OFFCURVE",
"223 456 OFFCURVE",
"357 456 CURVE SMOOTH",
"394 456 OFFCURVE",
"421 451 OFFCURVE",
"446 443 CURVE",
"420 298 LINE SMOOTH",
"396 165 OFFCURVE",
"326 80 OFFCURVE",
"251 80 CURVE SMOOTH",
"189 80 OFFCURVE",
"129 127 OFFCURVE",
"129 217 CURVE SMOOTH"
);
}
);
width = 577;
}
);
unicode = 0067;
},
{
color = 6;
glyphname = h;
lastChange = "2022-01-27 14:35:35 +0000";
layers = (
{
hints = (
{
horizontal = 1;
place = "{453, 79}";
type = Stem;
},
{
horizontal = 1;
place = "{0, 21}";
target = up;
type = BottomGhost;
},
{
horizontal = 1;
place = "{740, -20}";
target = down;
type = TopGhost;
},
{
place = "{446, 91}";
type = Stem;
}
);
layerId = "B977A21F-8DFA-4EFB-8109-A765B080AA93";
paths = (
{
closed = 1;
nodes = (
"446 354 OFFCURVE",
"445 343 OFFCURVE",
"439 311 CURVE SMOOTH",
"384 0 LINE",
"474 0 LINE",
"531 326 LINE SMOOTH",
"535 351 OFFCURVE",
"537 370 OFFCURVE",
"537 389 CURVE SMOOTH",
"537 469 OFFCURVE",
"479 532 OFFCURVE",
"387 532 CURVE SMOOTH",
"312 532 OFFCURVE",
"240 484 OFFCURVE",
"199 411 CURVE",
"257 740 LINE",
"167 740 LINE",
"37 0 LINE",
"127 0 LINE",
"164 213 LINE SMOOTH",
"193 380 OFFCURVE",
"294 453 OFFCURVE",
"365 453 CURVE SMOOTH",
"413 453 OFFCURVE",
"446 419 OFFCURVE",
"446 368 CURVE SMOOTH"
);
}
);
width = 589;
}
);
unicode = 0068;
},
{
color = 6;
glyphname = hbar;
lastChange = "2022-01-27 14:35:35 +0000";
layers = (
{
associatedMasterId = "B977A21F-8DFA-4EFB-8109-A765B080AA93";
layerId = "E3DCEFA0-8403-4D0F-893C-EF64BA96B068";
name = img;
width = 599;
},
{
hints = (
{
place = "{456, 91}";
type = Stem;
},
{
horizontal = 1;
place = "{453, 79}";
type = Stem;
},
{
horizontal = 1;
place = "{585, 66}";
type = Stem;
},
{
horizontal = 1;
place = "{585, 155}";
type = Stem;
},
{
horizontal = 1;
place = "{0, 21}";
target = up;
type = BottomGhost;
}
);
layerId = "B977A21F-8DFA-4EFB-8109-A765B080AA93";
paths = (
{
closed = 1;
nodes = (
"456 354 OFFCURVE",
"455 343 OFFCURVE",
"449 311 CURVE SMOOTH",
"394 0 LINE",
"484 0 LINE",
"541 326 LINE SMOOTH",
"545 351 OFFCURVE",
"547 370 OFFCURVE",
"547 389 CURVE SMOOTH",
"547 469 OFFCURVE",
"489 532 OFFCURVE",
"397 532 CURVE SMOOTH",
"322 532 OFFCURVE",
"250 484 OFFCURVE",
"209 411 CURVE",
"240 585 LINE",
"362 585 LINE",
"373 651 LINE",
"251 651 LINE",
"267 740 LINE",
"177 740 LINE",
"161 651 LINE",
"82 651 LINE",
"71 585 LINE",
"150 585 LINE",
"47 0 LINE",
"137 0 LINE",
"174 213 LINE SMOOTH",
"203 380 OFFCURVE",
"304 453 OFFCURVE",
"375 453 CURVE SMOOTH",
"423 453 OFFCURVE",
"456 419 OFFCURVE",
"456 368 CURVE SMOOTH"
);
}
);
width = 599;
}
);
unicode = 0127;
},
{
color = 6;
glyphname = i;
lastChange = "2022-01-27 14:35:35 +0000";
layers = (
{
hints = (
{
horizontal = 1;
place = "{609, 126}";
type = Stem;
},
{
horizontal = 1;
place = "{520, -20}";
target = down;
type = TopGhost;
},
{
horizontal = 1;
place = "{0, 21}";
target = up;
type = BottomGhost;
},
{
place = "{137, 127}";
type = Stem;
}
);
layerId = "B977A21F-8DFA-4EFB-8109-A765B080AA93";
paths = (
{
closed = 1;
nodes = (
"218 520 LINE",
"128 520 LINE",
"37 0 LINE",
"127 0 LINE"
);
},
{
closed = 1;
nodes = (
"234 609 OFFCURVE",
"264 638 OFFCURVE",
"264 680 CURVE SMOOTH",
"264 709 OFFCURVE",
"244 735 OFFCURVE",
"207 735 CURVE SMOOTH",
"167 735 OFFCURVE",
"137 706 OFFCURVE",
"137 664 CURVE SMOOTH",
"137 635 OFFCURVE",
"157 609 OFFCURVE",
"194 609 CURVE SMOOTH"
);
}
);
width = 256;
}
);
unicode = 0069;
},
{
color = 6;
glyphname = dotlessi;
lastChange = "2022-01-27 14:35:35 +0000";
layers = (
{
hints = (
{
horizontal = 1;
place = "{520, -20}";
target = down;
type = TopGhost;
},
{
horizontal = 1;
place = "{0, 21}";
target = up;
type = BottomGhost;
}
);
layerId = "B977A21F-8DFA-4EFB-8109-A765B080AA93";
paths = (
{
closed = 1;
nodes = (
"218 520 LINE",
"128 520 LINE",
"37 0 LINE",
"127 0 LINE"
);
}
);
width = 255;
}
);
unicode = 0131;
},
{
color = 6;
glyphname = j;
lastChange = "2022-01-27 14:35:35 +0000";
layers = (
{
associatedMasterId = "B977A21F-8DFA-4EFB-8109-A765B080AA93";
layerId = "E3DCEFA0-8403-4D0F-893C-EF64BA96B068";
name = img;
width = 264;
},
{
hints = (
{
horizontal = 1;
place = "{-232, 78}";
type = Stem;
},
{
horizontal = 1;
place = "{609, 126}";
type = Stem;
},
{
horizontal = 1;
place = "{520, -20}";
target = down;
type = TopGhost;
},
{
place = "{145, 127}";
type = Stem;
}
);
layerId = "B977A21F-8DFA-4EFB-8109-A765B080AA93";
paths = (
{
closed = 1;
nodes = (
"31 -74 LINE SMOOTH",
"21 -130 OFFCURVE",
"-7 -154 OFFCURVE",
"-43 -154 CURVE SMOOTH",
"-73 -154 OFFCURVE",
"-98 -142 OFFCURVE",
"-117 -124 CURVE",
"-153 -198 LINE",
"-125 -219 OFFCURVE",
"-88 -232 OFFCURVE",
"-44 -232 CURVE SMOOTH",
"39 -232 OFFCURVE",
"101 -190 OFFCURVE",
"122 -72 CURVE SMOOTH",
"226 520 LINE",
"136 520 LINE"
);
},
{
closed = 1;
nodes = (
"242 609 OFFCURVE",
"272 638 OFFCURVE",
"272 680 CURVE SMOOTH",
"272 709 OFFCURVE",
"252 735 OFFCURVE",
"215 735 CURVE SMOOTH",
"175 735 OFFCURVE",
"145 706 OFFCURVE",
"145 664 CURVE SMOOTH",
"145 635 OFFCURVE",
"165 609 OFFCURVE",
"202 609 CURVE SMOOTH"
);
}
);
width = 264;
}
);
unicode = 006A;
},
{
color = 6;
glyphname = dotlessj;
lastChange = "2022-01-27 14:35:35 +0000";
layers = (
{
hints = (
{
horizontal = 1;
place = "{-232, 78}";
type = Stem;
},
{
horizontal = 1;
place = "{520, -20}";
target = down;
type = TopGhost;
}
);
layerId = "B977A21F-8DFA-4EFB-8109-A765B080AA93";
paths = (
{
closed = 1;
nodes = (
"31 -74 LINE SMOOTH",
"21 -130 OFFCURVE",
"-7 -154 OFFCURVE",
"-43 -154 CURVE SMOOTH",
"-73 -154 OFFCURVE",
"-98 -142 OFFCURVE",
"-117 -124 CURVE",
"-153 -198 LINE",
"-125 -219 OFFCURVE",
"-88 -232 OFFCURVE",
"-44 -232 CURVE SMOOTH",
"39 -232 OFFCURVE",
"101 -190 OFFCURVE",
"122 -72 CURVE SMOOTH",
"226 520 LINE",
"136 520 LINE"
);
}
);
width = 264;
}
);
unicode = 0237;
},
{
color = 6;
glyphname = k;
lastChange = "2022-01-27 14:35:35 +0000";
layers = (
{
associatedMasterId = "B977A21F-8DFA-4EFB-8109-A765B080AA93";
layerId = "E3DCEFA0-8403-4D0F-893C-EF64BA96B068";
name = img;
width = 543;
},
{
hints = (
{
horizontal = 1;
place = "{0, 65}";
type = Stem;
},
{
horizontal = 1;
place = "{244, 46}";
type = Stem;
},
{
horizontal = 1;
place = "{462, 70}";
type = Stem;
},
{
horizontal = 1;
place = "{-5, 21}";
target = up;
type = BottomGhost;
},
{
horizontal = 1;
place = "{740, -20}";
target = down;
type = TopGhost;
},
{
place = "{434, 87}";
type = Stem;
}
);
layerId = "B977A21F-8DFA-4EFB-8109-A765B080AA93";
paths = (
{
closed = 1;
nodes = (
"37 0 LINE",
"127 0 LINE",
"172 259 LINE SMOOTH",
"200 418 OFFCURVE",
"295 462 OFFCURVE",
"351 462 CURVE SMOOTH",
"402 462 OFFCURVE",
"434 429 OFFCURVE",
"434 388 CURVE SMOOTH",
"434 330 OFFCURVE",
"389 290 OFFCURVE",
"302 290 CURVE SMOOTH",
"263 290 OFFCURVE",
"232 297 OFFCURVE",
"212 306 CURVE",
"203 277 LINE",
"326 65 LINE SMOOTH",
"359 8 OFFCURVE",
"399 -5 OFFCURVE",
"461 -5 CURVE",
"492 65 LINE",
"443 65 OFFCURVE",
"418 80 OFFCURVE",
"395 115 CURVE SMOOTH",
"310 245 LINE",
"319 244 OFFCURVE",
"325 244 OFFCURVE",
"332 244 CURVE SMOOTH",
"441 244 OFFCURVE",
"521 292 OFFCURVE",
"521 398 CURVE SMOOTH",
"521 472 OFFCURVE",
"459 532 OFFCURVE",
"373 532 CURVE SMOOTH",
"300 532 OFFCURVE",
"239 494 OFFCURVE",
"203 433 CURVE",
"257 740 LINE",
"167 740 LINE"
);
}
);
width = 543;
}
);
unicode = 006B;
},
{
color = 6;
glyphname = kgreenlandic;
lastChange = "2022-01-27 14:35:35 +0000";
layers = (
{
associatedMasterId = "B977A21F-8DFA-4EFB-8109-A765B080AA93";
layerId = "E3DCEFA0-8403-4D0F-893C-EF64BA96B068";
name = img;
width = 491;
},
{
hints = (
{
horizontal = 1;
place = "{0, -20}";
target = down;
type = TopGhost;
},
{
horizontal = 1;
place = "{-8, 21}";
target = up;
type = BottomGhost;
},
{
horizontal = 1;
place = "{522, -20}";
target = down;
type = TopGhost;
},
{
horizontal = 1;
place = "{520, -20}";
target = down;
type = TopGhost;
}
);
layerId = "B977A21F-8DFA-4EFB-8109-A765B080AA93";
paths = (
{
closed = 1;
nodes = (
"37 0 LINE",
"127 0 LINE",
"169 241 LINE",
"312 69 LINE SMOOTH",
"356 15 OFFCURVE",
"382 -8 OFFCURVE",
"438 -8 CURVE",
"471 69 LINE",
"445 69 OFFCURVE",
"417 75 OFFCURVE",
"380 118 CURVE SMOOTH",
"248 271 LINE",
"479 466 LINE",
"427 522 LINE",
"180 300 LINE",
"218 520 LINE",
"128 520 LINE"
);
}
);
width = 491;
}
);
unicode = 0138;
},
{
color = 6;
glyphname = l;
lastChange = "2022-01-27 14:35:35 +0000";
layers = (
{
associatedMasterId = "B977A21F-8DFA-4EFB-8109-A765B080AA93";
layerId = "E3DCEFA0-8403-4D0F-893C-EF64BA96B068";
name = img;
width = 328;
},
{
hints = (
{
horizontal = 1;
place = "{-12, 78}";
type = Stem;
},
{
horizontal = 1;
place = "{740, -20}";
target = down;
type = TopGhost;
},
{
place = "{52, 90}";
type = Stem;
}
);
layerId = "B977A21F-8DFA-4EFB-8109-A765B080AA93";
paths = (
{
closed = 1;
nodes = (
"244 740 LINE",
"154 740 LINE",
"56 178 LINE SMOOTH",
"53 159 OFFCURVE",
"52 146 OFFCURVE",
"52 127 CURVE SMOOTH",
"52 33 OFFCURVE",
"117 -12 OFFCURVE",
"197 -12 CURVE SMOOTH",
"234 -12 OFFCURVE",
"267 -4 OFFCURVE",
"291 8 CURVE",
"282 81 LINE",
"263 72 OFFCURVE",
"240 66 OFFCURVE",
"217 66 CURVE SMOOTH",
"171 66 OFFCURVE",
"142 92 OFFCURVE",
"142 138 CURVE SMOOTH",
"142 149 OFFCURVE",
"143 162 OFFCURVE",
"146 180 CURVE SMOOTH"
);
}
);
width = 328;
}
);
unicode = 006C;
},
{
color = 6;
glyphname = lslash;
lastChange = "2022-01-27 14:35:35 +0000";
layers = (
{
associatedMasterId = "B977A21F-8DFA-4EFB-8109-A765B080AA93";
layerId = "E3DCEFA0-8403-4D0F-893C-EF64BA96B068";
name = img;
width = 353;
},
{
hints = (
{
horizontal = 1;
place = "{-12, 78}";
type = Stem;
},
{
horizontal = 1;
place = "{740, -20}";
target = down;
type = TopGhost;
},
{
place = "{70, 90}";
type = Stem;
}
);
layerId = "B977A21F-8DFA-4EFB-8109-A765B080AA93";
paths = (
{
closed = 1;
nodes = (
"262 740 LINE",
"172 740 LINE",
"113 402 LINE",
"17 359 LINE",
"36 288 LINE",
"98 314 LINE",
"74 178 LINE SMOOTH",
"71 159 OFFCURVE",
"70 146 OFFCURVE",
"70 127 CURVE SMOOTH",
"70 33 OFFCURVE",
"135 -12 OFFCURVE",
"215 -12 CURVE SMOOTH",
"252 -12 OFFCURVE",
"285 -4 OFFCURVE",
"309 8 CURVE",
"300 81 LINE",
"281 72 OFFCURVE",
"258 66 OFFCURVE",
"235 66 CURVE SMOOTH",
"189 66 OFFCURVE",
"160 92 OFFCURVE",
"160 138 CURVE SMOOTH",
"160 149 OFFCURVE",
"161 162 OFFCURVE",
"164 180 CURVE SMOOTH",
"195 356 LINE",
"366 429 LINE",
"347 500 LINE",
"210 442 LINE"
);
}
);
width = 353;
}
);
unicode = 0142;
},
{
color = 6;
glyphname = m;
lastChange = "2022-01-27 14:35:35 +0000";
layers = (
{
hints = (
{
place = "{771, 90}";
type = Stem;
},
{
horizontal = 1;
place = "{453, 67}";
type = Stem;
},
{
horizontal = 1;
place = "{453, 79}";
type = Stem;
},
{
horizontal = 1;
place = "{0, 21}";
target = up;
type = BottomGhost;
}
);
layerId = "B977A21F-8DFA-4EFB-8109-A765B080AA93";
paths = (
{
closed = 1;
nodes = (
"738 453 OFFCURVE",
"771 420 OFFCURVE",
"771 368 CURVE SMOOTH",
"771 354 OFFCURVE",
"770 343 OFFCURVE",
"764 311 CURVE SMOOTH",
"707 0 LINE",
"797 0 LINE",
"855 326 LINE SMOOTH",
"859 351 OFFCURVE",
"861 370 OFFCURVE",
"861 389 CURVE SMOOTH",
"861 469 OFFCURVE",
"804 532 OFFCURVE",
"715 532 CURVE SMOOTH",
"638 532 OFFCURVE",
"569 483 OFFCURVE",
"524 400 CURVE",
"517 476 OFFCURVE",
"463 532 OFFCURVE",
"381 532 CURVE SMOOTH",
"307 532 OFFCURVE",
"233 480 OFFCURVE",
"193 400 CURVE",
"215 520 LINE",
"128 520 LINE",
"37 0 LINE",
"127 0 LINE",
"163 207 LINE SMOOTH",
"193 377 OFFCURVE",
"285 453 OFFCURVE",
"355 453 CURVE SMOOTH",
"403 453 OFFCURVE",
"436 420 OFFCURVE",
"436 368 CURVE SMOOTH",
"436 354 OFFCURVE",
"435 343 OFFCURVE",
"429 311 CURVE SMOOTH",
"372 0 LINE",
"462 0 LINE",
"500 215 LINE SMOOTH",
"529 380 OFFCURVE",
"623 453 OFFCURVE",
"690 453 CURVE SMOOTH"
);
}
);
width = 913;
}
);
unicode = 006D;
},
{
color = 6;
glyphname = n;
lastChange = "2022-01-27 14:35:35 +0000";
layers = (
{
associatedMasterId = "B977A21F-8DFA-4EFB-8109-A765B080AA93";
layerId = "E3DCEFA0-8403-4D0F-893C-EF64BA96B068";
name = img;
width = 589;
},
{
hints = (
{
place = "{446, 91}";
type = Stem;
},
{
horizontal = 1;
place = "{453, 67}";
type = Stem;
},
{
horizontal = 1;
place = "{453, 79}";
type = Stem;
},
{
horizontal = 1;
place = "{0, 21}";
target = up;
type = BottomGhost;
}
);
layerId = "B977A21F-8DFA-4EFB-8109-A765B080AA93";
paths = (
{
closed = 1;
nodes = (
"413 453 OFFCURVE",
"446 420 OFFCURVE",
"446 368 CURVE SMOOTH",
"446 354 OFFCURVE",
"445 343 OFFCURVE",
"439 311 CURVE SMOOTH",
"384 0 LINE",
"474 0 LINE",
"531 326 LINE SMOOTH",
"535 351 OFFCURVE",
"537 370 OFFCURVE",
"537 389 CURVE SMOOTH",
"537 469 OFFCURVE",
"478 532 OFFCURVE",
"387 532 CURVE SMOOTH",
"309 532 OFFCURVE",
"234 480 OFFCURVE",
"193 400 CURVE",
"215 520 LINE",
"128 520 LINE",
"37 0 LINE",
"127 0 LINE",
"163 207 LINE SMOOTH",
"193 377 OFFCURVE",
"294 453 OFFCURVE",
"364 453 CURVE SMOOTH"
);
}
);
width = 589;
}
);
unicode = 006E;
},
{
color = 6;
glyphname = o;
lastChange = "2022-01-27 14:35:35 +0000";
layers = (
{
associatedMasterId = "B977A21F-8DFA-4EFB-8109-A765B080AA93";
layerId = "E3DCEFA0-8403-4D0F-893C-EF64BA96B068";
name = img;
width = 601;
},
{
hints = (
{
horizontal = 1;
place = "{-12, 80}";
type = Stem;
},
{
horizontal = 1;
place = "{452, 80}";
type = Stem;
},
{
place = "{37, 92}";
type = Stem;
},
{
place = "{472, 92}";
type = Stem;
}
);
layerId = "B977A21F-8DFA-4EFB-8109-A765B080AA93";
paths = (
{
closed = 1;
nodes = (
"185 68 OFFCURVE",
"129 140 OFFCURVE",
"129 231 CURVE SMOOTH",
"129 355 OFFCURVE",
"202 452 OFFCURVE",
"320 452 CURVE SMOOTH",
"416 452 OFFCURVE",
"472 380 OFFCURVE",
"472 289 CURVE SMOOTH",
"472 165 OFFCURVE",
"400 68 OFFCURVE",
"281 68 CURVE SMOOTH"
);
},
{
closed = 1;
nodes = (
"452 -12 OFFCURVE",
"564 124 OFFCURVE",
"564 297 CURVE SMOOTH",
"564 434 OFFCURVE",
"471 532 OFFCURVE",
"323 532 CURVE SMOOTH",
"149 532 OFFCURVE",
"37 396 OFFCURVE",
"37 223 CURVE SMOOTH",
"37 86 OFFCURVE",
"130 -12 OFFCURVE",
"278 -12 CURVE SMOOTH"
);
}
);
width = 601;
}
);
unicode = 006F;
},
{
color = 6;
glyphname = oslash;
lastChange = "2022-01-27 14:35:35 +0000";
layers = (
{
associatedMasterId = "B977A21F-8DFA-4EFB-8109-A765B080AA93";
layerId = "E3DCEFA0-8403-4D0F-893C-EF64BA96B068";
name = img;
width = 601;
},
{
hints = (
{
horizontal = 1;
place = "{-12, 80}";
type = Stem;
},
{
horizontal = 1;
place = "{452, 80}";
type = Stem;
},
{
horizontal = 1;
place = "{631, -20}";
target = down;
type = TopGhost;
},
{
horizontal = 1;
place = "{-115, 21}";
target = up;
type = BottomGhost;
},
{
place = "{37, 92}";
type = Stem;
},
{
place = "{472, 92}";
type = Stem;
}
);
layerId = "B977A21F-8DFA-4EFB-8109-A765B080AA93";
paths = (
{
closed = 1;
nodes = (
"452 -12 OFFCURVE",
"564 124 OFFCURVE",
"564 297 CURVE SMOOTH",
"564 374 OFFCURVE",
"534 439 OFFCURVE",
"482 481 CURVE",
"559 590 LINE",
"490 631 LINE",
"422 515 LINE",
"392 526 OFFCURVE",
"359 532 OFFCURVE",
"323 532 CURVE SMOOTH",
"149 532 OFFCURVE",
"37 396 OFFCURVE",
"37 223 CURVE SMOOTH",
"37 146 OFFCURVE",
"66 81 OFFCURVE",
"118 39 CURVE",
"39 -74 LINE",
"108 -115 LINE",
"177 6 LINE",
"207 -6 OFFCURVE",
"241 -12 OFFCURVE",
"278 -12 CURVE SMOOTH"
);
},
{
closed = 1;
nodes = (
"257 68 OFFCURVE",
"238 71 OFFCURVE",
"223 78 CURVE",
"432 404 LINE",
"458 374 OFFCURVE",
"472 334 OFFCURVE",
"472 289 CURVE SMOOTH",
"472 165 OFFCURVE",
"400 68 OFFCURVE",
"281 68 CURVE SMOOTH"
);
},
{
closed = 1;
nodes = (
"129 355 OFFCURVE",
"202 452 OFFCURVE",
"320 452 CURVE SMOOTH",
"340 452 OFFCURVE",
"361 448 OFFCURVE",
"376 442 CURVE",
"167 117 LINE",
"142 146 OFFCURVE",
"129 186 OFFCURVE",
"129 231 CURVE SMOOTH"
);
}
);
width = 601;
}
);
unicode = 00F8;
},
{
color = 6;
glyphname = oe;
lastChange = "2022-01-27 14:35:35 +0000";
layers = (
{
associatedMasterId = "B977A21F-8DFA-4EFB-8109-A765B080AA93";
layerId = "E3DCEFA0-8403-4D0F-893C-EF64BA96B068";
name = img;
width = 951;
},
{
hints = (
{
horizontal = 1;
place = "{-12, 80}";
type = Stem;
},
{
horizontal = 1;
place = "{204, 69}";
type = Stem;
},
{
horizontal = 1;
place = "{452, 80}";
type = Stem;
},
{
place = "{37, 92}";
type = Stem;
},
{
place = "{472, 89}";
type = Stem;
},
{
place = "{844, 90}";
type = Stem;
}
);
layerId = "B977A21F-8DFA-4EFB-8109-A765B080AA93";
paths = (
{
closed = 1;
nodes = (
"376 -12 OFFCURVE",
"451 36 OFFCURVE",
"502 115 CURVE",
"538 32 OFFCURVE",
"607 -12 OFFCURVE",
"694 -12 CURVE SMOOTH",
"769 -12 OFFCURVE",
"832 8 OFFCURVE",
"872 27 CURVE",
"864 107 LINE",
"828 90 OFFCURVE",
"776 68 OFFCURVE",
"713 68 CURVE SMOOTH",
"620 68 OFFCURVE",
"561 127 OFFCURVE",
"561 236 CURVE SMOOTH",
"561 256 LINE",
"600 223 OFFCURVE",
"655 204 OFFCURVE",
"727 204 CURVE SMOOTH",
"843 204 OFFCURVE",
"934 267 OFFCURVE",
"934 373 CURVE SMOOTH",
"934 458 OFFCURVE",
"866 532 OFFCURVE",
"749 532 CURVE SMOOTH",
"655 532 OFFCURVE",
"582 490 OFFCURVE",
"531 412 CURVE",
"492 485 OFFCURVE",
"423 532 OFFCURVE",
"323 532 CURVE SMOOTH",
"149 532 OFFCURVE",
"37 396 OFFCURVE",
"37 223 CURVE SMOOTH",
"37 86 OFFCURVE",
"130 -12 OFFCURVE",
"276 -12 CURVE SMOOTH"
);
},
{
closed = 1;
nodes = (
"185 68 OFFCURVE",
"129 140 OFFCURVE",
"129 231 CURVE SMOOTH",
"129 355 OFFCURVE",
"202 452 OFFCURVE",
"320 452 CURVE SMOOTH",
"416 452 OFFCURVE",
"472 380 OFFCURVE",
"472 289 CURVE SMOOTH",
"472 165 OFFCURVE",
"400 68 OFFCURVE",
"281 68 CURVE SMOOTH"
);
},
{
closed = 1;
nodes = (
"803 456 OFFCURVE",
"844 418 OFFCURVE",
"844 369 CURVE SMOOTH",
"844 307 OFFCURVE",
"797 273 OFFCURVE",
"728 273 CURVE SMOOTH",
"671 273 OFFCURVE",
"617 295 OFFCURVE",
"578 333 CURVE",
"607 406 OFFCURVE",
"668 456 OFFCURVE",
"743 456 CURVE SMOOTH"
);
}
);
width = 951;
}
);
unicode = 0153;
},
{
color = 6;
glyphname = p;
lastChange = "2022-01-27 14:35:35 +0000";
layers = (
{
associatedMasterId = "B977A21F-8DFA-4EFB-8109-A765B080AA93";
layerId = "E3DCEFA0-8403-4D0F-893C-EF64BA96B068";
name = img;
width = 602;
},
{
hints = (
{
place = "{114, 87}";
type = Stem;
},
{
place = "{468, 92}";
type = Stem;
},
{
horizontal = 1;
place = "{454, 78}";
type = Stem;
},
{
horizontal = 1;
place = "{454, 66}";
type = Stem;
},
{
horizontal = 1;
place = "{-12, 80}";
type = Stem;
},
{
horizontal = 1;
place = "{-220, 21}";
target = up;
type = BottomGhost;
}
);
layerId = "B977A21F-8DFA-4EFB-8109-A765B080AA93";
paths = (
{
closed = 1;
nodes = (
"65 450 LINE",
"96 450 OFFCURVE",
"114 436 OFFCURVE",
"114 403 CURVE SMOOTH",
"114 394 OFFCURVE",
"113 386 OFFCURVE",
"111 375 CURVE SMOOTH",
"7 -220 LINE",
"97 -220 LINE",
"148 71 LINE",
"179 24 OFFCURVE",
"238 -12 OFFCURVE",
"302 -12 CURVE SMOOTH",
"432 -12 OFFCURVE",
"560 118 OFFCURVE",
"560 316 CURVE SMOOTH",
"560 443 OFFCURVE",
"491 532 OFFCURVE",
"383 532 CURVE SMOOTH",
"301 532 OFFCURVE",
"239 481 OFFCURVE",
"201 409 CURVE",
"201 430 LINE SMOOTH",
"201 489 OFFCURVE",
"167 520 OFFCURVE",
"97 520 CURVE"
);
},
{
closed = 1;
nodes = (
"240 68 OFFCURVE",
"191 98 OFFCURVE",
"162 152 CURVE",
"180 253 LINE SMOOTH",
"202 374 OFFCURVE",
"275 454 OFFCURVE",
"356 454 CURVE SMOOTH",
"422 454 OFFCURVE",
"468 398 OFFCURVE",
"468 307 CURVE SMOOTH",
"468 166 OFFCURVE",
"388 68 OFFCURVE",
"294 68 CURVE SMOOTH"
);
}
);
width = 602;
}
);
unicode = 0070;
},
{
color = 6;
glyphname = thorn;
lastChange = "2022-01-27 14:35:35 +0000";
layers = (
{
associatedMasterId = "B977A21F-8DFA-4EFB-8109-A765B080AA93";
layerId = "E3DCEFA0-8403-4D0F-893C-EF64BA96B068";
name = img;
width = 600;
},
{
hints = (
{
place = "{469, 89}";
type = Stem;
},
{
horizontal = 1;
place = "{454, 246}";
type = Stem;
},
{
horizontal = 1;
place = "{454, 78}";
type = Stem;
},
{
horizontal = 1;
place = "{-12, 80}";
type = Stem;
},
{
horizontal = 1;
place = "{-220, 21}";
target = up;
type = BottomGhost;
}
);
layerId = "B977A21F-8DFA-4EFB-8109-A765B080AA93";
paths = (
{
closed = 1;
nodes = (
"97 -220 LINE",
"148 72 LINE",
"180 24 OFFCURVE",
"239 -12 OFFCURVE",
"302 -12 CURVE SMOOTH",
"431 -12 OFFCURVE",
"558 118 OFFCURVE",
"558 316 CURVE SMOOTH",
"558 443 OFFCURVE",
"488 532 OFFCURVE",
"382 532 CURVE SMOOTH",
"308 532 OFFCURVE",
"249 489 OFFCURVE",
"210 425 CURVE",
"259 700 LINE",
"169 700 LINE",
"7 -220 LINE"
);
},
{
closed = 1;
nodes = (
"241 68 OFFCURVE",
"191 98 OFFCURVE",
"162 152 CURVE",
"175 223 LINE SMOOTH",
"200 359 OFFCURVE",
"270 454 OFFCURVE",
"357 454 CURVE SMOOTH",
"423 454 OFFCURVE",
"469 398 OFFCURVE",
"469 307 CURVE SMOOTH",
"469 166 OFFCURVE",
"389 68 OFFCURVE",
"295 68 CURVE SMOOTH"
);
}
);
width = 600;
}
);
unicode = 00FE;
},
{
color = 6;
glyphname = q;
lastChange = "2022-01-27 14:35:35 +0000";
layers = (
{
associatedMasterId = "B977A21F-8DFA-4EFB-8109-A765B080AA93";
layerId = "E3DCEFA0-8403-4D0F-893C-EF64BA96B068";
name = img;
width = 577;
},
{
hints = (
{
horizontal = 1;
place = "{-12, 80}";
type = Stem;
},
{
horizontal = 1;
place = "{456, 76}";
type = Stem;
},
{
horizontal = 1;
place = "{-220, 21}";
target = up;
type = BottomGhost;
},
{
place = "{37, 92}";
type = Stem;
}
);
layerId = "B977A21F-8DFA-4EFB-8109-A765B080AA93";
paths = (
{
closed = 1;
nodes = (
"294 -12 OFFCURVE",
"346 31 OFFCURVE",
"383 88 CURVE",
"329 -220 LINE",
"419 -220 LINE",
"545 496 LINE",
"506 512 OFFCURVE",
"447 532 OFFCURVE",
"368 532 CURVE SMOOTH",
"177 532 OFFCURVE",
"37 398 OFFCURVE",
"37 205 CURVE SMOOTH",
"37 71 OFFCURVE",
"127 -12 OFFCURVE",
"227 -12 CURVE SMOOTH"
);
},
{
closed = 1;
nodes = (
"188 68 OFFCURVE",
"129 120 OFFCURVE",
"129 216 CURVE SMOOTH",
"129 354 OFFCURVE",
"219 456 OFFCURVE",
"358 456 CURVE SMOOTH",
"395 456 OFFCURVE",
"421 451 OFFCURVE",
"445 443 CURVE",
"414 267 LINE SMOOTH",
"393 148 OFFCURVE",
"325 68 OFFCURVE",
"250 68 CURVE SMOOTH"
);
}
);
width = 577;
}
);
unicode = 0071;
},
{
color = 6;
glyphname = r;
lastChange = "2022-01-27 14:35:35 +0000";
layers = (
{
hints = (
{
place = "{120, 83}";
type = Stem;
},
{
horizontal = 1;
place = "{441, 79}";
type = Stem;
},
{
horizontal = 1;
place = "{441, 91}";
type = Stem;
},
{
horizontal = 1;
place = "{0, 21}";
target = up;
type = BottomGhost;
}
);
layerId = "B977A21F-8DFA-4EFB-8109-A765B080AA93";
paths = (
{
closed = 1;
nodes = (
"52 0 LINE",
"142 0 LINE",
"171 169 LINE SMOOTH",
"206 374 OFFCURVE",
"280 441 OFFCURVE",
"353 441 CURVE SMOOTH",
"376 441 OFFCURVE",
"392 438 OFFCURVE",
"408 432 CURVE",
"448 520 LINE",
"433 526 OFFCURVE",
"411 532 OFFCURVE",
"381 532 CURVE SMOOTH",
"304 532 OFFCURVE",
"241 494 OFFCURVE",
"203 399 CURVE",
"203 419 LINE SMOOTH",
"203 486 OFFCURVE",
"164 520 OFFCURVE",
"93 520 CURVE",
"62 450 LINE",
"97 450 OFFCURVE",
"120 436 OFFCURVE",
"120 399 CURVE SMOOTH",
"120 390 OFFCURVE",
"119 381 OFFCURVE",
"118 374 CURVE SMOOTH"
);
}
);
width = 405;
}
);
unicode = 0072;
},
{
color = 6;
glyphname = s;
lastChange = "2022-01-27 14:35:35 +0000";
layers = (
{
associatedMasterId = "B977A21F-8DFA-4EFB-8109-A765B080AA93";
layerId = "E3DCEFA0-8403-4D0F-893C-EF64BA96B068";
name = img;
width = 444;
},
{
hints = (
{
horizontal = 1;
place = "{-12, 78}";
type = Stem;
},
{
horizontal = 1;
place = "{457, 75}";
type = Stem;
},
{
place = "{68, 89}";
type = Stem;
},
{
place = "{301, 93}";
type = Stem;
}
);
layerId = "B977A21F-8DFA-4EFB-8109-A765B080AA93";
paths = (
{
closed = 1;
nodes = (
"437 483 LINE",
"392 510 OFFCURVE",
"332 532 OFFCURVE",
"258 532 CURVE SMOOTH",
"146 532 OFFCURVE",
"68 474 OFFCURVE",
"68 394 CURVE SMOOTH",
"68 324 OFFCURVE",
"96 283 OFFCURVE",
"196 233 CURVE SMOOTH",
"279 191 OFFCURVE",
"301 167 OFFCURVE",
"301 132 CURVE SMOOTH",
"301 95 OFFCURVE",
"260 66 OFFCURVE",
"193 66 CURVE SMOOTH",
"134 66 OFFCURVE",
"84 89 OFFCURVE",
"48 118 CURVE",
"-3 44 LINE",
"42 11 OFFCURVE",
"104 -12 OFFCURVE",
"185 -12 CURVE SMOOTH",
"302 -12 OFFCURVE",
"394 40 OFFCURVE",
"394 146 CURVE SMOOTH",
"394 217 OFFCURVE",
"351 260 OFFCURVE",
"260 306 CURVE SMOOTH",
"177 348 OFFCURVE",
"157 368 OFFCURVE",
"157 399 CURVE SMOOTH",
"157 433 OFFCURVE",
"193 457 OFFCURVE",
"256 457 CURVE SMOOTH",
"316 457 OFFCURVE",
"362 434 OFFCURVE",
"401 407 CURVE"
);
}
);
width = 444;
}
);
unicode = 0073;
},
{
color = 6;
glyphname = germandbls;
lastChange = "2022-01-27 14:35:35 +0000";
layers = (
{
hints = (
{
place = "{481, 93}";
type = Stem;
},
{
place = "{517, 57}";
type = Stem;
},
{
place = "{517, 90}";
type = Stem;
},
{
horizontal = 1;
place = "{-12, 80}";
type = Stem;
},
{
horizontal = 1;
place = "{439, 81}";
type = Stem;
},
{
horizontal = 1;
place = "{672, 80}";
type = Stem;
},
{
horizontal = 1;
place = "{-220, 21}";
target = up;
type = BottomGhost;
}
);
layerId = "B977A21F-8DFA-4EFB-8109-A765B080AA93";
paths = (
{
closed = 1;
nodes = (
"155 504 OFFCURVE",
"133 520 OFFCURVE",
"85 520 CURVE",
"54 439 LINE",
"102 439 OFFCURVE",
"129 417 OFFCURVE",
"129 376 CURVE SMOOTH",
"129 367 OFFCURVE",
"128 358 OFFCURVE",
"126 346 CURVE SMOOTH",
"27 -220 LINE",
"117 -220 LINE",
"234 440 LINE SMOOTH",
"263 605 OFFCURVE",
"321 672 OFFCURVE",
"409 672 CURVE SMOOTH",
"475 672 OFFCURVE",
"517 624 OFFCURVE",
"517 568 CURVE SMOOTH",
"517 477 OFFCURVE",
"437 425 OFFCURVE",
"339 425 CURVE",
"326 352 LINE",
"420 341 OFFCURVE",
"481 281 OFFCURVE",
"481 202 CURVE SMOOTH",
"481 118 OFFCURVE",
"423 68 OFFCURVE",
"343 68 CURVE SMOOTH",
"305 68 OFFCURVE",
"268 82 OFFCURVE",
"252 96 CURVE",
"218 19 LINE",
"242 3 OFFCURVE",
"289 -12 OFFCURVE",
"338 -12 CURVE SMOOTH",
"479 -12 OFFCURVE",
"574 75 OFFCURVE",
"574 204 CURVE SMOOTH",
"574 290 OFFCURVE",
"527 350 OFFCURVE",
"449 387 CURVE",
"550 419 OFFCURVE",
"607 481 OFFCURVE",
"607 581 CURVE SMOOTH",
"607 680 OFFCURVE",
"527 752 OFFCURVE",
"417 752 CURVE SMOOTH",
"281 752 OFFCURVE",
"193 671 OFFCURVE",
"168 470 CURVE"
);
}
);
width = 619;
}
);
unicode = 00DF;
},
{
color = 6;
glyphname = t;
lastChange = "2022-01-27 14:35:35 +0000";
layers = (
{
associatedMasterId = "B977A21F-8DFA-4EFB-8109-A765B080AA93";
layerId = "E3DCEFA0-8403-4D0F-893C-EF64BA96B068";
name = img;
width = 391;
},
{
hints = (
{
place = "{86, 89}";
type = Stem;
},
{
horizontal = 1;
place = "{-12, 80}";
type = Stem;
},
{
horizontal = 1;
place = "{423, 78}";
type = Stem;
},
{
horizontal = 1;
place = "{423, 242}";
type = Stem;
}
);
layerId = "B977A21F-8DFA-4EFB-8109-A765B080AA93";
paths = (
{
closed = 1;
nodes = (
"42 423 LINE",
"131 423 LINE",
"90 184 LINE SMOOTH",
"87 164 OFFCURVE",
"86 150 OFFCURVE",
"86 135 CURVE SMOOTH",
"86 31 OFFCURVE",
"161 -12 OFFCURVE",
"236 -12 CURVE SMOOTH",
"282 -12 OFFCURVE",
"322 1 OFFCURVE",
"347 16 CURVE",
"336 94 LINE",
"314 82 OFFCURVE",
"289 68 OFFCURVE",
"251 68 CURVE SMOOTH",
"205 68 OFFCURVE",
"175 95 OFFCURVE",
"175 142 CURVE SMOOTH",
"175 153 OFFCURVE",
"176 165 OFFCURVE",
"179 180 CURVE SMOOTH",
"221 423 LINE",
"366 423 LINE",
"379 501 LINE",
"235 501 LINE",
"264 665 LINE",
"195 665 LINE",
"147 501 LINE",
"55 501 LINE"
);
}
);
width = 391;
}
);
unicode = 0074;
},
{
color = 6;
glyphname = u;
lastChange = "2022-01-27 14:35:35 +0000";
layers = (
{
associatedMasterId = "B977A21F-8DFA-4EFB-8109-A765B080AA93";
layerId = "E3DCEFA0-8403-4D0F-893C-EF64BA96B068";
name = img;
width = 579;
},
{
hints = (
{
place = "{47, 90}";
type = Stem;
},
{
place = "{385, 84}";
type = Stem;
},
{
horizontal = 1;
place = "{-12, 80}";
type = Stem;
},
{
horizontal = 1;
place = "{-5, -20}";
target = down;
type = TopGhost;
},
{
horizontal = 1;
place = "{520, -20}";
target = down;
type = TopGhost;
}
);
layerId = "B977A21F-8DFA-4EFB-8109-A765B080AA93";
paths = (
{
closed = 1;
nodes = (
"274 -12 OFFCURVE",
"337 31 OFFCURVE",
"385 113 CURVE",
"385 104 LINE SMOOTH",
"385 29 OFFCURVE",
"424 -5 OFFCURVE",
"496 -5 CURVE",
"527 65 LINE",
"492 65 OFFCURVE",
"469 79 OFFCURVE",
"469 116 CURVE SMOOTH",
"469 125 OFFCURVE",
"470 134 OFFCURVE",
"471 141 CURVE SMOOTH",
"537 520 LINE",
"447 520 LINE",
"402 265 LINE SMOOTH",
"380 141 OFFCURVE",
"299 68 OFFCURVE",
"224 68 CURVE SMOOTH",
"177 68 OFFCURVE",
"137 97 OFFCURVE",
"137 157 CURVE SMOOTH",
"137 169 OFFCURVE",
"138 178 OFFCURVE",
"140 191 CURVE SMOOTH",
"198 520 LINE",
"108 520 LINE",
"51 189 LINE SMOOTH",
"48 169 OFFCURVE",
"47 151 OFFCURVE",
"47 134 CURVE SMOOTH",
"47 44 OFFCURVE",
"114 -12 OFFCURVE",
"194 -12 CURVE SMOOTH"
);
}
);
width = 579;
}
);
unicode = 0075;
},
{
color = 6;
glyphname = v;
lastChange = "2022-01-27 14:35:35 +0000";
layers = (
{
associatedMasterId = "B977A21F-8DFA-4EFB-8109-A765B080AA93";
layerId = "E3DCEFA0-8403-4D0F-893C-EF64BA96B068";
name = img;
width = 509;
},
{
hints = (
{
horizontal = 1;
place = "{0, 21}";
target = up;
type = BottomGhost;
},
{
horizontal = 1;
place = "{530, -20}";
target = down;
type = TopGhost;
}
);
layerId = "B977A21F-8DFA-4EFB-8109-A765B080AA93";
paths = (
{
closed = 1;
nodes = (
"162 0 LINE",
"255 0 LINE",
"547 487 LINE",
"474 530 LINE",
"225 100 LINE",
"122 530 LINE",
"37 508 LINE"
);
}
);
width = 509;
}
);
unicode = 0076;
},
{
color = 6;
glyphname = w;
lastChange = "2022-01-27 14:35:35 +0000";
layers = (
{
hints = (
{
horizontal = 1;
place = "{0, 21}";
target = up;
type = BottomGhost;
},
{
horizontal = 1;
place = "{525, -20}";
target = down;
type = TopGhost;
}
);
layerId = "B977A21F-8DFA-4EFB-8109-A765B080AA93";
paths = (
{
closed = 1;
nodes = (
"229 0 LINE",
"418 382 LINE",
"470 0 LINE",
"569 0 LINE",
"818 487 LINE",
"744 525 LINE",
"534 100 LINE",
"482 483 LINE",
"387 483 LINE",
"198 100 LINE",
"139 525 LINE",
"52 513 LINE",
"130 0 LINE"
);
}
);
width = 790;
}
);
unicode = 0077;
},
{
color = 6;
glyphname = x;
lastChange = "2022-01-27 14:35:35 +0000";
layers = (
{
hints = (
{
horizontal = 1;
place = "{-9, 21}";
target = up;
type = BottomGhost;
},
{
horizontal = 1;
place = "{531, -20}";
target = down;
type = TopGhost;
}
);
layerId = "B977A21F-8DFA-4EFB-8109-A765B080AA93";
paths = (
{
closed = 1;
nodes = (
"-18 51 LINE",
"41 -6 LINE",
"242 207 LINE",
"384 -9 LINE",
"459 46 LINE",
"299 264 LINE",
"498 467 LINE",
"436 525 LINE",
"254 325 LINE",
"122 531 LINE",
"44 473 LINE",
"196 269 LINE"
);
}
);
width = 495;
}
);
unicode = 0078;
},
{
color = 6;
glyphname = y;
lastChange = "2022-01-27 14:35:35 +0000";
layers = (
{
associatedMasterId = "B977A21F-8DFA-4EFB-8109-A765B080AA93";
layerId = "E3DCEFA0-8403-4D0F-893C-EF64BA96B068";
name = img;
width = 561;
},
{
hints = (
{
horizontal = 1;
place = "{-232, 78}";
type = Stem;
},
{
horizontal = 1;
place = "{0, 80}";
type = Stem;
},
{
horizontal = 1;
place = "{520, -20}";
target = down;
type = TopGhost;
},
{
place = "{50, 90}";
type = Stem;
}
);
layerId = "B977A21F-8DFA-4EFB-8109-A765B080AA93";
paths = (
{
closed = 1;
nodes = (
"179 80 OFFCURVE",
"140 109 OFFCURVE",
"140 169 CURVE SMOOTH",
"140 181 OFFCURVE",
"141 191 OFFCURVE",
"143 203 CURVE SMOOTH",
"198 520 LINE",
"108 520 LINE",
"54 201 LINE SMOOTH",
"51 180 OFFCURVE",
"50 160 OFFCURVE",
"50 146 CURVE SMOOTH",
"50 56 OFFCURVE",
"116 0 OFFCURVE",
"195 0 CURVE SMOOTH",
"275 0 OFFCURVE",
"337 51 OFFCURVE",
"377 115 CURVE",
"358 9 LINE SMOOTH",
"337 -110 OFFCURVE",
"283 -154 OFFCURVE",
"216 -154 CURVE SMOOTH",
"163 -154 OFFCURVE",
"120 -132 OFFCURVE",
"87 -87 CURVE",
"17 -139 LINE",
"57 -189 OFFCURVE",
"119 -232 OFFCURVE",
"210 -232 CURVE SMOOTH",
"303 -232 OFFCURVE",
"411 -189 OFFCURVE",
"443 -6 CURVE SMOOTH",
"534 520 LINE",
"444 520 LINE",
"403 284 LINE SMOOTH",
"380 154 OFFCURVE",
"300 80 OFFCURVE",
"225 80 CURVE SMOOTH"
);
}
);
width = 561;
}
);
unicode = 0079;
},
{
color = 6;
glyphname = z;
lastChange = "2022-01-27 14:35:35 +0000";
layers = (
{
associatedMasterId = "B977A21F-8DFA-4EFB-8109-A765B080AA93";
layerId = "E3DCEFA0-8403-4D0F-893C-EF64BA96B068";
name = img;
width = 476;
},
{
hints = (
{
horizontal = 1;
place = "{0, 80}";
type = Stem;
},
{
horizontal = 1;
place = "{442, 78}";
type = Stem;
}
);
layerId = "B977A21F-8DFA-4EFB-8109-A765B080AA93";
paths = (
{
closed = 1;
nodes = (
"75 442 LINE",
"343 442 LINE",
"10 71 LINE",
"-3 0 LINE",
"399 0 LINE",
"414 80 LINE",
"126 80 LINE",
"462 451 LINE",
"474 520 LINE",
"88 520 LINE"
);
}
);
width = 476;
}
);
unicode = 007A;
},
{
color = 6;
glyphname = ordfeminine;
lastChange = "2022-01-27 14:35:35 +0000";
layers = (
{
associatedMasterId = "B977A21F-8DFA-4EFB-8109-A765B080AA93";
layerId = "E3DCEFA0-8403-4D0F-893C-EF64BA96B068";
name = img;
width = 600;
},
{
hints = (
{
horizontal = 1;
place = "{132, 82}";
type = Stem;
},
{
horizontal = 1;
place = "{323, 73}";
type = Stem;
},
{
horizontal = 1;
place = "{637, 70}";
type = Stem;
},
{
place = "{123, 88}";
type = Stem;
},
{
place = "{393, 76}";
type = Stem;
}
);
layerId = "B977A21F-8DFA-4EFB-8109-A765B080AA93";
paths = (
{
closed = 1;
nodes = (
"451 132 LINE",
"466 214 LINE",
"126 214 LINE",
"111 132 LINE"
);
},
{
closed = 1;
nodes = (
"123 376 OFFCURVE",
"195 323 OFFCURVE",
"262 323 CURVE SMOOTH",
"321 323 OFFCURVE",
"363 356 OFFCURVE",
"393 406 CURVE",
"393 354 OFFCURVE",
"429 326 OFFCURVE",
"484 326 CURVE",
"513 390 LINE",
"484 390 OFFCURVE",
"469 404 OFFCURVE",
"469 427 CURVE SMOOTH",
"469 435 OFFCURVE",
"470 443 OFFCURVE",
"472 452 CURVE SMOOTH",
"519 683 LINE",
"482 696 OFFCURVE",
"437 707 OFFCURVE",
"378 707 CURVE SMOOTH",
"227 707 OFFCURVE",
"123 613 OFFCURVE",
"123 472 CURVE SMOOTH"
);
},
{
closed = 1;
nodes = (
"246 396 OFFCURVE",
"211 426 OFFCURVE",
"211 482 CURVE SMOOTH",
"211 572 OFFCURVE",
"277 637 OFFCURVE",
"371 637 CURVE SMOOTH",
"392 637 OFFCURVE",
"406 635 OFFCURVE",
"419 632 CURVE",
"400 535 LINE SMOOTH",
"380 432 OFFCURVE",
"331 396 OFFCURVE",
"287 396 CURVE SMOOTH"
);
}
);
width = 600;
}
);
unicode = 00AA;
},
{
color = 6;
glyphname = ordmasculine;
lastChange = "2022-01-27 14:35:35 +0000";
layers = (
{
associatedMasterId = "B977A21F-8DFA-4EFB-8109-A765B080AA93";
layerId = "E3DCEFA0-8403-4D0F-893C-EF64BA96B068";
name = img;
width = 610;
},
{
hints = (
{
horizontal = 1;
place = "{132, 82}";
type = Stem;
},
{
horizontal = 1;
place = "{322, 73}";
type = Stem;
},
{
horizontal = 1;
place = "{634, 73}";
type = Stem;
},
{
place = "{135, 86}";
type = Stem;
},
{
place = "{457, 86}";
type = Stem;
}
);
layerId = "B977A21F-8DFA-4EFB-8109-A765B080AA93";
paths = (
{
closed = 1;
nodes = (
"221 707 OFFCURVE",
"135 612 OFFCURVE",
"135 489 CURVE SMOOTH",
"135 391 OFFCURVE",
"209 322 OFFCURVE",
"322 322 CURVE SMOOTH",
"457 322 OFFCURVE",
"543 417 OFFCURVE",
"543 540 CURVE SMOOTH",
"543 638 OFFCURVE",
"469 707 OFFCURVE",
"356 707 CURVE SMOOTH"
);
},
{
closed = 1;
nodes = (
"457 132 LINE",
"472 214 LINE",
"132 214 LINE",
"117 132 LINE"
);
},
{
closed = 1;
nodes = (
"417 634 OFFCURVE",
"457 590 OFFCURVE",
"457 534 CURVE SMOOTH",
"457 456 OFFCURVE",
"407 395 OFFCURVE",
"326 395 CURVE SMOOTH",
"261 395 OFFCURVE",
"221 439 OFFCURVE",
"221 495 CURVE SMOOTH",
"221 573 OFFCURVE",
"271 634 OFFCURVE",
"352 634 CURVE SMOOTH"
);
}
);
width = 610;
}
);
unicode = 00BA;
},
{
color = 6;
glyphname = zero;
lastChange = "2022-01-27 14:35:35 +0000";
layers = (
{
hints = (
{
horizontal = 1;
place = "{-12, 82}";
type = Stem;
},
{
horizontal = 1;
place = "{630, 82}";
type = Stem;
},
{
place = "{56, 97}";
type = Stem;
},
{
place = "{467, 97}";
type = Stem;
}
);
layerId = "B977A21F-8DFA-4EFB-8109-A765B080AA93";
paths = (
{
closed = 1;
nodes = (
"193 70 OFFCURVE",
"153 132 OFFCURVE",
"153 244 CURVE SMOOTH",
"153 447 OFFCURVE",
"222 630 OFFCURVE",
"349 630 CURVE SMOOTH",
"427 630 OFFCURVE",
"467 568 OFFCURVE",
"467 456 CURVE SMOOTH",
"467 253 OFFCURVE",
"398 70 OFFCURVE",
"271 70 CURVE SMOOTH"
);
},
{
closed = 1;
nodes = (
"470 -12 OFFCURVE",
"564 225 OFFCURVE",
"564 450 CURVE SMOOTH",
"564 611 OFFCURVE",
"492 712 OFFCURVE",
"359 712 CURVE SMOOTH",
"150 712 OFFCURVE",
"56 475 OFFCURVE",
"56 250 CURVE SMOOTH",
"56 89 OFFCURVE",
"128 -12 OFFCURVE",
"261 -12 CURVE SMOOTH"
);
}
);
width = 600;
}
);
unicode = 0030;
},
{
color = 6;
glyphname = one;
lastChange = "2022-01-27 14:35:35 +0000";
layers = (
{
hints = (
{
horizontal = 1;
place = "{0, 80}";
type = Stem;
},
{
horizontal = 1;
place = "{700, -20}";
target = down;
type = TopGhost;
}
);
layerId = "B977A21F-8DFA-4EFB-8109-A765B080AA93";
paths = (
{
closed = 1;
nodes = (
"111 80 LINE",
"97 0 LINE",
"449 0 LINE",
"463 80 LINE",
"344 80 LINE",
"453 700 LINE",
"387 700 LINE",
"153 551 LINE",
"194 479 LINE",
"343 583 LINE",
"254 80 LINE"
);
}
);
width = 600;
}
);
unicode = 0031;
},
{
color = 6;
glyphname = two;
lastChange = "2022-01-27 14:35:35 +0000";
layers = (
{
hints = (
{
horizontal = 1;
place = "{0, 82}";
type = Stem;
},
{
horizontal = 1;
place = "{632, 80}";
type = Stem;
},
{
place = "{442, 97}";
type = Stem;
}
);
layerId = "B977A21F-8DFA-4EFB-8109-A765B080AA93";
paths = (
{
closed = 1;
nodes = (
"539 641 OFFCURVE",
"462 712 OFFCURVE",
"349 712 CURVE SMOOTH",
"266 712 OFFCURVE",
"204 683 OFFCURVE",
"150 639 CURVE",
"192 571 LINE",
"237 609 OFFCURVE",
"281 632 OFFCURVE",
"338 632 CURVE SMOOTH",
"397 632 OFFCURVE",
"442 595 OFFCURVE",
"442 536 CURVE SMOOTH",
"442 381 OFFCURVE",
"61 315 OFFCURVE",
"61 37 CURVE SMOOTH",
"61 25 OFFCURVE",
"62 10 OFFCURVE",
"64 0 CURVE",
"466 0 LINE",
"480 82 LINE",
"162 82 LINE",
"200 281 OFFCURVE",
"539 333 OFFCURVE",
"539 543 CURVE SMOOTH"
);
}
);
width = 600;
}
);
unicode = 0032;
},
{
color = 6;
glyphname = three;
lastChange = "2022-01-27 14:35:35 +0000";
layers = (
{
associatedMasterId = "B977A21F-8DFA-4EFB-8109-A765B080AA93";
layerId = "E3DCEFA0-8403-4D0F-893C-EF64BA96B068";
name = img;
width = 600;
},
{
hints = (
{
place = "{387, 97}";
type = Stem;
},
{
place = "{421, 63}";
type = Stem;
},
{
place = "{421, 93}";
type = Stem;
},
{
horizontal = 1;
place = "{-12, 80}";
type = Stem;
},
{
horizontal = 1;
place = "{328, 73}";
type = Stem;
},
{
horizontal = 1;
place = "{634, 78}";
type = Stem;
}
);
layerId = "B977A21F-8DFA-4EFB-8109-A765B080AA93";
paths = (
{
closed = 1;
nodes = (
"212 328 LINE SMOOTH",
"330 328 OFFCURVE",
"387 269 OFFCURVE",
"387 196 CURVE SMOOTH",
"387 113 OFFCURVE",
"320 68 OFFCURVE",
"229 68 CURVE SMOOTH",
"169 68 OFFCURVE",
"122 89 OFFCURVE",
"89 117 CURVE",
"36 46 LINE",
"82 10 OFFCURVE",
"153 -12 OFFCURVE",
"229 -12 CURVE SMOOTH",
"377 -12 OFFCURVE",
"484 71 OFFCURVE",
"484 200 CURVE SMOOTH",
"484 278 OFFCURVE",
"437 337 OFFCURVE",
"353 367 CURVE",
"458 399 OFFCURVE",
"514 454 OFFCURVE",
"514 548 CURVE SMOOTH",
"514 634 OFFCURVE",
"442 712 OFFCURVE",
"320 712 CURVE SMOOTH",
"242 712 OFFCURVE",
"183 687 OFFCURVE",
"136 654 CURVE",
"171 586 LINE",
"206 611 OFFCURVE",
"248 634 OFFCURVE",
"309 634 CURVE SMOOTH",
"374 634 OFFCURVE",
"421 594 OFFCURVE",
"421 533 CURVE SMOOTH",
"421 451 OFFCURVE",
"336 401 OFFCURVE",
"205 401 CURVE SMOOTH",
"173 401 LINE",
"161 328 LINE"
);
}
);
width = 600;
}
);
unicode = 0033;
},
{
color = 6;
glyphname = four;
lastChange = "2022-01-27 14:35:35 +0000";
layers = (
{
associatedMasterId = "B977A21F-8DFA-4EFB-8109-A765B080AA93";
layerId = "E3DCEFA0-8403-4D0F-893C-EF64BA96B068";
name = img;
width = 600;
},
{
hints = (
{
horizontal = 1;
place = "{0, 231}";
type = Stem;
},
{
horizontal = 1;
place = "{151, 80}";
type = Stem;
},
{
horizontal = 1;
place = "{707, -20}";
target = down;
type = TopGhost;
}
);
layerId = "B977A21F-8DFA-4EFB-8109-A765B080AA93";
paths = (
{
closed = 1;
nodes = (
"519 151 LINE",
"533 231 LINE",
"447 231 LINE",
"483 430 LINE",
"395 430 LINE",
"359 231 LINE",
"164 231 LINE",
"429 674 LINE",
"352 707 LINE",
"59 221 LINE",
"47 151 LINE",
"345 151 LINE",
"319 0 LINE",
"407 0 LINE",
"433 151 LINE"
);
}
);
width = 600;
}
);
unicode = 0034;
},
{
color = 6;
glyphname = five;
lastChange = "2022-01-27 14:35:35 +0000";
layers = (
{
associatedMasterId = "B977A21F-8DFA-4EFB-8109-A765B080AA93";
layerId = "E3DCEFA0-8403-4D0F-893C-EF64BA96B068";
name = img;
width = 600;
},
{
hints = (
{
horizontal = 1;
place = "{-12, 82}";
type = Stem;
},
{
horizontal = 1;
place = "{348, 81}";
type = Stem;
},
{
horizontal = 1;
place = "{619, 81}";
type = Stem;
},
{
place = "{408, 97}";
type = Stem;
}
);
layerId = "B977A21F-8DFA-4EFB-8109-A765B080AA93";
paths = (
{
closed = 1;
nodes = (
"41 45 LINE",
"85 10 OFFCURVE",
"155 -12 OFFCURVE",
"235 -12 CURVE SMOOTH",
"396 -12 OFFCURVE",
"505 86 OFFCURVE",
"505 229 CURVE SMOOTH",
"505 337 OFFCURVE",
"425 429 OFFCURVE",
"261 429 CURVE SMOOTH",
"242 429 LINE",
"275 619 LINE",
"535 619 LINE",
"549 700 LINE",
"204 700 LINE",
"143 348 LINE",
"242 348 LINE SMOOTH",
"350 348 OFFCURVE",
"408 293 OFFCURVE",
"408 216 CURVE SMOOTH",
"408 125 OFFCURVE",
"336 70 OFFCURVE",
"240 70 CURVE SMOOTH",
"181 70 OFFCURVE",
"131 90 OFFCURVE",
"95 122 CURVE"
);
}
);
width = 600;
}
);
unicode = 0035;
},
{
color = 6;
glyphname = six;
lastChange = "2022-01-27 14:35:35 +0000";
layers = (
{
associatedMasterId = "B977A21F-8DFA-4EFB-8109-A765B080AA93";
layerId = "E3DCEFA0-8403-4D0F-893C-EF64BA96B068";
name = img;
width = 600;
},
{
hints = (
{
horizontal = 1;
place = "{-12, 80}";
type = Stem;
},
{
horizontal = 1;
place = "{368, 75}";
type = Stem;
},
{
horizontal = 1;
place = "{620, 82}";
type = Stem;
},
{
place = "{65, 93}";
type = Stem;
},
{
place = "{437, 93}";
type = Stem;
}
);
layerId = "B977A21F-8DFA-4EFB-8109-A765B080AA93";
paths = (
{
closed = 1;
nodes = (
"502 620 OFFCURVE",
"518 619 OFFCURVE",
"529 618 CURVE",
"543 700 LINE",
"530 701 OFFCURVE",
"507 702 OFFCURVE",
"495 702 CURVE SMOOTH",
"206 702 OFFCURVE",
"65 462 OFFCURVE",
"65 226 CURVE SMOOTH",
"65 74 OFFCURVE",
"154 -12 OFFCURVE",
"281 -12 CURVE SMOOTH",
"431 -12 OFFCURVE",
"530 103 OFFCURVE",
"530 250 CURVE SMOOTH",
"530 363 OFFCURVE",
"451 443 OFFCURVE",
"343 443 CURVE SMOOTH",
"275 443 OFFCURVE",
"220 416 OFFCURVE",
"182 373 CURVE",
"229 536 OFFCURVE",
"334 620 OFFCURVE",
"492 620 CURVE SMOOTH"
);
},
{
closed = 1;
nodes = (
"386 368 OFFCURVE",
"437 317 OFFCURVE",
"437 241 CURVE SMOOTH",
"437 145 OFFCURVE",
"371 68 OFFCURVE",
"285 68 CURVE SMOOTH",
"211 68 OFFCURVE",
"158 131 OFFCURVE",
"158 228 CURVE SMOOTH",
"158 249 OFFCURVE",
"159 265 OFFCURVE",
"161 281 CURVE",
"209 341 OFFCURVE",
"257 368 OFFCURVE",
"318 368 CURVE SMOOTH"
);
}
);
width = 600;
}
);
unicode = 0036;
},
{
color = 6;
glyphname = seven;
lastChange = "2022-01-27 14:35:35 +0000";
layers = (
{
associatedMasterId = "B977A21F-8DFA-4EFB-8109-A765B080AA93";
layerId = "E3DCEFA0-8403-4D0F-893C-EF64BA96B068";
name = img;
width = 600;
},
{
hints = (
{
horizontal = 1;
place = "{618, 82}";
type = Stem;
},
{
horizontal = 1;
place = "{0, 21}";
target = up;
type = BottomGhost;
}
);
layerId = "B977A21F-8DFA-4EFB-8109-A765B080AA93";
paths = (
{
closed = 1;
nodes = (
"229 0 LINE",
"287 314 OFFCURVE",
"356 441 OFFCURVE",
"580 628 CURVE",
"592 700 LINE",
"149 700 LINE",
"135 618 LINE",
"468 618 LINE",
"272 459 OFFCURVE",
"185 337 OFFCURVE",
"128 0 CURVE"
);
}
);
width = 600;
}
);
unicode = 0037;
},
{
color = 6;
glyphname = eight;
lastChange = "2022-01-27 14:35:35 +0000";
layers = (
{
associatedMasterId = "B977A21F-8DFA-4EFB-8109-A765B080AA93";
layerId = "E3DCEFA0-8403-4D0F-893C-EF64BA96B068";
name = img;
width = 600;
},
{
hints = (
{
place = "{41, 95}";
type = Stem;
},
{
place = "{139, 90}";
type = Stem;
},
{
place = "{441, 95}";
type = Stem;
},
{
place = "{468, 90}";
type = Stem;
},
{
horizontal = 1;
place = "{-12, 80}";
type = Stem;
},
{
horizontal = 1;
place = "{638, 74}";
type = Stem;
}
);
layerId = "B977A21F-8DFA-4EFB-8109-A765B080AA93";
paths = (
{
closed = 1;
nodes = (
"106 342 OFFCURVE",
"41 274 OFFCURVE",
"41 169 CURVE SMOOTH",
"41 63 OFFCURVE",
"139 -12 OFFCURVE",
"270 -12 CURVE SMOOTH",
"419 -12 OFFCURVE",
"536 70 OFFCURVE",
"536 201 CURVE SMOOTH",
"536 279 OFFCURVE",
"493 331 OFFCURVE",
"403 374 CURVE",
"504 411 OFFCURVE",
"558 461 OFFCURVE",
"558 549 CURVE SMOOTH",
"558 633 OFFCURVE",
"480 712 OFFCURVE",
"358 712 CURVE SMOOTH",
"238 712 OFFCURVE",
"139 635 OFFCURVE",
"139 531 CURVE SMOOTH",
"139 467 OFFCURVE",
"170 424 OFFCURVE",
"234 384 CURVE"
);
},
{
closed = 1;
nodes = (
"197 68 OFFCURVE",
"136 118 OFFCURVE",
"136 183 CURVE SMOOTH",
"136 269 OFFCURVE",
"219 320 OFFCURVE",
"306 339 CURVE",
"392 307 OFFCURVE",
"441 255 OFFCURVE",
"441 197 CURVE SMOOTH",
"441 117 OFFCURVE",
"364 68 OFFCURVE",
"280 68 CURVE SMOOTH"
);
},
{
closed = 1;
nodes = (
"422 638 OFFCURVE",
"468 592 OFFCURVE",
"468 538 CURVE SMOOTH",
"468 479 OFFCURVE",
"408 432 OFFCURVE",
"335 411 CURVE",
"275 440 OFFCURVE",
"229 481 OFFCURVE",
"229 532 CURVE SMOOTH",
"229 602 OFFCURVE",
"291 638 OFFCURVE",
"353 638 CURVE SMOOTH"
);
}
);
width = 600;
}
);
unicode = 0038;
},
{
color = 6;
glyphname = nine;
lastChange = "2022-01-27 14:35:35 +0000";
layers = (
{
associatedMasterId = "B977A21F-8DFA-4EFB-8109-A765B080AA93";
layerId = "E3DCEFA0-8403-4D0F-893C-EF64BA96B068";
name = img;
width = 600;
},
{
hints = (
{
horizontal = 1;
place = "{-12, 82}";
type = Stem;
},
{
horizontal = 1;
place = "{270, 74}";
type = Stem;
},
{
horizontal = 1;
place = "{632, 80}";
type = Stem;
},
{
place = "{91, 93}";
type = Stem;
},
{
place = "{452, 93}";
type = Stem;
}
);
layerId = "B977A21F-8DFA-4EFB-8109-A765B080AA93";
paths = (
{
closed = 1;
nodes = (
"196 70 OFFCURVE",
"158 92 OFFCURVE",
"125 130 CURVE",
"56 66 LINE",
"99 20 OFFCURVE",
"162 -12 OFFCURVE",
"239 -12 CURVE SMOOTH",
"456 -12 OFFCURVE",
"545 240 OFFCURVE",
"545 490 CURVE SMOOTH",
"545 562 OFFCURVE",
"526 612 OFFCURVE",
"490 651 CURVE SMOOTH",
"453 691 OFFCURVE",
"403 712 OFFCURVE",
"337 712 CURVE SMOOTH",
"196 712 OFFCURVE",
"91 603 OFFCURVE",
"91 466 CURVE SMOOTH",
"91 343 OFFCURVE",
"180 270 OFFCURVE",
"284 270 CURVE SMOOTH",
"338 270 OFFCURVE",
"392 293 OFFCURVE",
"437 335 CURVE",
"407 151 OFFCURVE",
"327 70 OFFCURVE",
"246 70 CURVE SMOOTH"
);
},
{
closed = 1;
nodes = (
"452 455 OFFCURVE",
"451 439 OFFCURVE",
"449 415 CURVE",
"408 369 OFFCURVE",
"354 344 OFFCURVE",
"303 344 CURVE SMOOTH",
"231 344 OFFCURVE",
"184 395 OFFCURVE",
"184 472 CURVE SMOOTH",
"184 564 OFFCURVE",
"248 632 OFFCURVE",
"329 632 CURVE SMOOTH",
"403 632 OFFCURVE",
"452 578 OFFCURVE",
"452 478 CURVE SMOOTH"
);
}
);
width = 600;
}
);
unicode = 0039;
},
{
color = 6;
glyphname = onesuperior;
lastChange = "2022-01-27 14:35:35 +0000";
layers = (
{
associatedMasterId = "B977A21F-8DFA-4EFB-8109-A765B080AA93";
layerId = "E3DCEFA0-8403-4D0F-893C-EF64BA96B068";
name = img;
width = 450;
},
{
hints = (
{
horizontal = 1;
place = "{276, 65}";
type = Stem;
},
{
horizontal = 1;
place = "{700, -20}";
target = down;
type = TopGhost;
}
);
layerId = "B977A21F-8DFA-4EFB-8109-A765B080AA93";
paths = (
{
closed = 1;
nodes = (
"122 341 LINE",
"110 276 LINE",
"366 276 LINE",
"380 341 LINE",
"299 341 LINE",
"373 700 LINE",
"314 700 LINE",
"146 608 LINE",
"185 548 LINE",
"271 602 LINE",
"219 341 LINE"
);
}
);
width = 450;
}
);
unicode = 00B9;
},
{
color = 6;
glyphname = twosuperior;
lastChange = "2022-01-27 14:35:35 +0000";
layers = (
{
associatedMasterId = "B977A21F-8DFA-4EFB-8109-A765B080AA93";
layerId = "E3DCEFA0-8403-4D0F-893C-EF64BA96B068";
name = img;
width = 450;
},
{
hints = (
{
horizontal = 1;
place = "{276, 67}";
type = Stem;
},
{
horizontal = 1;
place = "{642, 65}";
type = Stem;
},
{
place = "{342, 84}";
type = Stem;
}
);
layerId = "B977A21F-8DFA-4EFB-8109-A765B080AA93";
paths = (
{
closed = 1;
nodes = (
"426 659 OFFCURVE",
"371 707 OFFCURVE",
"290 707 CURVE SMOOTH",
"231 707 OFFCURVE",
"186 687 OFFCURVE",
"144 658 CURVE",
"181 602 LINE",
"214 628 OFFCURVE",
"247 642 OFFCURVE",
"282 642 CURVE SMOOTH",
"315 642 OFFCURVE",
"342 622 OFFCURVE",
"342 594 CURVE SMOOTH",
"342 499 OFFCURVE",
"85 488 OFFCURVE",
"85 308 CURVE SMOOTH",
"85 298 OFFCURVE",
"86 286 OFFCURVE",
"88 276 CURVE",
"376 276 LINE",
"389 343 LINE",
"177 343 LINE",
"208 453 OFFCURVE",
"426 457 OFFCURVE",
"426 597 CURVE SMOOTH"
);
}
);
width = 450;
}
);
unicode = 00B2;
},
{
color = 6;
glyphname = threesuperior;
lastChange = "2022-01-27 14:35:35 +0000";
layers = (
{
associatedMasterId = "B977A21F-8DFA-4EFB-8109-A765B080AA93";
layerId = "E3DCEFA0-8403-4D0F-893C-EF64BA96B068";
name = img;
width = 450;
},
{
hints = (
{
place = "{314, 83}";
type = Stem;
},
{
place = "{337, 60}";
type = Stem;
},
{
place = "{337, 81}";
type = Stem;
},
{
horizontal = 1;
place = "{270, 66}";
type = Stem;
},
{
horizontal = 1;
place = "{467, 60}";
type = Stem;
},
{
horizontal = 1;
place = "{643, 64}";
type = Stem;
}
);
layerId = "B977A21F-8DFA-4EFB-8109-A765B080AA93";
paths = (
{
closed = 1;
nodes = (
"331 270 OFFCURVE",
"397 322 OFFCURVE",
"397 403 CURVE SMOOTH",
"397 445 OFFCURVE",
"372 476 OFFCURVE",
"327 497 CURVE",
"385 518 OFFCURVE",
"418 549 OFFCURVE",
"418 603 CURVE SMOOTH",
"418 657 OFFCURVE",
"364 707 OFFCURVE",
"277 707 CURVE SMOOTH",
"224 707 OFFCURVE",
"177 690 OFFCURVE",
"140 667 CURVE",
"174 613 LINE",
"200 629 OFFCURVE",
"229 643 OFFCURVE",
"269 643 CURVE SMOOTH",
"310 643 OFFCURVE",
"337 623 OFFCURVE",
"337 595 CURVE SMOOTH",
"337 551 OFFCURVE",
"280 527 OFFCURVE",
"201 527 CURVE SMOOTH",
"170 527 LINE",
"159 467 LINE",
"201 467 LINE SMOOTH",
"274 467 OFFCURVE",
"314 440 OFFCURVE",
"314 403 CURVE SMOOTH",
"314 358 OFFCURVE",
"276 336 OFFCURVE",
"219 336 CURVE SMOOTH",
"181 336 OFFCURVE",
"147 349 OFFCURVE",
"120 367 CURVE",
"72 311 LINE",
"110 285 OFFCURVE",
"163 270 OFFCURVE",
"216 270 CURVE SMOOTH"
);
}
);
width = 450;
}
);
unicode = 00B3;
},
{
color = 6;
glyphname = foursuperior;
lastChange = "2022-01-27 14:35:35 +0000";
layers = (
{
layerId = "B977A21F-8DFA-4EFB-8109-A765B080AA93";
paths = (
{
closed = 1;
nodes = (
"273 276 LINE",
"350 276 LINE",
"365 363 LINE",
"422 363 LINE",
"434 429 LINE",
"377 429 LINE",
"397 543 LINE",
"320 543 LINE",
"300 429 LINE",
"188 429 LINE",
"358 680 LINE",
"290 706 LINE",
"93 415 LINE",
"84 363 LINE",
"288 363 LINE"
);
}
);
width = 466;
}
);
leftMetricsKey = four;
rightMetricsKey = four;
unicode = 2074;
},
{
color = 6;
glyphname = fraction;
lastChange = "2022-01-27 14:35:35 +0000";
layers = (
{
layerId = "B977A21F-8DFA-4EFB-8109-A765B080AA93";
paths = (
{
closed = 1;
nodes = (
"224 -39 LINE",
"787 700 LINE",
"732 740 LINE",
"169 1 LINE"
);
}
);
width = 909;
}
);
unicode = 2044;
},
{
color = 6;
glyphname = onehalf;
lastChange = "2022-01-27 14:35:35 +0000";
layers = (
{
associatedMasterId = "B977A21F-8DFA-4EFB-8109-A765B080AA93";
layerId = "E3DCEFA0-8403-4D0F-893C-EF64BA96B068";
name = img;
width = 900;
},
{
hints = (
{
horizontal = 1;
place = "{0, 67}";
type = Stem;
},
{
horizontal = 1;
place = "{276, 65}";
type = Stem;
},
{
horizontal = 1;
place = "{366, 65}";
type = Stem;
},
{
horizontal = 1;
place = "{-39, 21}";
target = up;
type = BottomGhost;
},
{
horizontal = 1;
place = "{740, -20}";
target = down;
type = TopGhost;
},
{
horizontal = 1;
place = "{700, -20}";
target = down;
type = TopGhost;
},
{
place = "{782, 84}";
type = Stem;
}
);
layerId = "B977A21F-8DFA-4EFB-8109-A765B080AA93";
paths = (
{
closed = 1;
nodes = (
"205 -39 LINE",
"768 700 LINE",
"713 740 LINE",
"150 1 LINE"
);
},
{
closed = 1;
nodes = (
"46 341 LINE",
"34 276 LINE",
"290 276 LINE",
"304 341 LINE",
"223 341 LINE",
"297 700 LINE",
"238 700 LINE",
"70 608 LINE",
"109 548 LINE",
"195 602 LINE",
"143 341 LINE"
);
},
{
closed = 1;
nodes = (
"866 383 OFFCURVE",
"811 431 OFFCURVE",
"730 431 CURVE SMOOTH",
"671 431 OFFCURVE",
"626 411 OFFCURVE",
"584 382 CURVE",
"621 326 LINE",
"654 352 OFFCURVE",
"687 366 OFFCURVE",
"722 366 CURVE SMOOTH",
"755 366 OFFCURVE",
"782 346 OFFCURVE",
"782 318 CURVE SMOOTH",
"782 223 OFFCURVE",
"525 212 OFFCURVE",
"525 32 CURVE SMOOTH",
"525 22 OFFCURVE",
"526 10 OFFCURVE",
"528 0 CURVE",
"816 0 LINE",
"829 67 LINE",
"617 67 LINE",
"648 177 OFFCURVE",
"866 181 OFFCURVE",
"866 321 CURVE SMOOTH"
);
}
);
width = 900;
}
);
unicode = 00BD;
},
{
color = 6;
glyphname = onequarter;
lastChange = "2022-01-27 14:35:35 +0000";
layers = (
{
associatedMasterId = "B977A21F-8DFA-4EFB-8109-A765B080AA93";
layerId = "E3DCEFA0-8403-4D0F-893C-EF64BA96B068";
name = img;
width = 900;
},
{
hints = (
{
horizontal = 1;
place = "{0, 153}";
type = Stem;
},
{
horizontal = 1;
place = "{87, 66}";
type = Stem;
},
{
horizontal = 1;
place = "{276, 65}";
type = Stem;
},
{
horizontal = 1;
place = "{87, 180}";
type = Stem;
},
{
horizontal = 1;
place = "{-39, 21}";
target = up;
type = BottomGhost;
},
{
horizontal = 1;
place = "{740, -20}";
target = down;
type = TopGhost;
},
{
horizontal = 1;
place = "{700, -20}";
target = down;
type = TopGhost;
}
);
layerId = "B977A21F-8DFA-4EFB-8109-A765B080AA93";
paths = (
{
closed = 1;
nodes = (
"224 -39 LINE",
"787 700 LINE",
"732 740 LINE",
"169 1 LINE"
);
},
{
closed = 1;
nodes = (
"684 0 LINE",
"761 0 LINE",
"776 87 LINE",
"833 87 LINE",
"845 153 LINE",
"788 153 LINE",
"808 267 LINE",
"731 267 LINE",
"711 153 LINE",
"599 153 LINE",
"769 404 LINE",
"701 430 LINE",
"504 139 LINE",
"495 87 LINE",
"699 87 LINE"
);
},
{
closed = 1;
nodes = (
"67 341 LINE",
"55 276 LINE",
"311 276 LINE",
"325 341 LINE",
"244 341 LINE",
"318 700 LINE",
"259 700 LINE",
"91 608 LINE",
"130 548 LINE",
"216 602 LINE",
"164 341 LINE"
);
}
);
width = 900;
}
);
unicode = 00BC;
},
{
color = 6;
glyphname = threequarters;
lastChange = "2022-01-27 14:35:35 +0000";
layers = (
{
associatedMasterId = "B977A21F-8DFA-4EFB-8109-A765B080AA93";
layerId = "E3DCEFA0-8403-4D0F-893C-EF64BA96B068";
name = img;
width = 900;
},
{
hints = (
{
place = "{289, 83}";
type = Stem;
},
{
place = "{312, 60}";
type = Stem;
},
{
place = "{312, 81}";
type = Stem;
},
{
horizontal = 1;
place = "{0, 153}";
type = Stem;
},
{
horizontal = 1;
place = "{87, 66}";
type = Stem;
},
{
horizontal = 1;
place = "{270, 66}";
type = Stem;
},
{
horizontal = 1;
place = "{467, 60}";
type = Stem;
},
{
horizontal = 1;
place = "{643, 64}";
type = Stem;
},
{
horizontal = 1;
place = "{87, 180}";
type = Stem;
},
{
horizontal = 1;
place = "{-39, 21}";
target = up;
type = BottomGhost;
},
{
horizontal = 1;
place = "{740, -20}";
target = down;
type = TopGhost;
}
);
layerId = "B977A21F-8DFA-4EFB-8109-A765B080AA93";
paths = (
{
closed = 1;
nodes = (
"240 -39 LINE",
"803 700 LINE",
"748 740 LINE",
"185 1 LINE"
);
},
{
closed = 1;
nodes = (
"692 0 LINE",
"769 0 LINE",
"784 87 LINE",
"841 87 LINE",
"853 153 LINE",
"796 153 LINE",
"816 267 LINE",
"739 267 LINE",
"719 153 LINE",
"607 153 LINE",
"777 404 LINE",
"709 430 LINE",
"512 139 LINE",
"503 87 LINE",
"707 87 LINE"
);
},
{
closed = 1;
nodes = (
"306 270 OFFCURVE",
"372 322 OFFCURVE",
"372 403 CURVE SMOOTH",
"372 445 OFFCURVE",
"347 476 OFFCURVE",
"302 497 CURVE",
"360 518 OFFCURVE",
"393 549 OFFCURVE",
"393 603 CURVE SMOOTH",
"393 657 OFFCURVE",
"339 707 OFFCURVE",
"252 707 CURVE SMOOTH",
"199 707 OFFCURVE",
"152 690 OFFCURVE",
"115 667 CURVE",
"149 613 LINE",
"175 629 OFFCURVE",
"204 643 OFFCURVE",
"244 643 CURVE SMOOTH",
"285 643 OFFCURVE",
"312 623 OFFCURVE",
"312 595 CURVE SMOOTH",
"312 551 OFFCURVE",
"255 527 OFFCURVE",
"176 527 CURVE SMOOTH",
"145 527 LINE",
"134 467 LINE",
"176 467 LINE SMOOTH",
"249 467 OFFCURVE",
"289 440 OFFCURVE",
"289 403 CURVE SMOOTH",
"289 358 OFFCURVE",
"251 336 OFFCURVE",
"194 336 CURVE SMOOTH",
"156 336 OFFCURVE",
"122 349 OFFCURVE",
"95 367 CURVE",
"47 311 LINE",
"85 285 OFFCURVE",
"138 270 OFFCURVE",
"191 270 CURVE SMOOTH"
);
}
);
width = 900;
}
);
unicode = 00BE;
},
{
color = 6;
glyphname = .notdef;
lastChange = "2022-01-27 14:35:35 +0000";
layers = (
{
layerId = "B977A21F-8DFA-4EFB-8109-A765B080AA93";
paths = (
{
closed = 1;
nodes = (
"106 0 LINE",
"494 0 LINE",
"494 700 LINE",
"106 700 LINE"
);
},
{
closed = 1;
nodes = (
"174 68 LINE",
"174 632 LINE",
"426 632 LINE",
"426 68 LINE"
);
}
);
width = 600;
}
);
},
{
color = 6;
glyphname = period;
lastChange = "2022-01-27 14:35:35 +0000";
layers = (
{
hints = (
{
horizontal = 1;
place = "{-12, 134}";
type = Stem;
},
{
place = "{57, 136}";
type = Stem;
}
);
layerId = "B977A21F-8DFA-4EFB-8109-A765B080AA93";
paths = (
{
closed = 1;
nodes = (
"157 -12 OFFCURVE",
"193 16 OFFCURVE",
"193 65 CURVE SMOOTH",
"193 95 OFFCURVE",
"169 122 OFFCURVE",
"131 122 CURVE SMOOTH",
"93 122 OFFCURVE",
"57 94 OFFCURVE",
"57 45 CURVE SMOOTH",
"57 15 OFFCURVE",
"81 -12 OFFCURVE",
"119 -12 CURVE SMOOTH"
);
}
);
width = 300;
}
);
unicode = 002E;
},
{
color = 6;
glyphname = comma;
lastChange = "2022-01-27 14:35:35 +0000";
layers = (
{
hints = (
{
horizontal = 1;
place = "{90, -20}";
target = down;
type = TopGhost;
},
{
horizontal = 1;
place = "{-160, 21}";
target = up;
type = BottomGhost;
}
);
layerId = "B977A21F-8DFA-4EFB-8109-A765B080AA93";
paths = (
{
closed = 1;
nodes = (
"107 90 LINE",
"73 1 OFFCURVE",
"30 -64 OFFCURVE",
"-35 -132 CURVE",
"12 -160 LINE",
"99 -113 OFFCURVE",
"164 -37 OFFCURVE",
"193 65 CURVE"
);
}
);
width = 300;
}
);
unicode = 002C;
},
{
color = 6;
glyphname = exclam;
lastChange = "2022-01-27 14:35:35 +0000";
layers = (
{
hints = (
{
horizontal = 1;
place = "{-12, 134}";
type = Stem;
},
{
horizontal = 1;
place = "{729, -20}";
target = down;
type = TopGhost;
},
{
place = "{52, 136}";
type = Stem;
}
);
layerId = "B977A21F-8DFA-4EFB-8109-A765B080AA93";
paths = (
{
closed = 1;
nodes = (
"143 480 LINE",
"108 207 LINE",
"182 207 LINE",
"243 480 LINE",
"287 729 LINE",
"187 729 LINE"
);
},
{
closed = 1;
nodes = (
"152 -12 OFFCURVE",
"188 16 OFFCURVE",
"188 65 CURVE SMOOTH",
"188 95 OFFCURVE",
"164 122 OFFCURVE",
"126 122 CURVE SMOOTH",
"88 122 OFFCURVE",
"52 94 OFFCURVE",
"52 45 CURVE SMOOTH",
"52 15 OFFCURVE",
"76 -12 OFFCURVE",
"114 -12 CURVE SMOOTH"
);
}
);
width = 314;
}
);
unicode = 0021;
},
{
color = 6;
glyphname = exclamdown;
lastChange = "2022-01-27 14:35:35 +0000";
layers = (
{
associatedMasterId = "B977A21F-8DFA-4EFB-8109-A765B080AA93";
layerId = "E3DCEFA0-8403-4D0F-893C-EF64BA96B068";
name = img;
width = 317;
},
{
hints = (
{
horizontal = 1;
place = "{398, 134}";
type = Stem;
},
{
horizontal = 1;
place = "{-220, 21}";
target = up;
type = BottomGhost;
},
{
place = "{129, 136}";
type = Stem;
}
);
layerId = "B977A21F-8DFA-4EFB-8109-A765B080AA93";
paths = (
{
closed = 1;
nodes = (
"174 41 LINE",
"209 314 LINE",
"135 314 LINE",
"74 41 LINE",
"27 -220 LINE",
"127 -220 LINE"
);
},
{
closed = 1;
nodes = (
"229 398 OFFCURVE",
"265 426 OFFCURVE",
"265 475 CURVE SMOOTH",
"265 505 OFFCURVE",
"241 532 OFFCURVE",
"203 532 CURVE SMOOTH",
"165 532 OFFCURVE",
"129 504 OFFCURVE",
"129 455 CURVE SMOOTH",
"129 425 OFFCURVE",
"153 398 OFFCURVE",
"191 398 CURVE SMOOTH"
);
}
);
width = 317;
}
);
unicode = 00A1;
},
{
color = 6;
glyphname = question;
lastChange = "2022-01-27 14:35:35 +0000";
layers = (
{
hints = (
{
horizontal = 1;
place = "{-12, 134}";
type = Stem;
},
{
horizontal = 1;
place = "{670, 82}";
type = Stem;
},
{
place = "{116, 136}";
type = Stem;
},
{
place = "{398, 98}";
type = Stem;
}
);
layerId = "B977A21F-8DFA-4EFB-8109-A765B080AA93";
paths = (
{
closed = 1;
nodes = (
"398 461 OFFCURVE",
"152 465 OFFCURVE",
"152 262 CURVE SMOOTH",
"152 243 OFFCURVE",
"154 223 OFFCURVE",
"156 207 CURVE",
"229 207 LINE",
"238 269 LINE SMOOTH",
"259 415 OFFCURVE",
"496 416 OFFCURVE",
"496 592 CURVE SMOOTH",
"496 683 OFFCURVE",
"417 752 OFFCURVE",
"311 752 CURVE SMOOTH",
"213 752 OFFCURVE",
"145 709 OFFCURVE",
"87 643 CURVE",
"147 583 LINE",
"189 635 OFFCURVE",
"240 670 OFFCURVE",
"298 670 CURVE SMOOTH",
"357 670 OFFCURVE",
"398 633 OFFCURVE",
"398 584 CURVE SMOOTH"
);
},
{
closed = 1;
nodes = (
"216 -12 OFFCURVE",
"252 16 OFFCURVE",
"252 65 CURVE SMOOTH",
"252 95 OFFCURVE",
"228 122 OFFCURVE",
"190 122 CURVE SMOOTH",
"152 122 OFFCURVE",
"116 94 OFFCURVE",
"116 45 CURVE SMOOTH",
"116 15 OFFCURVE",
"140 -12 OFFCURVE",
"178 -12 CURVE SMOOTH"
);
}
);
width = 498;
}
);
unicode = 003F;
},
{
color = 6;
glyphname = questiondown;
lastChange = "2022-01-27 14:35:35 +0000";
layers = (
{
associatedMasterId = "B977A21F-8DFA-4EFB-8109-A765B080AA93";
layerId = "E3DCEFA0-8403-4D0F-893C-EF64BA96B068";
name = img;
width = 498;
},
{
hints = (
{
horizontal = 1;
place = "{-232, 82}";
type = Stem;
},
{
horizontal = 1;
place = "{398, 134}";
type = Stem;
},
{
place = "{2, 98}";
type = Stem;
},
{
place = "{245, 136}";
type = Stem;
}
);
layerId = "B977A21F-8DFA-4EFB-8109-A765B080AA93";
paths = (
{
closed = 1;
nodes = (
"100 59 OFFCURVE",
"346 55 OFFCURVE",
"346 258 CURVE SMOOTH",
"346 277 OFFCURVE",
"344 297 OFFCURVE",
"342 313 CURVE",
"269 313 LINE",
"260 251 LINE SMOOTH",
"239 105 OFFCURVE",
"2 104 OFFCURVE",
"2 -72 CURVE SMOOTH",
"2 -163 OFFCURVE",
"81 -232 OFFCURVE",
"187 -232 CURVE SMOOTH",
"285 -232 OFFCURVE",
"353 -189 OFFCURVE",
"411 -123 CURVE",
"351 -63 LINE",
"309 -115 OFFCURVE",
"258 -150 OFFCURVE",
"200 -150 CURVE SMOOTH",
"141 -150 OFFCURVE",
"100 -113 OFFCURVE",
"100 -64 CURVE SMOOTH"
);
},
{
closed = 1;
nodes = (
"345 398 OFFCURVE",
"381 426 OFFCURVE",
"381 475 CURVE SMOOTH",
"381 505 OFFCURVE",
"357 532 OFFCURVE",
"319 532 CURVE SMOOTH",
"281 532 OFFCURVE",
"245 504 OFFCURVE",
"245 455 CURVE SMOOTH",
"245 425 OFFCURVE",
"269 398 OFFCURVE",
"307 398 CURVE SMOOTH"
);
}
);
width = 498;
}
);
unicode = 00BF;
},
{
color = 6;
glyphname = bullet;
lastChange = "2022-01-27 14:35:35 +0000";
layers = (
{
hints = (
{
horizontal = 1;
place = "{218, 21}";
target = up;
type = BottomGhost;
},
{
horizontal = 1;
place = "{492, -20}";
target = down;
type = TopGhost;
}
);
layerId = "B977A21F-8DFA-4EFB-8109-A765B080AA93";
paths = (
{
closed = 1;
nodes = (
"308 218 OFFCURVE",
"380 271 OFFCURVE",
"380 374 CURVE SMOOTH",
"380 437 OFFCURVE",
"330 492 OFFCURVE",
"252 492 CURVE SMOOTH",
"172 492 OFFCURVE",
"100 439 OFFCURVE",
"100 336 CURVE SMOOTH",
"100 274 OFFCURVE",
"150 218 OFFCURVE",
"228 218 CURVE SMOOTH"
);
}
);
width = 450;
}
);
unicode = 2022;
},
{
color = 6;
glyphname = asterisk;
lastChange = "2022-01-27 14:35:35 +0000";
layers = (
{
hints = (
{
horizontal = 1;
place = "{418, 21}";
target = up;
type = BottomGhost;
},
{
horizontal = 1;
place = "{740, -20}";
target = down;
type = TopGhost;
},
{
place = "{234, 71}";
type = Stem;
}
);
layerId = "B977A21F-8DFA-4EFB-8109-A765B080AA93";
paths = (
{
closed = 1;
nodes = (
"125 663 LINE",
"101 587 LINE",
"218 557 LINE",
"142 465 LINE",
"205 418 LINE",
"271 522 LINE",
"335 419 LINE",
"399 465 LINE",
"322 559 LINE",
"438 588 LINE",
"415 663 LINE",
"301 619 LINE",
"310 740 LINE",
"230 740 LINE",
"239 617 LINE"
);
}
);
width = 450;
}
);
unicode = 002A;
},
{
color = 6;
glyphname = numbersign;
lastChange = "2022-01-27 14:35:35 +0000";
layers = (
{
associatedMasterId = "B977A21F-8DFA-4EFB-8109-A765B080AA93";
layerId = "E3DCEFA0-8403-4D0F-893C-EF64BA96B068";
name = img;
width = 750;
},
{
hints = (
{
horizontal = 1;
place = "{0, 197}";
type = Stem;
},
{
horizontal = 1;
place = "{124, 73}";
type = Stem;
},
{
horizontal = 1;
place = "{447, 73}";
type = Stem;
},
{
horizontal = 1;
place = "{447, 197}";
type = Stem;
}
);
layerId = "B977A21F-8DFA-4EFB-8109-A765B080AA93";
paths = (
{
closed = 1;
nodes = (
"174 0 LINE",
"217 124 LINE",
"413 124 LINE",
"370 0 LINE",
"450 0 LINE",
"493 124 LINE",
"586 124 LINE",
"610 197 LINE",
"519 197 LINE",
"607 447 LINE",
"700 447 LINE",
"724 520 LINE",
"632 520 LINE",
"676 644 LINE",
"596 644 LINE",
"552 520 LINE",
"356 520 LINE",
"400 644 LINE",
"320 644 LINE",
"276 520 LINE",
"184 520 LINE",
"160 447 LINE",
"251 447 LINE",
"163 197 LINE",
"71 197 LINE",
"47 124 LINE",
"137 124 LINE",
"94 0 LINE"
);
},
{
closed = 1;
nodes = (
"331 447 LINE",
"527 447 LINE",
"439 197 LINE",
"243 197 LINE"
);
}
);
width = 750;
}
);
unicode = 0023;
},
{
color = 6;
glyphname = slash;
lastChange = "2022-01-27 14:35:35 +0000";
layers = (
{
hints = (
{
horizontal = 1;
place = "{-71, 21}";
target = up;
type = BottomGhost;
},
{
horizontal = 1;
place = "{773, -20}";
target = down;
type = TopGhost;
}
);
layerId = "B977A21F-8DFA-4EFB-8109-A765B080AA93";
paths = (
{
closed = 1;
nodes = (
"70 -71 LINE",
"488 737 LINE",
"418 773 LINE",
"0 -35 LINE"
);
}
);
width = 450;
}
);
unicode = 002F;
},
{
color = 6;
glyphname = backslash;
lastChange = "2022-01-27 14:35:35 +0000";
layers = (
{
hints = (
{
horizontal = 1;
place = "{773, -20}";
target = down;
type = TopGhost;
},
{
horizontal = 1;
place = "{-71, 21}";
target = up;
type = BottomGhost;
}
);
layerId = "B977A21F-8DFA-4EFB-8109-A765B080AA93";
paths = (
{
closed = 1;
nodes = (
"351 -59 LINE",
"211 773 LINE",
"138 761 LINE",
"278 -71 LINE"
);
}
);
width = 450;
}
);
unicode = 005C;
},
{
color = 6;
glyphname = hyphen;
lastChange = "2022-01-27 14:35:35 +0000";
layers = (
{
hints = (
{
horizontal = 1;
place = "{302, 82}";
type = Stem;
}
);
layerId = "B977A21F-8DFA-4EFB-8109-A765B080AA93";
paths = (
{
closed = 1;
nodes = (
"467 302 LINE",
"482 384 LINE",
"142 384 LINE",
"127 302 LINE"
);
}
);
width = 600;
}
);
unicode = 002D;
},
{
color = 6;
glyphname = uni00AD;
lastChange = "2022-01-27 14:35:35 +0000";
layers = (
{
hints = (
{
horizontal = 1;
place = "{302, 82}";
type = Stem;
}
);
layerId = "B977A21F-8DFA-4EFB-8109-A765B080AA93";
paths = (
{
closed = 1;
nodes = (
"467 302 LINE",
"482 384 LINE",
"142 384 LINE",
"127 302 LINE"
);
}
);
width = 600;
}
);
unicode = 00AD;
},
{
color = 6;
glyphname = endash;
lastChange = "2022-01-27 14:35:35 +0000";
layers = (
{
associatedMasterId = "B977A21F-8DFA-4EFB-8109-A765B080AA93";
layerId = "E3DCEFA0-8403-4D0F-893C-EF64BA96B068";
name = img;
width = 600;
},
{
hints = (
{
horizontal = 1;
place = "{302, 82}";
type = Stem;
}
);
layerId = "B977A21F-8DFA-4EFB-8109-A765B080AA93";
paths = (
{
closed = 1;
nodes = (
"532 302 LINE",
"547 384 LINE",
"87 384 LINE",
"72 302 LINE"
);
}
);
width = 600;
}
);
unicode = 2013;
},
{
color = 6;
glyphname = emdash;
lastChange = "2022-01-27 14:35:35 +0000";
layers = (
{
associatedMasterId = "B977A21F-8DFA-4EFB-8109-A765B080AA93";
layerId = "E3DCEFA0-8403-4D0F-893C-EF64BA96B068";
name = img;
width = 750;
},
{
hints = (
{
horizontal = 1;
place = "{302, 82}";
type = Stem;
}
);
layerId = "B977A21F-8DFA-4EFB-8109-A765B080AA93";
paths = (
{
closed = 1;
nodes = (
"677 302 LINE",
"692 384 LINE",
"92 384 LINE",
"77 302 LINE"
);
}
);
width = 750;
}
);
unicode = 2014;
},
{
color = 6;
glyphname = underscore;
lastChange = "2022-01-27 14:35:35 +0000";
layers = (
{
associatedMasterId = "B977A21F-8DFA-4EFB-8109-A765B080AA93";
layerId = "E3DCEFA0-8403-4D0F-893C-EF64BA96B068";
name = img;
width = 600;
},
{
hints = (
{
horizontal = 1;
place = "{-115, 60}";
type = Stem;
}
);
layerId = "B977A21F-8DFA-4EFB-8109-A765B080AA93";
paths = (
{
closed = 1;
nodes = (
"-60 -115 LINE",
"539 -115 LINE",
"550 -55 LINE",
"-50 -55 LINE"
);
}
);
width = 600;
}
);
unicode = 005F;
},
{
color = 6;
glyphname = parenleft;
lastChange = "2022-01-27 14:35:35 +0000";
layers = (
{
hints = (
{
horizontal = 1;
place = "{763, -20}";
target = down;
type = TopGhost;
},
{
horizontal = 1;
place = "{-123, 21}";
target = up;
type = BottomGhost;
},
{
place = "{60, 92}";
type = Stem;
}
);
layerId = "B977A21F-8DFA-4EFB-8109-A765B080AA93";
paths = (
{
closed = 1;
nodes = (
"279 763 LINE",
"149 589 OFFCURVE",
"60 407 OFFCURVE",
"60 199 CURVE SMOOTH",
"60 96 OFFCURVE",
"87 -21 OFFCURVE",
"127 -123 CURVE",
"182 -99 LINE",
"163 -19 OFFCURVE",
"152 70 OFFCURVE",
"152 165 CURVE SMOOTH",
"152 375 OFFCURVE",
"220 550 OFFCURVE",
"330 729 CURVE"
);
}
);
width = 300;
}
);
unicode = 0028;
},
{
color = 6;
glyphname = parenright;
lastChange = "2022-01-27 14:35:35 +0000";
layers = (
{
hints = (
{
horizontal = 1;
place = "{-123, 21}";
target = up;
type = BottomGhost;
},
{
horizontal = 1;
place = "{763, -20}";
target = down;
type = TopGhost;
},
{
place = "{168, 92}";
type = Stem;
}
);
layerId = "B977A21F-8DFA-4EFB-8109-A765B080AA93";
paths = (
{
closed = 1;
nodes = (
"41 -123 LINE",
"171 51 OFFCURVE",
"260 233 OFFCURVE",
"260 441 CURVE SMOOTH",
"260 544 OFFCURVE",
"233 661 OFFCURVE",
"193 763 CURVE",
"138 739 LINE",
"157 659 OFFCURVE",
"168 570 OFFCURVE",
"168 475 CURVE SMOOTH",
"168 265 OFFCURVE",
"100 90 OFFCURVE",
"-10 -89 CURVE"
);
}
);
width = 300;
}
);
unicode = 0029;
},
{
color = 6;
glyphname = braceleft;
lastChange = "2022-01-27 14:35:35 +0000";
layers = (
{
hints = (
{
place = "{151, 84}";
type = Stem;
},
{
place = "{164, 71}";
type = Stem;
},
{
place = "{164, 88}";
type = Stem;
},
{
horizontal = 1;
place = "{758, -20}";
target = down;
type = TopGhost;
},
{
horizontal = 1;
place = "{-118, 21}";
target = up;
type = BottomGhost;
}
);
layerId = "B977A21F-8DFA-4EFB-8109-A765B080AA93";
paths = (
{
closed = 1;
nodes = (
"256 345 OFFCURVE",
"292 374 OFFCURVE",
"317 526 CURVE SMOOTH",
"337 650 OFFCURVE",
"374 682 OFFCURVE",
"448 701 CURVE",
"458 758 LINE",
"315 739 OFFCURVE",
"258 688 OFFCURVE",
"226 522 CURVE SMOOTH",
"201 390 OFFCURVE",
"169 369 OFFCURVE",
"101 352 CURVE",
"90 288 LINE",
"142 280 OFFCURVE",
"164 258 OFFCURVE",
"164 202 CURVE SMOOTH",
"164 143 OFFCURVE",
"151 94 OFFCURVE",
"151 37 CURVE SMOOTH",
"151 -62 OFFCURVE",
"212 -103 OFFCURVE",
"304 -118 CURVE",
"314 -61 LINE",
"260 -47 OFFCURVE",
"235 -24 OFFCURVE",
"235 39 CURVE SMOOTH",
"235 100 OFFCURVE",
"252 152 OFFCURVE",
"252 208 CURVE SMOOTH",
"252 271 OFFCURVE",
"222 304 OFFCURVE",
"164 320 CURVE"
);
}
);
width = 450;
}
);
unicode = 007B;
},
{
color = 6;
glyphname = braceright;
lastChange = "2022-01-27 14:35:35 +0000";
layers = (
{
hints = (
{
place = "{212, 88}";
type = Stem;
},
{
place = "{229, 71}";
type = Stem;
},
{
place = "{229, 84}";
type = Stem;
},
{
horizontal = 1;
place = "{758, -20}";
target = down;
type = TopGhost;
},
{
horizontal = 1;
place = "{-118, 21}";
target = up;
type = BottomGhost;
}
);
layerId = "B977A21F-8DFA-4EFB-8109-A765B080AA93";
paths = (
{
closed = 1;
nodes = (
"374 352 LINE",
"322 360 OFFCURVE",
"300 382 OFFCURVE",
"300 438 CURVE SMOOTH",
"300 497 OFFCURVE",
"313 546 OFFCURVE",
"313 603 CURVE SMOOTH",
"313 702 OFFCURVE",
"252 743 OFFCURVE",
"160 758 CURVE",
"150 701 LINE",
"204 687 OFFCURVE",
"229 664 OFFCURVE",
"229 601 CURVE SMOOTH",
"229 540 OFFCURVE",
"212 488 OFFCURVE",
"212 432 CURVE SMOOTH",
"212 369 OFFCURVE",
"242 336 OFFCURVE",
"300 320 CURVE",
"208 295 OFFCURVE",
"172 266 OFFCURVE",
"147 114 CURVE SMOOTH",
"127 -10 OFFCURVE",
"90 -42 OFFCURVE",
"16 -61 CURVE",
"6 -118 LINE",
"149 -99 OFFCURVE",
"205 -48 OFFCURVE",
"237 118 CURVE SMOOTH",
"262 250 OFFCURVE",
"295 271 OFFCURVE",
"363 288 CURVE"
);
}
);
width = 450;
}
);
unicode = 007D;
},
{
color = 6;
glyphname = bracketleft;
lastChange = "2022-01-27 14:35:35 +0000";
layers = (
{
hints = (
{
horizontal = 1;
place = "{-100, 75}";
type = Stem;
},
{
horizontal = 1;
place = "{665, 75}";
type = Stem;
}
);
layerId = "B977A21F-8DFA-4EFB-8109-A765B080AA93";
paths = (
{
closed = 1;
nodes = (
"208 -100 LINE",
"222 -25 LINE",
"126 -25 LINE",
"249 665 LINE",
"343 665 LINE",
"357 740 LINE",
"183 740 LINE",
"34 -100 LINE"
);
}
);
width = 300;
}
);
unicode = 005B;
},
{
color = 6;
glyphname = bracketright;
lastChange = "2022-01-27 14:35:35 +0000";
layers = (
{
hints = (
{
horizontal = 1;
place = "{-100, 75}";
type = Stem;
},
{
horizontal = 1;
place = "{665, 75}";
type = Stem;
}
);
layerId = "B977A21F-8DFA-4EFB-8109-A765B080AA93";
paths = (
{
closed = 1;
nodes = (
"265 740 LINE",
"91 740 LINE",
"77 665 LINE",
"171 665 LINE",
"49 -25 LINE",
"-43 -25 LINE",
"-57 -100 LINE",
"116 -100 LINE"
);
}
);
width = 300;
}
);
unicode = 005D;
},
{
color = 6;
glyphname = quotedblleft;
lastChange = "2022-01-27 14:35:35 +0000";
layers = (
{
hints = (
{
horizontal = 1;
place = "{532, 128}";
type = Stem;
},
{
horizontal = 1;
place = "{782, -20}";
target = down;
type = TopGhost;
},
{
place = "{100, 146}";
type = Stem;
},
{
place = "{283, 146}";
type = Stem;
}
);
layerId = "B977A21F-8DFA-4EFB-8109-A765B080AA93";
paths = (
{
closed = 1;
nodes = (
"246 636 OFFCURVE",
"222 660 OFFCURVE",
"189 660 CURVE SMOOTH",
"181 660 OFFCURVE",
"175 659 OFFCURVE",
"168 657 CURVE",
"182 696 OFFCURVE",
"213 726 OFFCURVE",
"248 747 CURVE",
"232 782 LINE",
"159 747 OFFCURVE",
"100 679 OFFCURVE",
"100 605 CURVE SMOOTH",
"100 559 OFFCURVE",
"128 532 OFFCURVE",
"169 532 CURVE SMOOTH",
"213 532 OFFCURVE",
"246 563 OFFCURVE",
"246 604 CURVE SMOOTH"
);
},
{
closed = 1;
nodes = (
"429 636 OFFCURVE",
"405 660 OFFCURVE",
"372 660 CURVE SMOOTH",
"364 660 OFFCURVE",
"358 659 OFFCURVE",
"351 657 CURVE",
"365 696 OFFCURVE",
"396 726 OFFCURVE",
"431 747 CURVE",
"415 782 LINE",
"342 747 OFFCURVE",
"283 679 OFFCURVE",
"283 605 CURVE SMOOTH",
"283 559 OFFCURVE",
"311 532 OFFCURVE",
"352 532 CURVE SMOOTH",
"396 532 OFFCURVE",
"429 563 OFFCURVE",
"429 604 CURVE SMOOTH"
);
}
);
width = 411;
}
);
unicode = 201C;
},
{
color = 6;
glyphname = quotedblright;
lastChange = "2022-01-27 14:35:35 +0000";
layers = (
{
hints = (
{
horizontal = 1;
place = "{624, 128}";
type = Stem;
},
{
horizontal = 1;
place = "{502, 21}";
target = up;
type = BottomGhost;
},
{
place = "{102, 146}";
type = Stem;
},
{
place = "{285, 146}";
type = Stem;
}
);
layerId = "B977A21F-8DFA-4EFB-8109-A765B080AA93";
paths = (
{
closed = 1;
nodes = (
"102 648 OFFCURVE",
"126 624 OFFCURVE",
"159 624 CURVE SMOOTH",
"167 624 OFFCURVE",
"173 625 OFFCURVE",
"180 627 CURVE",
"166 588 OFFCURVE",
"135 558 OFFCURVE",
"100 537 CURVE",
"116 502 LINE",
"189 537 OFFCURVE",
"248 605 OFFCURVE",
"248 679 CURVE SMOOTH",
"248 725 OFFCURVE",
"220 752 OFFCURVE",
"179 752 CURVE SMOOTH",
"135 752 OFFCURVE",
"102 721 OFFCURVE",
"102 680 CURVE SMOOTH"
);
},
{
closed = 1;
nodes = (
"285 648 OFFCURVE",
"309 624 OFFCURVE",
"342 624 CURVE SMOOTH",
"350 624 OFFCURVE",
"356 625 OFFCURVE",
"363 627 CURVE",
"349 588 OFFCURVE",
"318 558 OFFCURVE",
"283 537 CURVE",
"299 502 LINE",
"372 537 OFFCURVE",
"431 605 OFFCURVE",
"431 679 CURVE SMOOTH",
"431 725 OFFCURVE",
"403 752 OFFCURVE",
"362 752 CURVE SMOOTH",
"318 752 OFFCURVE",
"285 721 OFFCURVE",
"285 680 CURVE SMOOTH"
);
}
);
width = 411;
}
);
unicode = 201D;
},
{
color = 6;
glyphname = quoteleft;
lastChange = "2022-01-27 14:35:35 +0000";
layers = (
{
hints = (
{
horizontal = 1;
place = "{532, 128}";
type = Stem;
},
{
horizontal = 1;
place = "{782, -20}";
target = down;
type = TopGhost;
},
{
place = "{100, 146}";
type = Stem;
}
);
layerId = "B977A21F-8DFA-4EFB-8109-A765B080AA93";
paths = (
{
closed = 1;
nodes = (
"246 636 OFFCURVE",
"222 660 OFFCURVE",
"189 660 CURVE SMOOTH",
"181 660 OFFCURVE",
"175 659 OFFCURVE",
"168 657 CURVE",
"182 696 OFFCURVE",
"213 726 OFFCURVE",
"248 747 CURVE",
"232 782 LINE",
"159 747 OFFCURVE",
"100 679 OFFCURVE",
"100 605 CURVE SMOOTH",
"100 559 OFFCURVE",
"128 532 OFFCURVE",
"169 532 CURVE SMOOTH",
"213 532 OFFCURVE",
"246 563 OFFCURVE",
"246 604 CURVE SMOOTH"
);
}
);
width = 228;
}
);
unicode = 2018;
},
{
color = 6;
glyphname = quoteright;
lastChange = "2022-01-27 14:35:35 +0000";
layers = (
{
hints = (
{
horizontal = 1;
place = "{624, 128}";
type = Stem;
},
{
horizontal = 1;
place = "{502, 21}";
target = up;
type = BottomGhost;
},
{
place = "{102, 146}";
type = Stem;
}
);
layerId = "B977A21F-8DFA-4EFB-8109-A765B080AA93";
paths = (
{
closed = 1;
nodes = (
"102 648 OFFCURVE",
"126 624 OFFCURVE",
"159 624 CURVE SMOOTH",
"167 624 OFFCURVE",
"173 625 OFFCURVE",
"180 627 CURVE",
"166 588 OFFCURVE",
"135 558 OFFCURVE",
"100 537 CURVE",
"116 502 LINE",
"189 537 OFFCURVE",
"248 605 OFFCURVE",
"248 679 CURVE SMOOTH",
"248 725 OFFCURVE",
"220 752 OFFCURVE",
"179 752 CURVE SMOOTH",
"135 752 OFFCURVE",
"102 721 OFFCURVE",
"102 680 CURVE SMOOTH"
);
}
);
width = 228;
}
);
unicode = 2019;
},
{
color = 6;
glyphname = guilsinglleft;
lastChange = "2022-01-27 14:35:35 +0000";
layers = (
{
associatedMasterId = "B977A21F-8DFA-4EFB-8109-A765B080AA93";
layerId = "E3DCEFA0-8403-4D0F-893C-EF64BA96B068";
name = img;
width = 369;
},
{
hints = (
{
horizontal = 1;
place = "{559, -20}";
target = down;
type = TopGhost;
},
{
horizontal = 1;
place = "{129, 21}";
target = up;
type = BottomGhost;
}
);
layerId = "B977A21F-8DFA-4EFB-8109-A765B080AA93";
paths = (
{
closed = 1;
nodes = (
"258 178 LINE",
"145 339 LINE",
"319 510 LINE",
"264 559 LINE",
"77 365 LINE",
"70 323 LINE",
"194 129 LINE"
);
}
);
width = 369;
}
);
unicode = 2039;
},
{
color = 6;
glyphname = guilsinglright;
lastChange = "2022-01-27 14:35:35 +0000";
layers = (
{
associatedMasterId = "B977A21F-8DFA-4EFB-8109-A765B080AA93";
layerId = "E3DCEFA0-8403-4D0F-893C-EF64BA96B068";
name = img;
width = 369;
},
{
hints = (
{
horizontal = 1;
place = "{129, 21}";
target = up;
type = BottomGhost;
},
{
horizontal = 1;
place = "{559, -20}";
target = down;
type = TopGhost;
}
);
layerId = "B977A21F-8DFA-4EFB-8109-A765B080AA93";
paths = (
{
closed = 1;
nodes = (
"131 510 LINE",
"244 349 LINE",
"70 178 LINE",
"125 129 LINE",
"312 323 LINE",
"319 365 LINE",
"195 559 LINE"
);
}
);
width = 369;
}
);
unicode = 203A;
},
{
color = 6;
glyphname = quotedbl;
lastChange = "2022-01-27 14:35:35 +0000";
layers = (
{
associatedMasterId = "B977A21F-8DFA-4EFB-8109-A765B080AA93";
layerId = "E3DCEFA0-8403-4D0F-893C-EF64BA96B068";
name = img;
width = 300;
},
{
hints = (
{
horizontal = 1;
place = "{477, 223}";
type = Stem;
}
);
layerId = "B977A21F-8DFA-4EFB-8109-A765B080AA93";
paths = (
{
closed = 1;
nodes = (
"96 700 LINE",
"65 477 LINE",
"136 477 LINE",
"183 700 LINE"
);
},
{
closed = 1;
nodes = (
"258 700 LINE",
"227 477 LINE",
"298 477 LINE",
"345 700 LINE"
);
}
);
width = 300;
}
);
unicode = 0022;
},
{
color = 6;
glyphname = quotesingle;
lastChange = "2022-01-27 14:35:35 +0000";
layers = (
{
associatedMasterId = "B977A21F-8DFA-4EFB-8109-A765B080AA93";
layerId = "E3DCEFA0-8403-4D0F-893C-EF64BA96B068";
name = img;
width = 150;
},
{
hints = (
{
horizontal = 1;
place = "{478, 222}";
type = Stem;
}
);
layerId = "B977A21F-8DFA-4EFB-8109-A765B080AA93";
paths = (
{
closed = 1;
nodes = (
"103 700 LINE",
"72 478 LINE",
"143 478 LINE",
"190 700 LINE"
);
}
);
width = 150;
}
);
unicode = 0027;
},
{
color = 6;
glyphname = at;
lastChange = "2022-01-27 14:35:35 +0000";
layers = (
{
associatedMasterId = "B977A21F-8DFA-4EFB-8109-A765B080AA93";
layerId = "E3DCEFA0-8403-4D0F-893C-EF64BA96B068";
name = img;
width = 1050;
},
{
hints = (
{
place = "{72, 92}";
type = Stem;
},
{
place = "{292, 81}";
type = Stem;
},
{
place = "{603, 74}";
type = Stem;
},
{
place = "{887, 92}";
type = Stem;
},
{
horizontal = 1;
place = "{-232, 80}";
type = Stem;
},
{
horizontal = 1;
place = "{-12, 64}";
type = Stem;
},
{
horizontal = 1;
place = "{0, 70}";
type = Stem;
},
{
horizontal = 1;
place = "{412, 68}";
type = Stem;
},
{
horizontal = 1;
place = "{632, 80}";
type = Stem;
}
);
layerId = "B977A21F-8DFA-4EFB-8109-A765B080AA93";
paths = (
{
closed = 1;
nodes = (
"695 52 OFFCURVE",
"677 67 OFFCURVE",
"677 95 CURVE SMOOTH",
"677 101 OFFCURVE",
"678 110 OFFCURVE",
"679 116 CURVE SMOOTH",
"738 448 LINE",
"705 462 OFFCURVE",
"653 480 OFFCURVE",
"584 480 CURVE SMOOTH",
"412 480 OFFCURVE",
"292 360 OFFCURVE",
"292 186 CURVE SMOOTH",
"292 58 OFFCURVE",
"375 0 OFFCURVE",
"454 0 CURVE SMOOTH",
"518 0 OFFCURVE",
"572 46 OFFCURVE",
"603 102 CURVE",
"603 93 LINE SMOOTH",
"603 25 OFFCURVE",
"641 -12 OFFCURVE",
"712 -12 CURVE SMOOTH",
"857 -12 OFFCURVE",
"979 139 OFFCURVE",
"979 348 CURVE SMOOTH",
"979 550 OFFCURVE",
"832 712 OFFCURVE",
"589 712 CURVE SMOOTH",
"292 712 OFFCURVE",
"72 491 OFFCURVE",
"72 166 CURVE SMOOTH",
"72 -86 OFFCURVE",
"240 -232 OFFCURVE",
"470 -232 CURVE SMOOTH",
"586 -232 OFFCURVE",
"679 -201 OFFCURVE",
"747 -168 CURVE",
"731 -90 LINE",
"659 -123 OFFCURVE",
"580 -152 OFFCURVE",
"481 -152 CURVE SMOOTH",
"299 -152 OFFCURVE",
"164 -30 OFFCURVE",
"164 171 CURVE SMOOTH",
"164 425 OFFCURVE",
"339 632 OFFCURVE",
"585 632 CURVE SMOOTH",
"763 632 OFFCURVE",
"887 506 OFFCURVE",
"887 336 CURVE SMOOTH",
"887 168 OFFCURVE",
"800 52 OFFCURVE",
"724 52 CURVE SMOOTH"
);
},
{
closed = 1;
nodes = (
"422 70 OFFCURVE",
"373 116 OFFCURVE",
"373 197 CURVE SMOOTH",
"373 327 OFFCURVE",
"457 412 OFFCURVE",
"577 412 CURVE SMOOTH",
"611 412 OFFCURVE",
"631 409 OFFCURVE",
"650 403 CURVE",
"619 232 LINE SMOOTH",
"602 136 OFFCURVE",
"540 70 OFFCURVE",
"478 70 CURVE SMOOTH"
);
}
);
width = 1050;
}
);
unicode = 0040;
},
{
color = 6;
glyphname = ampersand;
lastChange = "2022-01-27 14:35:35 +0000";
layers = (
{
associatedMasterId = "B977A21F-8DFA-4EFB-8109-A765B080AA93";
layerId = "E3DCEFA0-8403-4D0F-893C-EF64BA96B068";
name = img;
width = 761;
},
{
hints = (
{
place = "{60, 95}";
type = Stem;
},
{
place = "{139, 90}";
type = Stem;
},
{
horizontal = 1;
place = "{-12, 82}";
type = Stem;
},
{
horizontal = 1;
place = "{327, 73}";
type = Stem;
},
{
horizontal = 1;
place = "{632, 80}";
type = Stem;
}
);
layerId = "B977A21F-8DFA-4EFB-8109-A765B080AA93";
paths = (
{
closed = 1;
nodes = (
"645 327 LINE",
"696 327 OFFCURVE",
"731 339 OFFCURVE",
"751 370 CURVE",
"726 434 LINE",
"706 411 OFFCURVE",
"682 400 OFFCURVE",
"637 400 CURVE SMOOTH",
"379 400 LINE SMOOTH",
"290 400 OFFCURVE",
"229 456 OFFCURVE",
"229 517 CURVE SMOOTH",
"229 589 OFFCURVE",
"290 632 OFFCURVE",
"362 632 CURVE SMOOTH",
"419 632 OFFCURVE",
"466 607 OFFCURVE",
"500 580 CURVE",
"550 653 LINE",
"500 687 OFFCURVE",
"441 712 OFFCURVE",
"362 712 CURVE SMOOTH",
"240 712 OFFCURVE",
"139 639 OFFCURVE",
"139 526 CURVE SMOOTH",
"139 461 OFFCURVE",
"167 416 OFFCURVE",
"235 375 CURVE",
"116 335 OFFCURVE",
"60 260 OFFCURVE",
"60 166 CURVE SMOOTH",
"60 63 OFFCURVE",
"156 -12 OFFCURVE",
"279 -12 CURVE SMOOTH",
"453 -12 OFFCURVE",
"583 101 OFFCURVE",
"607 327 CURVE"
);
},
{
closed = 1;
nodes = (
"218 70 OFFCURVE",
"155 117 OFFCURVE",
"155 185 CURVE SMOOTH",
"155 264 OFFCURVE",
"235 327 OFFCURVE",
"365 327 CURVE SMOOTH",
"533 327 LINE",
"513 168 OFFCURVE",
"426 70 OFFCURVE",
"297 70 CURVE SMOOTH"
);
}
);
width = 761;
}
);
unicode = 0026;
},
{
color = 6;
glyphname = paragraph;
lastChange = "2022-01-27 14:35:35 +0000";
layers = (
{
associatedMasterId = "B977A21F-8DFA-4EFB-8109-A765B080AA93";
layerId = "E3DCEFA0-8403-4D0F-893C-EF64BA96B068";
name = img;
width = 750;
},
{
hints = (
{
horizontal = 1;
place = "{397, 77}";
type = Stem;
},
{
horizontal = 1;
place = "{702, 77}";
type = Stem;
},
{
horizontal = 1;
place = "{-64, 21}";
target = up;
type = BottomGhost;
},
{
place = "{90, 90}";
type = Stem;
}
);
layerId = "B977A21F-8DFA-4EFB-8109-A765B080AA93";
paths = (
{
closed = 1;
nodes = (
"514 -64 LINE",
"659 760 LINE",
"581 760 LINE",
"436 -64 LINE"
);
},
{
closed = 1;
nodes = (
"520 764 LINE",
"469 772 OFFCURVE",
"424 779 OFFCURVE",
"351 779 CURVE SMOOTH",
"192 779 OFFCURVE",
"90 692 OFFCURVE",
"90 574 CURVE SMOOTH",
"90 461 OFFCURVE",
"175 397 OFFCURVE",
"311 397 CURVE SMOOTH",
"334 397 OFFCURVE",
"357 398 OFFCURVE",
"378 401 CURVE",
"296 -64 LINE",
"374 -64 LINE"
);
},
{
closed = 1;
nodes = (
"392 480 LINE",
"371 475 OFFCURVE",
"349 474 OFFCURVE",
"317 474 CURVE SMOOTH",
"228 474 OFFCURVE",
"180 518 OFFCURVE",
"180 577 CURVE SMOOTH",
"180 648 OFFCURVE",
"241 702 OFFCURVE",
"346 702 CURVE SMOOTH",
"376 702 OFFCURVE",
"404 699 OFFCURVE",
"429 695 CURVE"
);
}
);
width = 750;
}
);
unicode = 00B6;
},
{
color = 6;
glyphname = section;
lastChange = "2022-01-27 14:35:35 +0000";
layers = (
{
associatedMasterId = "B977A21F-8DFA-4EFB-8109-A765B080AA93";
layerId = "E3DCEFA0-8403-4D0F-893C-EF64BA96B068";
name = img;
width = 600;
},
{
hints = (
{
place = "{118, 85}";
type = Stem;
},
{
place = "{190, 84}";
type = Stem;
},
{
place = "{341, 88}";
type = Stem;
},
{
place = "{417, 85}";
type = Stem;
},
{
horizontal = 1;
place = "{-72, 72}";
type = Stem;
},
{
horizontal = 1;
place = "{665, 68}";
type = Stem;
}
);
layerId = "B977A21F-8DFA-4EFB-8109-A765B080AA93";
paths = (
{
closed = 1;
nodes = (
"229 252 OFFCURVE",
"203 286 OFFCURVE",
"203 325 CURVE SMOOTH",
"203 384 OFFCURVE",
"268 426 OFFCURVE",
"333 440 CURVE",
"392 416 OFFCURVE",
"417 383 OFFCURVE",
"417 344 CURVE SMOOTH",
"417 286 OFFCURVE",
"364 246 OFFCURVE",
"291 227 CURVE"
);
},
{
closed = 1;
nodes = (
"72 -31 LINE",
"117 -59 OFFCURVE",
"168 -72 OFFCURVE",
"234 -72 CURVE SMOOTH",
"332 -72 OFFCURVE",
"429 -28 OFFCURVE",
"429 72 CURVE SMOOTH",
"429 122 OFFCURVE",
"403 159 OFFCURVE",
"349 190 CURVE",
"446 221 OFFCURVE",
"502 265 OFFCURVE",
"502 353 CURVE SMOOTH",
"502 412 OFFCURVE",
"468 455 OFFCURVE",
"386 497 CURVE SMOOTH",
"300 541 OFFCURVE",
"274 564 OFFCURVE",
"274 597 CURVE SMOOTH",
"274 640 OFFCURVE",
"323 665 OFFCURVE",
"381 665 CURVE SMOOTH",
"427 665 OFFCURVE",
"459 653 OFFCURVE",
"489 636 CURVE",
"528 701 LINE",
"489 719 OFFCURVE",
"446 733 OFFCURVE",
"386 733 CURVE SMOOTH",
"278 733 OFFCURVE",
"190 682 OFFCURVE",
"190 595 CURVE SMOOTH",
"190 543 OFFCURVE",
"214 509 OFFCURVE",
"270 475 CURVE",
"180 447 OFFCURVE",
"118 398 OFFCURVE",
"118 315 CURVE SMOOTH",
"118 249 OFFCURVE",
"155 210 OFFCURVE",
"246 163 CURVE SMOOTH",
"320 125 OFFCURVE",
"341 99 OFFCURVE",
"341 65 CURVE SMOOTH",
"341 25 OFFCURVE",
"305 0 OFFCURVE",
"237 0 CURVE SMOOTH",
"183 0 OFFCURVE",
"143 17 OFFCURVE",
"109 39 CURVE"
);
}
);
width = 600;
}
);
unicode = 00A7;
},
{
color = 6;
glyphname = copyright;
lastChange = "2022-01-27 14:35:35 +0000";
layers = (
{
associatedMasterId = "B977A21F-8DFA-4EFB-8109-A765B080AA93";
layerId = "E3DCEFA0-8403-4D0F-893C-EF64BA96B068";
name = img;
width = 750;
},
{
hints = (
{
horizontal = 1;
place = "{-12, 63}";
type = Stem;
},
{
horizontal = 1;
place = "{126, 77}";
type = Stem;
},
{
horizontal = 1;
place = "{501, 77}";
type = Stem;
},
{
horizontal = 1;
place = "{649, 63}";
type = Stem;
},
{
place = "{32, 74}";
type = Stem;
},
{
place = "{196, 86}";
type = Stem;
},
{
place = "{659, 74}";
type = Stem;
}
);
layerId = "B977A21F-8DFA-4EFB-8109-A765B080AA93";
paths = (
{
closed = 1;
nodes = (
"459 501 OFFCURVE",
"488 486 OFFCURVE",
"511 470 CURVE",
"548 540 LINE",
"514 562 OFFCURVE",
"474 578 OFFCURVE",
"425 578 CURVE SMOOTH",
"290 578 OFFCURVE",
"196 463 OFFCURVE",
"196 314 CURVE SMOOTH",
"196 194 OFFCURVE",
"265 126 OFFCURVE",
"371 126 CURVE SMOOTH",
"418 126 OFFCURVE",
"459 139 OFFCURVE",
"494 157 CURVE",
"480 236 LINE",
"444 215 OFFCURVE",
"412 203 OFFCURVE",
"380 203 CURVE SMOOTH",
"323 203 OFFCURVE",
"282 243 OFFCURVE",
"282 319 CURVE SMOOTH",
"282 425 OFFCURVE",
"343 501 OFFCURVE",
"422 501 CURVE SMOOTH"
);
},
{
closed = 1;
nodes = (
"200 51 OFFCURVE",
"106 155 OFFCURVE",
"106 301 CURVE SMOOTH",
"106 503 OFFCURVE",
"225 649 OFFCURVE",
"413 649 CURVE SMOOTH",
"565 649 OFFCURVE",
"659 544 OFFCURVE",
"659 399 CURVE SMOOTH",
"659 199 OFFCURVE",
"542 51 OFFCURVE",
"357 51 CURVE SMOOTH"
);
},
{
closed = 1;
nodes = (
"594 -12 OFFCURVE",
"733 177 OFFCURVE",
"733 400 CURVE SMOOTH",
"733 583 OFFCURVE",
"619 712 OFFCURVE",
"416 712 CURVE SMOOTH",
"173 712 OFFCURVE",
"32 525 OFFCURVE",
"32 300 CURVE SMOOTH",
"32 116 OFFCURVE",
"148 -12 OFFCURVE",
"349 -12 CURVE SMOOTH"
);
}
);
width = 750;
}
);
unicode = 00A9;
},
{
color = 6;
glyphname = registered;
lastChange = "2022-01-27 14:35:35 +0000";
layers = (
{
associatedMasterId = "B977A21F-8DFA-4EFB-8109-A765B080AA93";
layerId = "E3DCEFA0-8403-4D0F-893C-EF64BA96B068";
name = img;
width = 750;
},
{
hints = (
{
horizontal = 1;
place = "{-12, 63}";
type = Stem;
},
{
horizontal = 1;
place = "{139, 72}";
type = Stem;
},
{
horizontal = 1;
place = "{318, 70}";
type = Stem;
},
{
horizontal = 1;
place = "{502, 71}";
type = Stem;
},
{
horizontal = 1;
place = "{649, 63}";
type = Stem;
},
{
place = "{32, 74}";
type = Stem;
},
{
place = "{463, 78}";
type = Stem;
},
{
place = "{659, 74}";
type = Stem;
}
);
layerId = "B977A21F-8DFA-4EFB-8109-A765B080AA93";
paths = (
{
closed = 1;
nodes = (
"594 -12 OFFCURVE",
"733 177 OFFCURVE",
"733 400 CURVE SMOOTH",
"733 583 OFFCURVE",
"619 712 OFFCURVE",
"416 712 CURVE SMOOTH",
"173 712 OFFCURVE",
"32 525 OFFCURVE",
"32 300 CURVE SMOOTH",
"32 116 OFFCURVE",
"148 -12 OFFCURVE",
"349 -12 CURVE SMOOTH"
);
},
{
closed = 1;
nodes = (
"200 51 OFFCURVE",
"106 155 OFFCURVE",
"106 301 CURVE SMOOTH",
"106 503 OFFCURVE",
"225 649 OFFCURVE",
"413 649 CURVE SMOOTH",
"565 649 OFFCURVE",
"659 544 OFFCURVE",
"659 399 CURVE SMOOTH",
"659 199 OFFCURVE",
"542 51 OFFCURVE",
"357 51 CURVE SMOOTH"
);
},
{
closed = 1;
nodes = (
"554 211 LINE",
"467 211 OFFCURVE",
"517 300 OFFCURVE",
"426 346 CURVE",
"496 357 OFFCURVE",
"541 392 OFFCURVE",
"541 459 CURVE SMOOTH",
"541 521 OFFCURVE",
"490 573 OFFCURVE",
"395 573 CURVE SMOOTH",
"351 573 OFFCURVE",
"322 570 OFFCURVE",
"284 563 CURVE",
"209 143 LINE",
"289 143 LINE",
"320 318 LINE",
"458 310 OFFCURVE",
"391 139 OFFCURVE",
"522 139 CURVE"
);
},
{
closed = 1;
nodes = (
"438 502 OFFCURVE",
"463 481 OFFCURVE",
"463 452 CURVE SMOOTH",
"463 413 OFFCURVE",
"425 388 OFFCURVE",
"366 388 CURVE SMOOTH",
"332 388 LINE",
"352 499 LINE",
"365 501 OFFCURVE",
"378 502 OFFCURVE",
"393 502 CURVE SMOOTH"
);
}
);
width = 750;
}
);
unicode = 00AE;
},
{
color = 6;
glyphname = degree;
lastChange = "2022-01-27 14:35:35 +0000";
layers = (
{
associatedMasterId = "B977A21F-8DFA-4EFB-8109-A765B080AA93";
layerId = "E3DCEFA0-8403-4D0F-893C-EF64BA96B068";
name = img;
width = 450;
},
{
hints = (
{
horizontal = 1;
place = "{458, 74}";
type = Stem;
},
{
horizontal = 1;
place = "{666, 74}";
type = Stem;
},
{
place = "{74, 80}";
type = Stem;
},
{
place = "{286, 80}";
type = Stem;
}
);
layerId = "B977A21F-8DFA-4EFB-8109-A765B080AA93";
paths = (
{
closed = 1;
nodes = (
"292 458 OFFCURVE",
"366 519 OFFCURVE",
"366 614 CURVE SMOOTH",
"366 683 OFFCURVE",
"313 740 OFFCURVE",
"232 740 CURVE SMOOTH",
"148 740 OFFCURVE",
"74 679 OFFCURVE",
"74 584 CURVE SMOOTH",
"74 515 OFFCURVE",
"127 458 OFFCURVE",
"208 458 CURVE SMOOTH"
);
},
{
closed = 1;
nodes = (
"177 532 OFFCURVE",
"154 561 OFFCURVE",
"154 591 CURVE SMOOTH",
"154 638 OFFCURVE",
"188 666 OFFCURVE",
"224 666 CURVE SMOOTH",
"262 666 OFFCURVE",
"286 637 OFFCURVE",
"286 607 CURVE SMOOTH",
"286 560 OFFCURVE",
"251 532 OFFCURVE",
"215 532 CURVE SMOOTH"
);
}
);
width = 450;
}
);
unicode = 00B0;
},
{
color = 6;
glyphname = bar;
lastChange = "2022-01-27 14:35:35 +0000";
layers = (
{
hints = (
{
horizontal = 1;
place = "{-100, 21}";
target = up;
type = BottomGhost;
},
{
horizontal = 1;
place = "{770, -20}";
target = down;
type = TopGhost;
}
);
layerId = "B977A21F-8DFA-4EFB-8109-A765B080AA93";
paths = (
{
closed = 1;
nodes = (
"123 -100 LINE",
"275 770 LINE",
"197 770 LINE",
"45 -100 LINE"
);
}
);
width = 300;
}
);
unicode = 007C;
},
{
color = 6;
glyphname = brokenbar;
lastChange = "2022-01-27 14:35:35 +0000";
layers = (
{
associatedMasterId = "B977A21F-8DFA-4EFB-8109-A765B080AA93";
layerId = "E3DCEFA0-8403-4D0F-893C-EF64BA96B068";
name = img;
width = 300;
},
{
hints = (
{
horizontal = 1;
place = "{-100, 21}";
target = up;
type = BottomGhost;
},
{
horizontal = 1;
place = "{770, -20}";
target = down;
type = TopGhost;
}
);
layerId = "B977A21F-8DFA-4EFB-8109-A765B080AA93";
paths = (
{
closed = 1;
nodes = (
"45 -100 LINE",
"123 -100 LINE",
"185 257 LINE",
"107 257 LINE"
);
},
{
closed = 1;
nodes = (
"136 422 LINE",
"214 422 LINE",
"275 770 LINE",
"197 770 LINE"
);
}
);
width = 300;
}
);
unicode = 00A6;
},
{
color = 6;
glyphname = Euro;
lastChange = "2022-01-27 14:35:35 +0000";
layers = (
{
associatedMasterId = "B977A21F-8DFA-4EFB-8109-A765B080AA93";
layerId = "E3DCEFA0-8403-4D0F-893C-EF64BA96B068";
name = img;
width = 600;
},
{
hints = (
{
horizontal = 1;
place = "{-12, 78}";
type = Stem;
},
{
horizontal = 1;
place = "{235, 73}";
type = Stem;
},
{
horizontal = 1;
place = "{375, 73}";
type = Stem;
},
{
horizontal = 1;
place = "{634, 78}";
type = Stem;
}
);
layerId = "B977A21F-8DFA-4EFB-8109-A765B080AA93";
paths = (
{
closed = 1;
nodes = (
"443 235 LINE",
"456 308 LINE",
"213 308 LINE",
"214 330 OFFCURVE",
"217 353 OFFCURVE",
"221 375 CURVE",
"488 375 LINE",
"501 448 LINE",
"238 448 LINE",
"274 551 OFFCURVE",
"351 634 OFFCURVE",
"470 634 CURVE SMOOTH",
"523 634 OFFCURVE",
"570 617 OFFCURVE",
"606 591 CURVE",
"643 667 LINE",
"598 692 OFFCURVE",
"545 712 OFFCURVE",
"474 712 CURVE SMOOTH",
"300 712 OFFCURVE",
"192 594 OFFCURVE",
"146 448 CURVE",
"63 448 LINE",
"50 375 LINE",
"129 375 LINE",
"125 353 OFFCURVE",
"122 329 OFFCURVE",
"121 308 CURVE",
"38 308 LINE",
"25 235 LINE",
"121 235 LINE",
"135 86 OFFCURVE",
"232 -12 OFFCURVE",
"369 -12 CURVE SMOOTH",
"451 -12 OFFCURVE",
"505 13 OFFCURVE",
"543 33 CURVE",
"525 107 LINE",
"483 85 OFFCURVE",
"445 66 OFFCURVE",
"381 66 CURVE SMOOTH",
"293 66 OFFCURVE",
"228 128 OFFCURVE",
"214 235 CURVE"
);
}
);
width = 600;
}
);
unicode = 20AC;
},
{
color = 6;
glyphname = cent;
lastChange = "2022-01-27 14:35:35 +0000";
layers = (
{
associatedMasterId = "B977A21F-8DFA-4EFB-8109-A765B080AA93";
layerId = "E3DCEFA0-8403-4D0F-893C-EF64BA96B068";
name = img;
width = 450;
},
{
hints = (
{
place = "{35, 92}";
type = Stem;
},
{
horizontal = 1;
place = "{-95, 192}";
type = Stem;
},
{
horizontal = 1;
place = "{17, 80}";
type = Stem;
},
{
horizontal = 1;
place = "{481, 185}";
type = Stem;
}
);
layerId = "B977A21F-8DFA-4EFB-8109-A765B080AA93";
paths = (
{
closed = 1;
nodes = (
"466 521 LINE",
"437 538 OFFCURVE",
"403 552 OFFCURVE",
"362 558 CURVE",
"389 666 LINE",
"301 666 LINE",
"290 560 LINE",
"132 545 OFFCURVE",
"35 408 OFFCURVE",
"35 250 CURVE SMOOTH",
"35 131 OFFCURVE",
"99 47 OFFCURVE",
"197 23 CURVE",
"167 -95 LINE",
"255 -95 LINE",
"266 17 LINE",
"324 19 OFFCURVE",
"369 32 OFFCURVE",
"400 48 CURVE",
"389 127 LINE",
"357 111 OFFCURVE",
"320 97 OFFCURVE",
"269 97 CURVE SMOOTH",
"182 97 OFFCURVE",
"127 161 OFFCURVE",
"127 262 CURVE SMOOTH",
"127 385 OFFCURVE",
"200 481 OFFCURVE",
"311 481 CURVE SMOOTH",
"357 481 OFFCURVE",
"395 465 OFFCURVE",
"429 444 CURVE"
);
}
);
width = 450;
}
);
unicode = 00A2;
},
{
color = 6;
glyphname = currency;
lastChange = "2022-01-27 14:35:35 +0000";
layers = (
{
associatedMasterId = "B977A21F-8DFA-4EFB-8109-A765B080AA93";
layerId = "E3DCEFA0-8403-4D0F-893C-EF64BA96B068";
name = img;
width = 600;
},
{
hints = (
{
horizontal = 1;
place = "{144, 72}";
type = Stem;
},
{
horizontal = 1;
place = "{460, 72}";
type = Stem;
},
{
horizontal = 1;
place = "{586, -20}";
target = down;
type = TopGhost;
},
{
horizontal = 1;
place = "{90, 21}";
target = up;
type = BottomGhost;
},
{
place = "{106, 83}";
type = Stem;
},
{
place = "{417, 83}";
type = Stem;
}
);
layerId = "B977A21F-8DFA-4EFB-8109-A765B080AA93";
paths = (
{
closed = 1;
nodes = (
"293 532 OFFCURVE",
"261 525 OFFCURVE",
"232 512 CURVE",
"190 586 LINE",
"121 536 LINE",
"168 468 LINE",
"130 430 OFFCURVE",
"106 377 OFFCURVE",
"106 316 CURVE SMOOTH",
"106 278 OFFCURVE",
"117 245 OFFCURVE",
"137 217 CURVE",
"61 145 LINE",
"122 90 LINE",
"193 167 LINE",
"219 152 OFFCURVE",
"250 144 OFFCURVE",
"283 144 CURVE SMOOTH",
"315 144 OFFCURVE",
"346 151 OFFCURVE",
"374 163 CURVE",
"417 90 LINE",
"486 140 LINE",
"438 208 LINE",
"476 246 OFFCURVE",
"500 299 OFFCURVE",
"500 360 CURVE SMOOTH",
"500 399 OFFCURVE",
"487 435 OFFCURVE",
"466 463 CURVE",
"538 531 LINE",
"477 586 LINE",
"408 512 LINE",
"383 524 OFFCURVE",
"355 532 OFFCURVE",
"326 532 CURVE SMOOTH"
);
},
{
closed = 1;
nodes = (
"374 460 OFFCURVE",
"417 415 OFFCURVE",
"417 353 CURVE SMOOTH",
"417 280 OFFCURVE",
"372 216 OFFCURVE",
"293 216 CURVE SMOOTH",
"234 216 OFFCURVE",
"189 261 OFFCURVE",
"189 323 CURVE SMOOTH",
"189 396 OFFCURVE",
"236 460 OFFCURVE",
"315 460 CURVE SMOOTH"
);
}
);
width = 600;
}
);
unicode = 00A4;
},
{
color = 6;
glyphname = dollar;
lastChange = "2022-01-27 14:35:35 +0000";
layers = (
{
associatedMasterId = "B977A21F-8DFA-4EFB-8109-A765B080AA93";
layerId = "E3DCEFA0-8403-4D0F-893C-EF64BA96B068";
name = img;
width = 600;
},
{
hints = (
{
place = "{144, 87}";
type = Stem;
},
{
place = "{407, 91}";
type = Stem;
},
{
horizontal = 1;
place = "{-95, 188}";
type = Stem;
},
{
horizontal = 1;
place = "{608, 74}";
type = Stem;
},
{
horizontal = 1;
place = "{608, 187}";
type = Stem;
}
);
layerId = "B977A21F-8DFA-4EFB-8109-A765B080AA93";
paths = (
{
closed = 1;
nodes = (
"447 795 LINE",
"359 795 LINE",
"348 682 LINE",
"227 677 OFFCURVE",
"144 610 OFFCURVE",
"144 513 CURVE SMOOTH",
"144 432 OFFCURVE",
"181 388 OFFCURVE",
"277 333 CURVE SMOOTH",
"381 274 OFFCURVE",
"407 241 OFFCURVE",
"407 191 CURVE SMOOTH",
"407 131 OFFCURVE",
"355 93 OFFCURVE",
"276 93 CURVE SMOOTH",
"208 93 OFFCURVE",
"157 118 OFFCURVE",
"115 157 CURVE",
"58 86 LINE",
"105 48 OFFCURVE",
"159 24 OFFCURVE",
"229 18 CURVE",
"200 -95 LINE",
"288 -95 LINE",
"299 18 LINE",
"416 28 OFFCURVE",
"498 91 OFFCURVE",
"498 200 CURVE SMOOTH",
"498 283 OFFCURVE",
"462 338 OFFCURVE",
"344 402 CURVE SMOOTH",
"259 448 OFFCURVE",
"231 480 OFFCURVE",
"231 523 CURVE SMOOTH",
"231 573 OFFCURVE",
"282 608 OFFCURVE",
"355 608 CURVE SMOOTH",
"419 608 OFFCURVE",
"462 586 OFFCURVE",
"506 559 CURVE",
"552 631 LINE",
"512 654 OFFCURVE",
"468 671 OFFCURVE",
"418 679 CURVE"
);
}
);
width = 600;
}
);
unicode = 0024;
},
{
color = 6;
glyphname = sterling;
lastChange = "2022-01-27 14:35:35 +0000";
layers = (
{
associatedMasterId = "B977A21F-8DFA-4EFB-8109-A765B080AA93";
layerId = "E3DCEFA0-8403-4D0F-893C-EF64BA96B068";
name = img;
width = 600;
},
{
hints = (
{
horizontal = 1;
place = "{0, 83}";
type = Stem;
},
{
horizontal = 1;
place = "{321, 76}";
type = Stem;
},
{
horizontal = 1;
place = "{636, 76}";
type = Stem;
}
);
layerId = "B977A21F-8DFA-4EFB-8109-A765B080AA93";
paths = (
{
closed = 1;
nodes = (
"492 83 LINE",
"160 83 LINE",
"210 139 OFFCURVE",
"242 202 OFFCURVE",
"267 321 CURVE",
"436 321 LINE",
"450 397 LINE",
"282 397 LINE",
"306 525 LINE SMOOTH",
"321 606 OFFCURVE",
"367 636 OFFCURVE",
"422 636 CURVE SMOOTH",
"463 636 OFFCURVE",
"498 617 OFFCURVE",
"528 598 CURVE",
"569 668 LINE",
"532 689 OFFCURVE",
"486 712 OFFCURVE",
"421 712 CURVE SMOOTH",
"322 712 OFFCURVE",
"243 663 OFFCURVE",
"220 534 CURVE SMOOTH",
"196 397 LINE",
"120 397 LINE",
"106 321 LINE",
"182 321 LINE",
"158 200 OFFCURVE",
"131 149 OFFCURVE",
"64 73 CURVE",
"51 0 LINE",
"478 0 LINE"
);
}
);
width = 600;
}
);
unicode = 00A3;
},
{
color = 6;
glyphname = yen;
lastChange = "2022-01-27 14:35:35 +0000";
layers = (
{
associatedMasterId = "B977A21F-8DFA-4EFB-8109-A765B080AA93";
layerId = "E3DCEFA0-8403-4D0F-893C-EF64BA96B068";
name = img;
width = 600;
},
{
hints = (
{
horizontal = 1;
place = "{0, 199}";
type = Stem;
},
{
horizontal = 1;
place = "{126, 73}";
type = Stem;
},
{
horizontal = 1;
place = "{266, 73}";
type = Stem;
},
{
horizontal = 1;
place = "{705, -20}";
target = down;
type = TopGhost;
}
);
layerId = "B977A21F-8DFA-4EFB-8109-A765B080AA93";
paths = (
{
closed = 1;
nodes = (
"85 266 LINE",
"243 266 LINE",
"231 199 LINE",
"73 199 LINE",
"60 126 LINE",
"218 126 LINE",
"196 0 LINE",
"291 0 LINE",
"313 126 LINE",
"470 126 LINE",
"483 199 LINE",
"326 199 LINE",
"338 266 LINE",
"495 266 LINE",
"508 339 LINE",
"392 339 LINE",
"649 656 LINE",
"576 705 LINE",
"304 351 LINE",
"149 705 LINE",
"65 667 LINE",
"216 339 LINE",
"98 339 LINE"
);
}
);
width = 600;
}
);
unicode = 00A5;
},
{
color = 6;
glyphname = plus;
lastChange = "2022-01-27 14:35:35 +0000";
layers = (
{
hints = (
{
horizontal = 1;
place = "{142, 240}";
type = Stem;
},
{
horizontal = 1;
place = "{304, 78}";
type = Stem;
},
{
horizontal = 1;
place = "{304, 241}";
type = Stem;
}
);
layerId = "B977A21F-8DFA-4EFB-8109-A765B080AA93";
paths = (
{
closed = 1;
nodes = (
"494 304 LINE",
"507 382 LINE",
"355 382 LINE",
"384 545 LINE",
"299 545 LINE",
"270 382 LINE",
"117 382 LINE",
"104 304 LINE",
"257 304 LINE",
"228 142 LINE",
"313 142 LINE",
"342 304 LINE"
);
}
);
width = 600;
}
);
unicode = 002B;
},
{
color = 6;
glyphname = minus;
lastChange = "2022-01-27 14:35:35 +0000";
layers = (
{
hints = (
{
horizontal = 1;
place = "{302, 82}";
type = Stem;
}
);
layerId = "B977A21F-8DFA-4EFB-8109-A765B080AA93";
paths = (
{
closed = 1;
nodes = (
"472 302 LINE",
"487 384 LINE",
"147 384 LINE",
"132 302 LINE"
);
}
);
width = 600;
}
);
unicode = 2212;
},
{
color = 6;
glyphname = multiply;
lastChange = "2022-01-27 14:35:35 +0000";
layers = (
{
associatedMasterId = "B977A21F-8DFA-4EFB-8109-A765B080AA93";
layerId = "E3DCEFA0-8403-4D0F-893C-EF64BA96B068";
name = img;
width = 600;
},
{
hints = (
{
horizontal = 1;
place = "{156, 21}";
target = up;
type = BottomGhost;
},
{
horizontal = 1;
place = "{534, -20}";
target = down;
type = TopGhost;
}
);
layerId = "B977A21F-8DFA-4EFB-8109-A765B080AA93";
paths = (
{
closed = 1;
nodes = (
"251 348 LINE",
"93 215 LINE",
"141 156 LINE",
"300 291 LINE",
"411 156 LINE",
"473 208 LINE",
"360 341 LINE",
"518 475 LINE",
"470 534 LINE",
"312 398 LINE",
"202 534 LINE",
"140 481 LINE"
);
}
);
width = 600;
}
);
unicode = 00D7;
},
{
color = 6;
glyphname = divide;
lastChange = "2022-01-27 14:35:35 +0000";
layers = (
{
associatedMasterId = "B977A21F-8DFA-4EFB-8109-A765B080AA93";
layerId = "E3DCEFA0-8403-4D0F-893C-EF64BA96B068";
name = img;
width = 600;
},
{
hints = (
{
place = "{198, 136}";
type = Stem;
},
{
place = "{272, 136}";
type = Stem;
},
{
horizontal = 1;
place = "{71, 134}";
type = Stem;
},
{
horizontal = 1;
place = "{302, 82}";
type = Stem;
},
{
horizontal = 1;
place = "{481, 134}";
type = Stem;
}
);
layerId = "B977A21F-8DFA-4EFB-8109-A765B080AA93";
paths = (
{
closed = 1;
nodes = (
"467 302 LINE",
"482 384 LINE",
"142 384 LINE",
"127 302 LINE"
);
},
{
closed = 1;
nodes = (
"298 71 OFFCURVE",
"334 99 OFFCURVE",
"334 148 CURVE SMOOTH",
"334 178 OFFCURVE",
"310 205 OFFCURVE",
"272 205 CURVE SMOOTH",
"234 205 OFFCURVE",
"198 177 OFFCURVE",
"198 128 CURVE SMOOTH",
"198 98 OFFCURVE",
"222 71 OFFCURVE",
"260 71 CURVE SMOOTH"
);
},
{
closed = 1;
nodes = (
"372 481 OFFCURVE",
"408 509 OFFCURVE",
"408 558 CURVE SMOOTH",
"408 588 OFFCURVE",
"384 615 OFFCURVE",
"346 615 CURVE SMOOTH",
"308 615 OFFCURVE",
"272 587 OFFCURVE",
"272 538 CURVE SMOOTH",
"272 508 OFFCURVE",
"296 481 OFFCURVE",
"334 481 CURVE SMOOTH"
);
}
);
width = 600;
}
);
unicode = 00F7;
},
{
color = 6;
glyphname = equal;
lastChange = "2022-01-27 14:35:35 +0000";
layers = (
{
hints = (
{
horizontal = 1;
place = "{213, 79}";
type = Stem;
},
{
horizontal = 1;
place = "{395, 79}";
type = Stem;
}
);
layerId = "B977A21F-8DFA-4EFB-8109-A765B080AA93";
paths = (
{
closed = 1;
nodes = (
"511 395 LINE",
"525 474 LINE",
"130 474 LINE",
"116 395 LINE"
);
},
{
closed = 1;
nodes = (
"480 213 LINE",
"494 292 LINE",
"99 292 LINE",
"85 213 LINE"
);
}
);
width = 600;
}
);
unicode = 003D;
},
{
color = 6;
glyphname = greater;
lastChange = "2022-01-27 14:35:35 +0000";
layers = (
{
hints = (
{
horizontal = 1;
place = "{114, 21}";
target = up;
type = BottomGhost;
},
{
horizontal = 1;
place = "{572, -20}";
target = down;
type = TopGhost;
}
);
layerId = "B977A21F-8DFA-4EFB-8109-A765B080AA93";
paths = (
{
closed = 1;
nodes = (
"127 114 LINE",
"479 315 LINE",
"489 372 LINE",
"205 572 LINE",
"147 508 LINE",
"378 349 LINE",
"91 184 LINE"
);
}
);
width = 600;
}
);
unicode = 003E;
},
{
color = 6;
glyphname = less;
lastChange = "2022-01-27 14:35:35 +0000";
layers = (
{
hints = (
{
horizontal = 1;
place = "{572, -20}";
target = down;
type = TopGhost;
},
{
horizontal = 1;
place = "{114, 21}";
target = up;
type = BottomGhost;
}
);
layerId = "B977A21F-8DFA-4EFB-8109-A765B080AA93";
paths = (
{
closed = 1;
nodes = (
"473 572 LINE",
"121 371 LINE",
"111 314 LINE",
"395 114 LINE",
"453 178 LINE",
"222 337 LINE",
"509 502 LINE"
);
}
);
width = 600;
}
);
unicode = 003C;
},
{
color = 6;
glyphname = plusminus;
lastChange = "2022-01-27 14:35:35 +0000";
layers = (
{
associatedMasterId = "B977A21F-8DFA-4EFB-8109-A765B080AA93";
layerId = "E3DCEFA0-8403-4D0F-893C-EF64BA96B068";
name = img;
width = 600;
},
{
hints = (
{
horizontal = 1;
place = "{81, 82}";
type = Stem;
},
{
horizontal = 1;
place = "{259, 213}";
type = Stem;
},
{
horizontal = 1;
place = "{394, 78}";
type = Stem;
},
{
horizontal = 1;
place = "{394, 214}";
type = Stem;
}
);
layerId = "B977A21F-8DFA-4EFB-8109-A765B080AA93";
paths = (
{
closed = 1;
nodes = (
"492 394 LINE",
"505 472 LINE",
"378 472 LINE",
"402 608 LINE",
"317 608 LINE",
"293 472 LINE",
"165 472 LINE",
"152 394 LINE",
"280 394 LINE",
"256 259 LINE",
"341 259 LINE",
"365 394 LINE"
);
},
{
closed = 1;
nodes = (
"436 81 LINE",
"451 163 LINE",
"111 163 LINE",
"96 81 LINE"
);
}
);
width = 600;
}
);
unicode = 00B1;
},
{
color = 6;
glyphname = asciitilde;
lastChange = "2022-01-27 14:35:35 +0000";
layers = (
{
hints = (
{
horizontal = 1;
place = "{253, 80}";
type = Stem;
},
{
horizontal = 1;
place = "{310, 23}";
type = Stem;
},
{
horizontal = 1;
place = "{310, 80}";
type = Stem;
}
);
layerId = "B977A21F-8DFA-4EFB-8109-A765B080AA93";
paths = (
{
closed = 1;
nodes = (
"499 388 LINE",
"474 369 OFFCURVE",
"437 333 OFFCURVE",
"385 333 CURVE SMOOTH",
"323 333 OFFCURVE",
"276 390 OFFCURVE",
"205 390 CURVE SMOOTH",
"155 390 OFFCURVE",
"110 357 OFFCURVE",
"76 328 CURVE",
"100 262 LINE",
"128 284 OFFCURVE",
"164 310 OFFCURVE",
"204 310 CURVE SMOOTH",
"266 310 OFFCURVE",
"312 253 OFFCURVE",
"384 253 CURVE SMOOTH",
"446 253 OFFCURVE",
"499 299 OFFCURVE",
"524 322 CURVE"
);
}
);
width = 600;
}
);
unicode = 007E;
},
{
color = 6;
glyphname = logicalnot;
lastChange = "2022-01-27 14:35:35 +0000";
layers = (
{
associatedMasterId = "B977A21F-8DFA-4EFB-8109-A765B080AA93";
layerId = "E3DCEFA0-8403-4D0F-893C-EF64BA96B068";
name = img;
width = 600;
},
{
hints = (
{
horizontal = 1;
place = "{300, 83}";
type = Stem;
},
{
horizontal = 1;
place = "{120, 21}";
target = up;
type = BottomGhost;
}
);
layerId = "B977A21F-8DFA-4EFB-8109-A765B080AA93";
paths = (
{
closed = 1;
nodes = (
"545 383 LINE",
"75 383 LINE",
"60 300 LINE",
"439 300 LINE",
"407 120 LINE",
"498 120 LINE"
);
}
);
width = 600;
}
);
unicode = 00AC;
},
{
color = 6;
glyphname = asciicircum;
lastChange = "2022-01-27 14:35:35 +0000";
layers = (
{
associatedMasterId = "B977A21F-8DFA-4EFB-8109-A765B080AA93";
layerId = "E3DCEFA0-8403-4D0F-893C-EF64BA96B068";
name = img;
width = 600;
},
{
hints = (
{
horizontal = 1;
place = "{740, -20}";
target = down;
type = TopGhost;
},
{
horizontal = 1;
place = "{510, 21}";
target = up;
type = BottomGhost;
}
);
layerId = "B977A21F-8DFA-4EFB-8109-A765B080AA93";
paths = (
{
closed = 1;
nodes = (
"536 568 LINE",
"382 740 LINE",
"340 740 LINE",
"124 572 LINE",
"173 510 LINE",
"352 656 LINE",
"473 510 LINE"
);
}
);
width = 600;
}
);
unicode = 005E;
},
{
color = 6;
glyphname = mu;
lastChange = "2022-01-27 14:35:35 +0000";
layers = (
{
associatedMasterId = "B977A21F-8DFA-4EFB-8109-A765B080AA93";
layerId = "E3DCEFA0-8403-4D0F-893C-EF64BA96B068";
name = img;
width = 600;
},
{
hints = (
{
horizontal = 1;
place = "{0, 68}";
type = Stem;
},
{
horizontal = 1;
place = "{-220, 21}";
target = up;
type = BottomGhost;
},
{
horizontal = 1;
place = "{-12, -20}";
target = down;
type = TopGhost;
},
{
horizontal = 1;
place = "{520, -20}";
target = down;
type = TopGhost;
}
);
layerId = "B977A21F-8DFA-4EFB-8109-A765B080AA93";
paths = (
{
closed = 1;
nodes = (
"10 -220 LINE",
"88 -220 LINE",
"136 45 LINE",
"151 13 OFFCURVE",
"184 -12 OFFCURVE",
"230 -12 CURVE SMOOTH",
"304 -12 OFFCURVE",
"362 35 OFFCURVE",
"402 96 CURVE",
"385 0 LINE",
"468 0 LINE",
"560 520 LINE",
"474 520 LINE",
"429 269 LINE SMOOTH",
"406 143 OFFCURVE",
"325 68 OFFCURVE",
"250 68 CURVE SMOOTH",
"202 68 OFFCURVE",
"163 100 OFFCURVE",
"163 156 CURVE SMOOTH",
"163 167 OFFCURVE",
"164 179 OFFCURVE",
"166 191 CURVE SMOOTH",
"224 520 LINE",
"141 520 LINE"
);
}
);
width = 600;
}
);
unicode = 00B5;
},
{
color = 6;
glyphname = percent;
lastChange = "2022-01-27 14:35:35 +0000";
layers = (
{
hints = (
{
horizontal = 1;
place = "{-7, 67}";
type = Stem;
},
{
horizontal = 1;
place = "{270, 67}";
type = Stem;
},
{
horizontal = 1;
place = "{364, 66}";
type = Stem;
},
{
horizontal = 1;
place = "{641, 66}";
type = Stem;
},
{
horizontal = 1;
place = "{-39, 21}";
target = up;
type = BottomGhost;
},
{
horizontal = 1;
place = "{740, -20}";
target = down;
type = TopGhost;
},
{
place = "{57, 84}";
type = Stem;
},
{
place = "{331, 84}";
type = Stem;
},
{
place = "{515, 84}";
type = Stem;
},
{
place = "{789, 84}";
type = Stem;
}
);
layerId = "B977A21F-8DFA-4EFB-8109-A765B080AA93";
paths = (
{
closed = 1;
nodes = (
"212 -39 LINE",
"775 700 LINE",
"720 740 LINE",
"157 1 LINE"
);
},
{
closed = 1;
nodes = (
"415 648 OFFCURVE",
"364 707 OFFCURVE",
"271 707 CURVE SMOOTH",
"108 707 OFFCURVE",
"57 542 OFFCURVE",
"57 431 CURVE SMOOTH",
"57 332 OFFCURVE",
"110 270 OFFCURVE",
"204 270 CURVE SMOOTH",
"364 270 OFFCURVE",
"415 439 OFFCURVE",
"415 547 CURVE SMOOTH"
);
},
{
closed = 1;
nodes = (
"165 337 OFFCURVE",
"141 368 OFFCURVE",
"141 427 CURVE SMOOTH",
"141 497 OFFCURVE",
"164 641 OFFCURVE",
"262 641 CURVE SMOOTH",
"309 641 OFFCURVE",
"331 609 OFFCURVE",
"331 551 CURVE SMOOTH",
"331 482 OFFCURVE",
"309 337 OFFCURVE",
"210 337 CURVE SMOOTH"
);
},
{
closed = 1;
nodes = (
"873 371 OFFCURVE",
"822 430 OFFCURVE",
"729 430 CURVE SMOOTH",
"566 430 OFFCURVE",
"515 265 OFFCURVE",
"515 154 CURVE SMOOTH",
"515 55 OFFCURVE",
"568 -7 OFFCURVE",
"662 -7 CURVE SMOOTH",
"822 -7 OFFCURVE",
"873 162 OFFCURVE",
"873 270 CURVE SMOOTH"
);
},
{
closed = 1;
nodes = (
"623 60 OFFCURVE",
"599 91 OFFCURVE",
"599 150 CURVE SMOOTH",
"599 220 OFFCURVE",
"622 364 OFFCURVE",
"720 364 CURVE SMOOTH",
"767 364 OFFCURVE",
"789 332 OFFCURVE",
"789 274 CURVE SMOOTH",
"789 205 OFFCURVE",
"767 60 OFFCURVE",
"668 60 CURVE SMOOTH"
);
}
);
width = 900;
}
);
unicode = 0025;
},
{
color = 6;
glyphname = dotaccentcmb;
lastChange = "2022-01-27 14:35:35 +0000";
layers = (
{
associatedMasterId = "B977A21F-8DFA-4EFB-8109-A765B080AA93";
layerId = "E3DCEFA0-8403-4D0F-893C-EF64BA96B068";
name = img;
width = 207;
},
{
hints = (
{
horizontal = 1;
place = "{609, 126}";
type = Stem;
},
{
place = "{40, 127}";
type = Stem;
}
);
layerId = "B977A21F-8DFA-4EFB-8109-A765B080AA93";
paths = (
{
closed = 1;
nodes = (
"137 609 OFFCURVE",
"167 638 OFFCURVE",
"167 680 CURVE SMOOTH",
"167 709 OFFCURVE",
"147 735 OFFCURVE",
"110 735 CURVE SMOOTH",
"70 735 OFFCURVE",
"40 706 OFFCURVE",
"40 664 CURVE SMOOTH",
"40 635 OFFCURVE",
"60 609 OFFCURVE",
"97 609 CURVE SMOOTH"
);
}
);
width = 207;
}
);
unicode = 0307;
},
{
color = 6;
glyphname = dieresis;
lastChange = "2022-01-27 14:35:35 +0000";
layers = (
{
associatedMasterId = "B977A21F-8DFA-4EFB-8109-A765B080AA93";
layerId = "E3DCEFA0-8403-4D0F-893C-EF64BA96B068";
name = img;
width = 380;
},
{
hints = (
{
horizontal = 1;
place = "{607, 120}";
type = Stem;
},
{
place = "{40, 121}";
type = Stem;
},
{
place = "{219, 121}";
type = Stem;
}
);
layerId = "B977A21F-8DFA-4EFB-8109-A765B080AA93";
paths = (
{
closed = 1;
nodes = (
"132 607 OFFCURVE",
"161 635 OFFCURVE",
"161 675 CURVE SMOOTH",
"161 702 OFFCURVE",
"142 727 OFFCURVE",
"107 727 CURVE SMOOTH",
"69 727 OFFCURVE",
"40 699 OFFCURVE",
"40 659 CURVE SMOOTH",
"40 632 OFFCURVE",
"59 607 OFFCURVE",
"94 607 CURVE SMOOTH"
);
},
{
closed = 1;
nodes = (
"311 607 OFFCURVE",
"340 635 OFFCURVE",
"340 675 CURVE SMOOTH",
"340 702 OFFCURVE",
"321 727 OFFCURVE",
"286 727 CURVE SMOOTH",
"248 727 OFFCURVE",
"219 699 OFFCURVE",
"219 659 CURVE SMOOTH",
"219 632 OFFCURVE",
"238 607 OFFCURVE",
"273 607 CURVE SMOOTH"
);
}
);
width = 380;
}
);
unicode = 00A8;
},
{
color = 6;
glyphname = grave;
lastChange = "2022-01-27 14:35:35 +0000";
layers = (
{
associatedMasterId = "B977A21F-8DFA-4EFB-8109-A765B080AA93";
layerId = "E3DCEFA0-8403-4D0F-893C-EF64BA96B068";
name = img;
width = 309;
},
{
hints = (
{
horizontal = 1;
place = "{760, -20}";
target = down;
type = TopGhost;
},
{
horizontal = 1;
place = "{575, 21}";
target = up;
type = BottomGhost;
}
);
layerId = "B977A21F-8DFA-4EFB-8109-A765B080AA93";
paths = (
{
closed = 1;
nodes = (
"269 630 LINE",
"92 760 LINE",
"40 684 LINE",
"233 575 LINE"
);
}
);
width = 309;
}
);
unicode = 0060;
},
{
color = 6;
glyphname = acute;
lastChange = "2022-01-27 14:35:35 +0000";
layers = (
{
associatedMasterId = "B977A21F-8DFA-4EFB-8109-A765B080AA93";
layerId = "E3DCEFA0-8403-4D0F-893C-EF64BA96B068";
name = img;
width = 309;
},
{
hints = (
{
horizontal = 1;
place = "{575, 21}";
target = up;
type = BottomGhost;
},
{
horizontal = 1;
place = "{760, -20}";
target = down;
type = TopGhost;
}
);
layerId = "B977A21F-8DFA-4EFB-8109-A765B080AA93";
paths = (
{
closed = 1;
nodes = (
"76 575 LINE",
"269 684 LINE",
"217 760 LINE",
"40 630 LINE"
);
}
);
width = 309;
}
);
unicode = 00B4;
},
{
color = 6;
glyphname = circumflex;
lastChange = "2022-01-27 14:35:35 +0000";
layers = (
{
associatedMasterId = "B977A21F-8DFA-4EFB-8109-A765B080AA93";
layerId = "E3DCEFA0-8403-4D0F-893C-EF64BA96B068";
name = img;
width = 458;
},
{
hints = (
{
horizontal = 1;
place = "{572, 21}";
target = up;
type = BottomGhost;
},
{
horizontal = 1;
place = "{740, -20}";
target = down;
type = TopGhost;
}
);
layerId = "B977A21F-8DFA-4EFB-8109-A765B080AA93";
paths = (
{
closed = 1;
nodes = (
"237 677 LINE",
"352 572 LINE",
"408 633 LINE",
"276 740 LINE",
"212 740 LINE",
"50 646 LINE",
"84 572 LINE"
);
}
);
width = 458;
}
);
unicode = 02C6;
},
{
color = 6;
glyphname = caron;
lastChange = "2022-01-27 14:35:35 +0000";
layers = (
{
associatedMasterId = "B977A21F-8DFA-4EFB-8109-A765B080AA93";
layerId = "E3DCEFA0-8403-4D0F-893C-EF64BA96B068";
name = img;
width = 456;
},
{
hints = (
{
horizontal = 1;
place = "{587, 21}";
target = up;
type = BottomGhost;
},
{
horizontal = 1;
place = "{756, -20}";
target = down;
type = TopGhost;
}
);
layerId = "B977A21F-8DFA-4EFB-8109-A765B080AA93";
paths = (
{
closed = 1;
nodes = (
"180 587 LINE",
"244 587 LINE",
"406 681 LINE",
"362 755 LINE",
"219 650 LINE",
"95 756 LINE",
"50 681 LINE"
);
}
);
width = 456;
}
);
unicode = 02C7;
},
{
color = 6;
glyphname = ring;
lastChange = "2022-01-27 14:35:35 +0000";
layers = (
{
associatedMasterId = "B977A21F-8DFA-4EFB-8109-A765B080AA93";
layerId = "E3DCEFA0-8403-4D0F-893C-EF64BA96B068";
name = img;
width = 333;
},
{
hints = (
{
horizontal = 1;
place = "{582, 62}";
type = Stem;
},
{
horizontal = 1;
place = "{760, 62}";
type = Stem;
},
{
place = "{40, 78}";
type = Stem;
},
{
place = "{215, 78}";
type = Stem;
}
);
layerId = "B977A21F-8DFA-4EFB-8109-A765B080AA93";
paths = (
{
closed = 1;
nodes = (
"134 644 OFFCURVE",
"118 665 OFFCURVE",
"118 695 CURVE SMOOTH",
"118 731 OFFCURVE",
"140 760 OFFCURVE",
"173 760 CURVE SMOOTH",
"199 760 OFFCURVE",
"215 739 OFFCURVE",
"215 709 CURVE SMOOTH",
"215 673 OFFCURVE",
"193 644 OFFCURVE",
"160 644 CURVE SMOOTH"
);
},
{
closed = 1;
nodes = (
"238 582 OFFCURVE",
"293 640 OFFCURVE",
"293 718 CURVE SMOOTH",
"293 782 OFFCURVE",
"245 822 OFFCURVE",
"179 822 CURVE SMOOTH",
"95 822 OFFCURVE",
"40 764 OFFCURVE",
"40 686 CURVE SMOOTH",
"40 622 OFFCURVE",
"88 582 OFFCURVE",
"154 582 CURVE SMOOTH"
);
}
);
width = 333;
}
);
unicode = 02DA;
},
{
color = 6;
glyphname = tilde;
lastChange = "2022-01-27 14:35:35 +0000";
layers = (
{
associatedMasterId = "B977A21F-8DFA-4EFB-8109-A765B080AA93";
layerId = "E3DCEFA0-8403-4D0F-893C-EF64BA96B068";
name = img;
width = 421;
},
{
hints = (
{
horizontal = 1;
place = "{609, 79}";
type = Stem;
},
{
horizontal = 1;
place = "{644, 44}";
type = Stem;
},
{
horizontal = 1;
place = "{644, 78}";
type = Stem;
},
{
horizontal = 1;
place = "{608, 21}";
target = up;
type = BottomGhost;
}
);
layerId = "B977A21F-8DFA-4EFB-8109-A765B080AA93";
paths = (
{
closed = 1;
nodes = (
"347 719 LINE",
"327 703 OFFCURVE",
"304 688 OFFCURVE",
"278 688 CURVE SMOOTH",
"231 688 OFFCURVE",
"213 722 OFFCURVE",
"161 722 CURVE SMOOTH",
"123 722 OFFCURVE",
"81 699 OFFCURVE",
"50 670 CURVE",
"74 608 LINE",
"98 628 OFFCURVE",
"124 644 OFFCURVE",
"154 644 CURVE SMOOTH",
"199 644 OFFCURVE",
"219 609 OFFCURVE",
"272 609 CURVE SMOOTH",
"313 609 OFFCURVE",
"343 632 OFFCURVE",
"371 656 CURVE"
);
}
);
width = 421;
}
);
unicode = 02DC;
},
{
color = 6;
glyphname = macron;
lastChange = "2022-01-27 14:35:35 +0000";
layers = (
{
associatedMasterId = "B977A21F-8DFA-4EFB-8109-A765B080AA93";
layerId = "E3DCEFA0-8403-4D0F-893C-EF64BA96B068";
name = img;
width = 403;
},
{
hints = (
{
horizontal = 1;
place = "{627, 73}";
type = Stem;
}
);
layerId = "B977A21F-8DFA-4EFB-8109-A765B080AA93";
paths = (
{
closed = 1;
nodes = (
"340 627 LINE",
"353 700 LINE",
"63 700 LINE",
"50 627 LINE"
);
}
);
width = 403;
}
);
unicode = 00AF;
},
{
color = 6;
glyphname = cedilla;
lastChange = "2022-01-27 14:35:35 +0000";
layers = (
{
hints = (
{
place = "{200, 82}";
type = Stem;
},
{
horizontal = 1;
place = "{-244, 66}";
type = Stem;
},
{
horizontal = 1;
place = "{-95, 36}";
type = Stem;
},
{
horizontal = 1;
place = "{-95, 95}";
type = Stem;
}
);
layerId = "B977A21F-8DFA-4EFB-8109-A765B080AA93";
paths = (
{
closed = 1;
nodes = (
"282 -92 OFFCURVE",
"243 -59 OFFCURVE",
"188 -59 CURVE",
"219 0 LINE",
"145 0 LINE",
"93 -95 LINE",
"173 -95 OFFCURVE",
"200 -115 OFFCURVE",
"200 -139 CURVE SMOOTH",
"200 -164 OFFCURVE",
"177 -178 OFFCURVE",
"137 -178 CURVE SMOOTH",
"108 -178 OFFCURVE",
"86 -170 OFFCURVE",
"65 -158 CURVE",
"30 -221 LINE",
"58 -235 OFFCURVE",
"91 -244 OFFCURVE",
"137 -244 CURVE SMOOTH",
"218 -244 OFFCURVE",
"282 -208 OFFCURVE",
"282 -140 CURVE SMOOTH"
);
}
);
width = 312;
}
);
unicode = 00B8;
},
{
color = 6;
glyphname = dotaccentcmb.case;
lastChange = "2022-01-27 14:36:24 +0000";
layers = (
{
hints = (
{
horizontal = 1;
place = "{574, 126}";
type = Stem;
},
{
place = "{40, 127}";
type = Stem;
}
);
layerId = "B977A21F-8DFA-4EFB-8109-A765B080AA93";
paths = (
{
closed = 1;
nodes = (
"137 574 OFFCURVE",
"167 603 OFFCURVE",
"167 645 CURVE SMOOTH",
"167 674 OFFCURVE",
"147 700 OFFCURVE",
"110 700 CURVE SMOOTH",
"70 700 OFFCURVE",
"40 671 OFFCURVE",
"40 629 CURVE SMOOTH",
"40 600 OFFCURVE",
"60 574 OFFCURVE",
"97 574 CURVE SMOOTH"
);
}
);
width = 207;
}
);
},
{
color = 6;
glyphname = dieresis.case;
lastChange = "2022-01-27 14:36:24 +0000";
layers = (
{
hints = (
{
horizontal = 1;
place = "{577, 120}";
type = Stem;
},
{
place = "{40, 121}";
type = Stem;
},
{
place = "{219, 121}";
type = Stem;
}
);
layerId = "B977A21F-8DFA-4EFB-8109-A765B080AA93";
paths = (
{
closed = 1;
nodes = (
"132 577 OFFCURVE",
"161 605 OFFCURVE",
"161 645 CURVE SMOOTH",
"161 672 OFFCURVE",
"142 697 OFFCURVE",
"107 697 CURVE SMOOTH",
"69 697 OFFCURVE",
"40 669 OFFCURVE",
"40 629 CURVE SMOOTH",
"40 602 OFFCURVE",
"59 577 OFFCURVE",
"94 577 CURVE SMOOTH"
);
},
{
closed = 1;
nodes = (
"311 577 OFFCURVE",
"340 605 OFFCURVE",
"340 645 CURVE SMOOTH",
"340 672 OFFCURVE",
"321 697 OFFCURVE",
"286 697 CURVE SMOOTH",
"248 697 OFFCURVE",
"219 669 OFFCURVE",
"219 629 CURVE SMOOTH",
"219 602 OFFCURVE",
"238 577 OFFCURVE",
"273 577 CURVE SMOOTH"
);
}
);
width = 380;
}
);
},
{
color = 6;
glyphname = grave.case;
lastChange = "2022-01-27 14:36:24 +0000";
layers = (
{
hints = (
{
horizontal = 1;
place = "{740, -20}";
target = down;
type = TopGhost;
},
{
horizontal = 1;
place = "{554, 21}";
target = up;
type = BottomGhost;
}
);
layerId = "B977A21F-8DFA-4EFB-8109-A765B080AA93";
paths = (
{
closed = 1;
nodes = (
"269 610 LINE",
"92 740 LINE",
"40 664 LINE",
"233 554 LINE"
);
}
);
width = 309;
}
);
},
{
color = 6;
glyphname = acute.case;
lastChange = "2022-01-27 14:36:24 +0000";
layers = (
{
hints = (
{
horizontal = 1;
place = "{554, 21}";
target = up;
type = BottomGhost;
},
{
horizontal = 1;
place = "{740, -20}";
target = down;
type = TopGhost;
}
);
layerId = "B977A21F-8DFA-4EFB-8109-A765B080AA93";
paths = (
{
closed = 1;
nodes = (
"76 554 LINE",
"269 664 LINE",
"217 740 LINE",
"40 610 LINE"
);
}
);
width = 309;
}
);
},
{
color = 6;
glyphname = circumflex.case;
lastChange = "2022-01-27 14:36:24 +0000";
layers = (
{
hints = (
{
horizontal = 1;
place = "{572, 21}";
target = up;
type = BottomGhost;
},
{
horizontal = 1;
place = "{730, -20}";
target = down;
type = TopGhost;
}
);
layerId = "B977A21F-8DFA-4EFB-8109-A765B080AA93";
paths = (
{
closed = 1;
nodes = (
"234 667 LINE",
"352 572 LINE",
"408 634 LINE",
"276 730 LINE",
"212 730 LINE",
"50 647 LINE",
"84 572 LINE"
);
}
);
width = 458;
}
);
},
{
color = 6;
glyphname = caron.case;
lastChange = "2022-01-27 14:36:24 +0000";
layers = (
{
hints = (
{
horizontal = 1;
place = "{569, 21}";
target = up;
type = BottomGhost;
},
{
horizontal = 1;
place = "{727, -20}";
target = down;
type = TopGhost;
}
);
layerId = "B977A21F-8DFA-4EFB-8109-A765B080AA93";
paths = (
{
closed = 1;
nodes = (
"180 569 LINE",
"244 569 LINE",
"406 656 LINE",
"362 727 LINE",
"218 632 LINE",
"95 727 LINE",
"50 656 LINE"
);
}
);
width = 456;
}
);
},
{
color = 6;
glyphname = ring.case;
lastChange = "2022-01-27 14:36:24 +0000";
layers = (
{
hints = (
{
horizontal = 1;
place = "{512, 62}";
type = Stem;
},
{
horizontal = 1;
place = "{690, 62}";
type = Stem;
},
{
place = "{40, 78}";
type = Stem;
},
{
place = "{215, 78}";
type = Stem;
}
);
layerId = "B977A21F-8DFA-4EFB-8109-A765B080AA93";
paths = (
{
closed = 1;
nodes = (
"134 574 OFFCURVE",
"118 595 OFFCURVE",
"118 625 CURVE SMOOTH",
"118 661 OFFCURVE",
"140 690 OFFCURVE",
"173 690 CURVE SMOOTH",
"199 690 OFFCURVE",
"215 669 OFFCURVE",
"215 639 CURVE SMOOTH",
"215 603 OFFCURVE",
"193 574 OFFCURVE",
"160 574 CURVE SMOOTH"
);
},
{
closed = 1;
nodes = (
"238 512 OFFCURVE",
"293 570 OFFCURVE",
"293 648 CURVE SMOOTH",
"293 712 OFFCURVE",
"245 752 OFFCURVE",
"179 752 CURVE SMOOTH",
"95 752 OFFCURVE",
"40 694 OFFCURVE",
"40 616 CURVE SMOOTH",
"40 552 OFFCURVE",
"88 512 OFFCURVE",
"154 512 CURVE SMOOTH"
);
}
);
width = 333;
}
);
},
{
color = 6;
glyphname = tilde.case;
lastChange = "2022-01-27 14:36:24 +0000";
layers = (
{
hints = (
{
horizontal = 1;
place = "{579, 79}";
type = Stem;
},
{
horizontal = 1;
place = "{614, 44}";
type = Stem;
},
{
horizontal = 1;
place = "{614, 78}";
type = Stem;
},
{
horizontal = 1;
place = "{578, 21}";
target = up;
type = BottomGhost;
}
);
layerId = "B977A21F-8DFA-4EFB-8109-A765B080AA93";
paths = (
{
closed = 1;
nodes = (
"347 689 LINE",
"327 673 OFFCURVE",
"304 658 OFFCURVE",
"278 658 CURVE SMOOTH",
"231 658 OFFCURVE",
"213 692 OFFCURVE",
"161 692 CURVE SMOOTH",
"123 692 OFFCURVE",
"81 669 OFFCURVE",
"50 640 CURVE",
"74 578 LINE",
"98 598 OFFCURVE",
"124 614 OFFCURVE",
"154 614 CURVE SMOOTH",
"199 614 OFFCURVE",
"219 579 OFFCURVE",
"272 579 CURVE SMOOTH",
"313 579 OFFCURVE",
"343 602 OFFCURVE",
"371 626 CURVE"
);
}
);
width = 421;
}
);
},
{
color = 6;
glyphname = commaaccent;
lastChange = "2022-01-27 14:35:35 +0000";
layers = (
{
hints = (
{
horizontal = 1;
place = "{-30, -20}";
target = down;
type = TopGhost;
},
{
horizontal = 1;
place = "{-242, 21}";
target = up;
type = BottomGhost;
}
);
layerId = "B977A21F-8DFA-4EFB-8109-A765B080AA93";
paths = (
{
closed = 1;
nodes = (
"161 -30 LINE",
"132 -105 OFFCURVE",
"95 -161 OFFCURVE",
"40 -218 CURVE",
"80 -242 LINE",
"154 -202 OFFCURVE",
"209 -138 OFFCURVE",
"234 -51 CURVE"
);
}
);
width = 274;
}
);
unicode = F6C3;
},
{
color = 6;
glyphname = foundryicon;
lastChange = "2022-01-27 14:35:35 +0000";
layers = (
{
associatedMasterId = "B977A21F-8DFA-4EFB-8109-A765B080AA93";
layerId = "14B8D7B1-D99D-49AB-86B7-69741176AEF8";
name = public.background;
paths = (
{
closed = 1;
nodes = (
"432 0 LINE",
"432 288 LINE",
"144 288 LINE",
"144 0 LINE"
);
},
{
closed = 1;
nodes = (
"720 0 LINE",
"720 288 LINE",
"432 288 LINE",
"432 0 LINE"
);
},
{
closed = 1;
nodes = (
"432 288 LINE",
"432 576 LINE",
"144 576 LINE",
"144 288 LINE"
);
},
{
closed = 1;
nodes = (
"720 432 LINE",
"720 576 LINE",
"576 576 LINE",
"576 432 LINE"
);
}
